SplineFontDB: 3.0
FontName: BadScript-Regular
FullName: Bad Script Regular
FamilyName: Bad Script
Weight: Regular
Copyright: Copyright (c) 2011, Cyreal (www.cyreal.org) with Reserved Font Name "Bad Script".
Version: 1.003
ItalicAngle: 0
UnderlinePosition: -103
UnderlineWidth: 102
Ascent: 1638
Descent: 410
sfntRevision: 0x00010083
LayerCount: 2
Layer: 0 1 "Back"  1
Layer: 1 1 "Fore"  0
NeedsXUIDChange: 1
XUID: [1021 288 713564382 9066252]
FSType: 0
OS2Version: 3
OS2_WeightWidthSlopeOnly: 0
OS2_UseTypoMetrics: 1
CreationTime: 1323425940
ModificationTime: 1323644455
PfmFamily: 17
TTFWeight: 400
TTFWidth: 5
LineGap: 0
VLineGap: 0
Panose: 2 0 0 0 0 0 0 0 0 0
OS2TypoAscent: 2710
OS2TypoAOffset: 0
OS2TypoDescent: -1327
OS2TypoDOffset: 0
OS2TypoLinegap: 0
OS2WinAscent: 2710
OS2WinAOffset: 0
OS2WinDescent: 1327
OS2WinDOffset: 0
HheadAscent: 2710
HheadAOffset: 0
HheadDescent: -1327
HheadDOffset: 0
OS2SubXSize: 1434
OS2SubYSize: 1331
OS2SubXOff: 0
OS2SubYOff: 287
OS2SupXSize: 1434
OS2SupYSize: 1331
OS2SupXOff: 0
OS2SupYOff: 977
OS2StrikeYSize: 102
OS2StrikeYPos: 512
OS2Vendor: 'PYRS'
OS2CodePages: 00000005.00000000
OS2UnicodeRanges: 80000223.0000004b.00000000.00000000
MarkAttachClasses: 1
DEI: 91125
TtTable: prep
PUSHW_1
 511
SCANCTRL
PUSHB_1
 4
SCANTYPE
EndTTInstrs
LangName: 1033 "" "" "" "Cyreal.org: Bad Script: 2011" "" "Version 1.003" "" "Bad Script is a trademark of Cyreal (www.cyreal.org)." "Cyreal (www.cyreal.org)" "Roman Shchyukin (Gaslight Type Foundry)" "" "http://cyreal.org" "http://new.myfonts.com/foundry/Gaslight/" "This Font Software is licensed under the SIL Open Font License,+AA0A-Version 1.1. This license is available with a FAQ at:+AA0A-http://scripts.sil.org/OFL" "http://scripts.sil.org/OFL" "" "" "" "Bad Script" 
GaspTable: 1 65535 15
Encoding: UnicodeBmp
UnicodeInterp: none
NameList: Adobe Glyph List
DisplaySize: -36
AntiAlias: 1
FitToEm: 1
WinInfo: 34 34 13
BeginPrivate: 0
EndPrivate

StartChar: .notdef
Encoding: 65536 -1 0
Width: 1976
Flags: HW
LayerCount: 2
Fore
SplineSet
1227 553 m 1,0,-1
 1376 752 l 1,1,2
 1331 791 1331 791 1300 805 c 1,3,-1
 1149 614 l 1,4,5
 1040 701 1040 701 950 764 c 1,6,7
 909 717 909 717 897 684 c 1,8,-1
 1083 537 l 1,9,-1
 936 346 l 1,10,11
 938 337 938 337 968 313.5 c 128,-1,12
 998 290 998 290 1006 291 c 1,13,-1
 1165 471 l 1,14,-1
 1356 324 l 1,15,16
 1364 326 1364 326 1388 356 c 128,-1,17
 1412 386 1412 386 1411 393 c 1,18,19
 1396 407 1396 407 1333 461 c 128,-1,20
 1270 515 1270 515 1227 553 c 1,0,-1
924 -57 m 1,21,22
 953 -34 953 -34 1012 -34 c 0,23,24
 1014 -34 1014 -34 1026.5 -33.5 c 128,-1,25
 1039 -33 1039 -33 1040 -33 c 1,26,27
 1013 -10 1013 -10 950 30 c 128,-1,28
 887 70 887 70 887 82 c 128,-1,29
 887 94 887 94 897.5 101 c 128,-1,30
 908 108 908 108 913 113 c 1,31,32
 897.615384615 128.384615385 897.615384615 128.384615385 897.615384615 148 c 128,-1,33
 897.615384615 167.615384615 897.615384615 167.615384615 899 178 c 1,34,35
 736 267 736 267 624 407 c 0,36,37
 543 508 543 508 503.5 574.5 c 128,-1,38
 464 641 464 641 461 645 c 1,39,40
 398 666 398 666 375 674 c 128,-1,41
 352 682 352 682 318 693.5 c 128,-1,42
 284 705 284 705 270 711 c 128,-1,43
 256 717 256 717 195.342056075 740.829906542 c 128,-1,44
 134.68411215 764.659813084 134.68411215 764.659813084 101.636093754 792.327921508 c 128,-1,45
 68.5880753591 819.996029932 68.5880753591 819.996029932 68.5880753591 837.998014966 c 128,-1,46
 68.5880753591 856 68.5880753591 856 92 856 c 1,47,-1
 616 811 l 1,48,49
 689 826 689 826 776 842.5 c 128,-1,50
 863 859 863 859 913.5 869 c 0,51,52
 1067.72972973 899.540540541 1067.72972973 899.540540541 1115 911 c 0,53,54
 1270.1 948.6 1270.1 948.6 1307 1006 c 1,55,56
 1419.96296296 1206 1419.96296296 1206 1566.5 1206 c 0,57,58
 1636 1206 1636 1206 1681 1192 c 1,59,-1
 1681 1194 l 1,60,-1
 1833 1247 l 1,61,62
 1839 1247 1839 1247 1839 1243 c 2,63,-1
 1839 1241 l 1,64,-1
 1788 1100 l 1,65,-1
 1931 1106 l 2,66,67
 1935.9 1106 1935.9 1106 1935.9 1103.9 c 128,-1,68
 1935.9 1101.8 1935.9 1101.8 1935 1100 c 2,69,-1
 1804 965 l 1,70,-1
 1802 967 l 1,71,72
 1797 482 1797 482 1309 150 c 1,73,74
 1309 126 1309 126 1297.5 113 c 128,-1,75
 1286 100 1286 100 1272 100 c 1,76,-1
 1247 76 l 1,77,78
 1379 29 1379 29 1442 -2 c 1,79,-1
 1485 -1 l 1,80,81
 1560 -1 1560 -1 1612 -39 c 1,82,-1
 1612 -44 l 2,83,84
 1612 -47 1612 -47 1608.5 -49.5 c 128,-1,85
 1605 -52 1605 -52 1604 -53 c 1,86,87
 1547 -27 1547 -27 1524.5 -26 c 128,-1,88
 1502 -25 1502 -25 1485 -27 c 1,89,90
 1539 -56 1539 -56 1561 -88 c 1,91,92
 1558 -97 1558 -97 1542 -100 c 1,93,94
 1476.94202899 -34.9420289855 1476.94202899 -34.9420289855 1414.71266541 -34.9420289855 c 0,95,96
 1391.28985507 -34.9420289855 1391.28985507 -34.9420289855 1381.14492754 -36.9710144928 c 128,-1,97
 1371 -39 1371 -39 1366.5 -39.5 c 128,-1,98
 1362 -40 1362 -40 1353 -43.5 c 128,-1,99
 1344 -47 1344 -47 1340.5 -48.5 c 128,-1,100
 1337 -50 1337 -50 1325 -55.5 c 128,-1,101
 1313 -61 1313 -61 1308 -61 c 2,102,-1
 1301 -61 l 2,103,104
 1295 -61 1295 -61 1294 -51 c 1,105,106
 1314 -29 1314 -29 1327 -25 c 128,-1,107
 1340 -21 1340 -21 1355.5 -16.5 c 128,-1,108
 1371 -12 1371 -12 1382 -8 c 1,109,110
 1334 18 1334 18 1269 40.5 c 128,-1,111
 1204 63 1204 63 1204 70 c 0,112,113
 1204 82 1204 82 1227 100 c 1,114,115
 1212 100 1212 100 1201.5 114 c 128,-1,116
 1191 128 1191 128 1188 139 c 1,117,-1
 1133 139 l 2,118,119
 1072 139 1072 139 1020 147 c 1,120,121
 1002.29508197 99.1967213115 1002.29508197 99.1967213115 972.835259339 99.1967213115 c 0,122,123
 969.016393443 99.1967213115 969.016393443 99.1967213115 965 100 c 1,124,125
 941 87 941 87 934 80 c 1,126,127
 1066 -4 1066 -4 1106 -37 c 1,128,129
 1113 -39 1113 -39 1139.5 -43 c 128,-1,130
 1166 -47 1166 -47 1180 -51 c 0,131,132
 1223 -63 1223 -63 1253 -104 c 1,133,134
 1253 -112 1253 -112 1249 -114.5 c 128,-1,135
 1245 -117 1245 -117 1243 -119 c 1,136,137
 1217 -95 1217 -95 1200 -86.5 c 128,-1,138
 1183 -78 1183 -78 1143 -72 c 1,139,140
 1183 -97 1183 -97 1198 -152 c 1,141,142
 1194.66666667 -160.333333333 1194.66666667 -160.333333333 1189.33333333 -160.333333333 c 128,-1,143
 1184 -160.333333333 1184 -160.333333333 1182 -160 c 1,144,145
 1129 -76 1129 -76 1073 -63 c 1,146,147
 1054 -60 1054 -60 1019 -60 c 128,-1,148
 984 -60 984 -60 930 -74 c 1,149,150
 924 -65 924 -65 924 -57 c 1,21,22
EndSplineSet
EndChar

StartChar: exclam
Encoding: 33 33 4
Width: 670
Flags: HW
LayerCount: 2
Fore
SplineSet
557 2253 m 0,0,1
 583 2253 583 2253 592 2218 c 1,2,3
 589 2136 589 2136 566 2000 c 128,-1,4
 543 1864 543 1864 519 1655.5 c 128,-1,5
 495 1447 495 1447 427 1087 c 128,-1,6
 359 727 359 727 274 369 c 1,7,8
 255 328 255 328 217 328 c 0,9,10
 186 328 186 328 182 369 c 1,11,12
 368 1161 368 1161 442 1798 c 1,13,14
 455 1901 455 1901 474 2001 c 128,-1,15
 493 2101 493 2101 498 2204 c 1,16,17
 504 2224 504 2224 521 2238.5 c 128,-1,18
 538 2253 538 2253 557 2253 c 0,0,1
150 -47 m 1,19,20
 109 -32 109 -32 109 12.5 c 128,-1,21
 109 57 109 57 145.5 87 c 128,-1,22
 182 117 182 117 216.5 117 c 128,-1,23
 251 117 251 117 269 94 c 128,-1,24
 287 71 287 71 287 35.5 c 0,25,26
 287 0 287 0 258.5 -50 c 128,-1,27
 230 -100 230 -100 184 -100 c 0,28,29
 167 -100 167 -100 157 -89.5 c 128,-1,30
 147 -79 147 -79 147 -66.5 c 128,-1,31
 147 -54 147 -54 150 -47 c 1,19,20
EndSplineSet
EndChar

StartChar: quotedbl
Encoding: 34 34 5
Width: 532
Flags: HW
LayerCount: 2
Fore
SplineSet
260 1640 m 0,0,1
 225 1640 225 1640 225 1678 c 0,2,3
 225 1781.69230769 225 1781.69230769 313 1978 c 1,4,5
 334 2019 334 2019 371 2019 c 128,-1,6
 408 2019 408 2019 408 1989 c 0,7,8
 408 1984 408 1984 408 1979 c 128,-1,9
 408 1974 408 1974 377.5 1905.5 c 128,-1,10
 347 1837 347 1837 319 1690 c 0,11,12
 314 1667 314 1667 295 1653.5 c 128,-1,13
 276 1640 276 1640 260 1640 c 0,0,1
522 1987 m 1,14,15
 544 2011 544 2011 577 2011 c 128,-1,16
 610 2011 610 2011 610 1976 c 2,17,-1
 610 1969 l 2,18,19
 610 1965 610 1965 590.5 1933 c 128,-1,20
 571 1901 571 1901 554 1846 c 128,-1,21
 537 1791 537 1791 524.5 1748 c 128,-1,22
 512 1705 512 1705 498 1679 c 128,-1,23
 484 1653 484 1653 451 1653 c 128,-1,24
 418 1653 418 1653 418 1690 c 0,25,26
 418 1814 418 1814 522 1987 c 1,14,15
EndSplineSet
EndChar

StartChar: numbersign
Encoding: 35 35 6
Width: 1411
Flags: HW
LayerCount: 2
Fore
SplineSet
1245 743 m 1,0,-1
 883 745 l 1,1,-1
 866 745 l 1,2,3
 798 337 798 337 743 164 c 1,4,5
 724 123 724 123 686 123 c 0,6,7
 655 123 655 123 651 164 c 1,8,9
 692 292 692 292 720 440 c 128,-1,10
 748 588 748 588 776 745 c 1,11,12
 698 743 698 743 619.5 741 c 128,-1,13
 541 739 541 739 463 733 c 1,14,15
 431 620 431 620 362 340 c 0,16,17
 344 265 344 265 342 184 c 1,18,19
 339 160 339 160 320 143.5 c 128,-1,20
 301 127 301 127 286 127 c 0,21,22
 248 127 248 127 248 170 c 0,23,24
 248 298.869565217 248 298.869565217 369 725 c 1,25,26
 287 714 287 714 206.5 697.5 c 128,-1,27
 126 681 126 681 43 678 c 1,28,29
 0 682 0 682 0 713 c 0,30,31
 0 730 0 730 16.5 750 c 128,-1,32
 33 770 33 770 66.5 772 c 128,-1,33
 100 774 100 774 142.5 780 c 128,-1,34
 185 786 185 786 227 793 c 128,-1,35
 269 800 269 800 311 807 c 128,-1,36
 353 814 353 814 395 819 c 1,37,38
 415 895 415 895 443.5 999 c 128,-1,39
 472 1103 472 1103 477 1137 c 1,40,41
 417 1132 417 1132 352.5 1120.5 c 128,-1,42
 288 1109 288 1109 240 1101.5 c 128,-1,43
 192 1094 192 1094 147 1075 c 1,44,45
 128 1059 128 1059 112 1059 c 0,46,47
 78 1059 78 1059 74 1100 c 1,48,49
 103 1190 103 1190 298 1207 c 0,50,51
 345 1211 345 1211 376 1216.5 c 128,-1,52
 407 1222 407 1222 435.5 1225 c 128,-1,53
 464 1228 464 1228 492 1231 c 1,54,55
 498 1279 498 1279 503.5 1334.5 c 128,-1,56
 509 1390 509 1390 521 1485.5 c 128,-1,57
 533 1581 533 1581 557.5 1652.5 c 128,-1,58
 582 1724 582 1724 625 1724 c 128,-1,59
 668 1724 668 1724 668 1665 c 1,60,61
 665 1641 665 1641 643 1622 c 1,62,63
 626 1550 626 1550 614 1422 c 128,-1,64
 602 1294 602 1294 592 1237 c 1,65,-1
 690 1239 l 1,66,67
 776 1239 776 1239 866 1235 c 1,68,69
 927 1503 927 1503 995 1655 c 1,70,71
 1019 1688 1019 1688 1051 1688 c 128,-1,72
 1083 1688 1083 1688 1083 1638 c 1,73,74
 1011 1473 1011 1473 956 1231 c 1,75,76
 1114 1221 1114 1221 1242 1221 c 128,-1,77
 1370 1221 1370 1221 1421 1225 c 1,78,79
 1456 1216 1456 1216 1456 1190 c 0,80,81
 1456 1124 1456 1124 1321 1124 c 128,-1,82
 1186 1124 1186 1124 936 1137 c 1,83,84
 899 940 899 940 883 840 c 1,85,-1
 897 840 l 1,86,-1
 1260 838 l 1,87,88
 1294 829 1294 829 1294 803 c 0,89,90
 1294 784 1294 784 1279.5 767 c 128,-1,91
 1265 750 1265 750 1245 743 c 1,0,-1
846 1139 m 1,92,93
 758 1143 758 1143 703 1143 c 2,94,-1
 622 1143 l 2,95,96
 596 1143 596 1143 571 1141 c 1,97,98
 559 1086 559 1086 534 994 c 2,99,-1
 489 829 l 1,100,101
 568 834 568 834 793 840 c 1,102,103
 810 946 810 946 846 1139 c 1,92,93
EndSplineSet
EndChar

StartChar: dollar
Encoding: 36 36 7
Width: 1147
Flags: HW
LayerCount: 2
Fore
SplineSet
862 1980 m 0,0,1
 878 1980 878 1980 926 1974 c 1,2,3
 948 2037 948 2037 958 2099 c 1,4,5
 966 2121 966 2121 984.5 2134.5 c 128,-1,6
 1003 2148 1003 2148 1018 2148 c 0,7,8
 1051 2148 1051 2148 1051 2111 c 0,9,10
 1051 2050 1051 2050 1014 1946 c 1,11,12
 1128 1882 1128 1882 1178 1722 c 1,13,14
 1186 1709 1186 1709 1186 1690.5 c 128,-1,15
 1186 1672 1186 1672 1168.5 1656 c 128,-1,16
 1151 1640 1151 1640 1133 1640 c 0,17,18
 1102 1640 1102 1640 1095 1685 c 128,-1,19
 1088 1730 1088 1730 1060 1780.5 c 128,-1,20
 1032 1831 1032 1831 979 1862 c 1,21,22
 955 1803 955 1803 919 1667 c 128,-1,23
 883 1531 883 1531 791 1198 c 1,24,25
 826 1114 826 1114 863 1029 c 0,26,27
 999 717 999 717 999 519 c 128,-1,28
 999 321 999 321 900 172 c 1,29,30
 773 -23 773 -23 500 -23 c 0,31,32
 472 -23 472 -23 430 -18 c 1,33,-1
 406 -113 l 1,34,35
 383 -154 383 -154 350 -154 c 128,-1,36
 317 -154 317 -154 313 -113 c 1,37,-1
 342 -6 l 1,38,39
 96 45 96 45 14 234 c 0,40,41
 -14 299 -14 299 -14 373 c 0,42,43
 -14 512 -14 512 35.5 612.5 c 128,-1,44
 85 713 85 713 205 819 c 0,45,46
 225 836 225 836 243 836 c 0,47,48
 283 836 283 836 283 803 c 0,49,50
 283 786 283 786 274 772 c 1,51,52
 172 678 172 678 139 616 c 1,53,54
 84 508 84 508 84 388 c 128,-1,55
 84 268 84 268 163 188 c 128,-1,56
 242 108 242 108 367 80 c 1,57,-1
 692 1180 l 1,58,59
 569 1475 569 1475 569 1619 c 128,-1,60
 569 1763 569 1763 641 1871.5 c 128,-1,61
 713 1980 713 1980 862 1980 c 0,0,1
804 212 m 0,62,63
 901 334 901 334 901 524 c 0,64,65
 901 615 901 615 861 741 c 128,-1,66
 821 867 821 867 745 1049 c 1,67,68
 674 801 674 801 601 558 c 128,-1,69
 528 315 528 315 457 68 c 1,70,-1
 494 68 l 2,71,72
 691 68 691 68 804 212 c 0,62,63
895 1890 m 1,73,74
 873 1894 873 1894 839 1894 c 0,75,76
 766 1894 766 1894 717 1827 c 128,-1,77
 668 1760 668 1760 668 1674 c 0,78,79
 668 1531 668 1531 735 1335 c 1,80,81
 802 1570 802 1570 831 1686.5 c 128,-1,82
 860 1803 860 1803 895 1890 c 1,73,74
EndSplineSet
EndChar

StartChar: percent
Encoding: 37 37 8
Width: 1028
Flags: HW
LayerCount: 2
Fore
SplineSet
844 1931 m 1,0,1
 863 1948 863 1948 881 1948 c 0,2,3
 922 1948 922 1948 922 1915 c 0,4,5
 922 1898 922 1898 893.057553957 1856.1942446 c 0,6,7
 864.115107914 1814.38848921 864.115107914 1814.38848921 814.557553957 1683.1942446 c 128,-1,8
 765 1552 765 1552 711 1382.5 c 128,-1,9
 657 1213 657 1213 586 1028 c 0,10,11
 368 453 368 453 207 -76 c 1,12,13
 186 -117 186 -117 150 -117 c 0,14,15
 119 -117 119 -117 115 -76 c 1,16,17
 243 352 243 352 498 1036 c 0,18,19
 566 1216 566 1216 588 1279.5 c 0,20,21
 759.883353584 1775.61786148 759.883353584 1775.61786148 844 1931 c 1,0,1
94 1678 m 0,22,23
 94 1792 94 1792 155 1854.5 c 128,-1,24
 216 1917 216 1917 304.5 1917 c 128,-1,25
 393 1917 393 1917 448.5 1861.5 c 128,-1,26
 504 1806 504 1806 504 1717.5 c 128,-1,27
 504 1629 504 1629 449.5 1574.5 c 128,-1,28
 395 1520 395 1520 304.5 1520 c 128,-1,29
 214 1520 214 1520 154 1567 c 128,-1,30
 94 1614 94 1614 94 1678 c 0,22,23
729 86 m 1,31,-1
 799 82 l 1,32,33
 833 82 833 82 860 105.5 c 128,-1,34
 887 129 887 129 887 182.5 c 128,-1,35
 887 236 887 236 849 288 c 128,-1,36
 811 340 811 340 761.5 340 c 128,-1,37
 712 340 712 340 687 314 c 0,38,39
 643 268 643 268 643 236 c 0,40,41
 643 177 643 177 684 147 c 1,42,43
 692 134 692 134 692 115.5 c 128,-1,44
 692 97 692 97 675 81.5 c 128,-1,45
 658 66 658 66 626 66 c 128,-1,46
 594 66 594 66 571.5 112 c 128,-1,47
 549 158 549 158 549 200 c 0,48,49
 549 288 549 288 614 362 c 128,-1,50
 679 436 679 436 770.5 436 c 128,-1,51
 862 436 862 436 918.5 364.5 c 128,-1,52
 975 293 975 293 975 216 c 0,53,54
 975 88 975 88 915.5 40 c 128,-1,55
 856 -8 856 -8 764 -8 c 0,56,57
 719 -8 719 -8 695.5 -3 c 128,-1,58
 672 2 672 2 672 23.5 c 128,-1,59
 672 45 672 45 688 64 c 128,-1,60
 704 83 704 83 729 86 c 1,31,-1
408 1712 m 0,61,62
 408 1827 408 1827 299 1827 c 0,63,64
 248 1827 248 1827 218 1793.5 c 128,-1,65
 188 1760 188 1760 188 1709.5 c 128,-1,66
 188 1659 188 1659 215.5 1639.5 c 128,-1,67
 243 1620 243 1620 293 1620 c 0,68,69
 408 1620 408 1620 408 1712 c 0,61,62
EndSplineSet
EndChar

StartChar: ampersand
Encoding: 38 38 9
Width: 1563
Flags: HW
LayerCount: 2
Fore
SplineSet
514 1348 m 1,0,1
 348 1488 348 1488 348 1680 c 0,2,3
 348 1739 348 1739 380.5 1800 c 128,-1,4
 413 1861 413 1861 468 1902 c 1,5,6
 578 1987 578 1987 745 1987 c 0,7,8
 976 1987 976 1987 1110 1868 c 0,9,10
 1157 1827 1157 1827 1186 1769 c 1,11,-1
 1188 1757 l 1,12,13
 1188 1721 1188 1721 1150 1703 c 0,14,15
 1140 1698 1140 1698 1130 1698 c 0,16,17
 1107 1698 1107 1698 1094 1731 c 0,18,19
 1068 1802 1068 1802 979 1847 c 128,-1,20
 890 1892 890 1892 765.5 1892 c 128,-1,21
 641 1892 641 1892 539.5 1832 c 128,-1,22
 438 1772 438 1772 438 1663 c 0,23,24
 438 1524 438 1524 552 1431 c 0,25,26
 593 1397 593 1397 653 1376 c 1,27,-1
 672 1376 l 2,28,29
 770 1376 770 1376 817 1332 c 0,30,31
 834 1316 834 1316 834 1293 c 128,-1,32
 834 1270 834 1270 815 1254.5 c 128,-1,33
 796 1239 796 1239 770 1239 c 1,34,35
 646 1263 646 1263 616 1278 c 1,36,37
 442 1258 442 1258 317.5 1105.5 c 128,-1,38
 193 953 193 953 193 750 c 0,39,40
 193 460 193 460 355 267 c 128,-1,41
 517 74 517 74 765 74 c 128,-1,42
 1013 74 1013 74 1200 224 c 0,43,44
 1322 321 1322 321 1372 464 c 0,45,46
 1397 536 1397 536 1397 608 c 0,47,48
 1397 742 1397 742 1345.5 822.5 c 128,-1,49
 1294 903 1294 903 1184 958 c 1,50,51
 1019 886 1019 886 955 722 c 0,52,53
 934 668 934 668 934 606 c 128,-1,54
 934 544 934 544 971 496 c 0,55,56
 979 485 979 485 979 465.5 c 128,-1,57
 979 446 979 446 962.5 429 c 128,-1,58
 946 412 946 412 924 412 c 0,59,60
 884 412 884 412 860 480 c 1,61,62
 840 531 840 531 840 591 c 0,63,64
 840 712 840 712 916.5 825.5 c 128,-1,65
 993 939 993 939 1108 1018 c 0,66,67
 1149 1046 1149 1046 1243.5 1080 c 128,-1,68
 1338 1114 1338 1114 1387 1135 c 0,69,70
 1561 1210 1561 1210 1561 1354 c 1,71,-1
 1542 1520 l 1,72,73
 1548 1540 1548 1540 1565.5 1554.5 c 128,-1,74
 1583 1569 1583 1569 1598 1569 c 0,75,76
 1653 1569 1653 1569 1653 1340 c 0,77,78
 1653 1306 1653 1306 1631 1255 c 128,-1,79
 1609 1204 1609 1204 1564 1156 c 1,80,81
 1463 1052 1463 1052 1286 999 c 1,82,83
 1455 905 1455 905 1482 734 c 0,84,85
 1491 682 1491 682 1491 607.5 c 0,86,87
 1491 447.692307692 1491 447.692307692 1385.5 299.846153846 c 128,-1,88
 1280 152 1280 152 1109.5 63.5 c 128,-1,89
 939 -25 939 -25 778 -25 c 0,90,91
 474 -25 474 -25 285 194.5 c 128,-1,92
 96 414 96 414 96 739 c 0,93,94
 96 896 96 896 158.5 1018 c 128,-1,95
 221 1140 221 1140 278 1197 c 0,96,97
 377 1296 377 1296 514 1348 c 1,0,1
EndSplineSet
EndChar

StartChar: quotesingle
Encoding: 39 39 10
Width: 289
Flags: HW
LayerCount: 2
Fore
SplineSet
225 1677 m 0,0,1
 225 1892 225 1892 276 2021 c 1,2,3
 299 2054 299 2054 322.5 2054 c 128,-1,4
 346 2054 346 2054 356.5 2044.5 c 128,-1,5
 367 2035 367 2035 367 2026 c 2,6,-1
 367 2012 l 2,7,8
 367 2008 367 2008 362 1997 c 128,-1,9
 357 1986 357 1986 352 1961.5 c 128,-1,10
 347 1937 347 1937 342.5 1901 c 128,-1,11
 338 1865 338 1865 333 1814 c 128,-1,12
 328 1763 328 1763 322 1715 c 128,-1,13
 316 1667 316 1667 297.5 1650.5 c 128,-1,14
 279 1634 279 1634 264 1634 c 0,15,16
 225 1634 225 1634 225 1677 c 0,0,1
EndSplineSet
EndChar

StartChar: parenleft
Encoding: 40 40 11
Width: 582
Flags: HW
LayerCount: 2
Fore
SplineSet
677 1864 m 0,0,1
 804 1989 804 1989 829 1989 c 1,2,3
 847 1999 847 1999 862 1999 c 0,4,5
 887 1999 887 1999 887 1976 c 128,-1,6
 887 1953 887 1953 868 1931 c 128,-1,7
 849 1909 849 1909 822.5 1887 c 128,-1,8
 796 1865 796 1865 767.5 1842 c 128,-1,9
 739 1819 739 1819 719 1796 c 0,10,11
 338 1360 338 1360 238 738 c 0,12,13
 207 545 207 545 207 356 c 0,14,15
 207 -28 207 -28 332 -336 c 0,16,17
 353 -389 353 -389 396.5 -460.5 c 0,18,19
 440 -532 440 -532 440 -546 c 2,20,-1
 440 -553 l 2,21,22
 440 -578 440 -578 420 -599.5 c 128,-1,23
 400 -621 400 -621 381 -621 c 0,24,25
 350 -621 350 -621 302 -534 c 0,26,27
 106 -181 106 -181 106 317 c 0,28,29
 106 917 106 917 386 1448 c 0,30,31
 476 1617 476 1617 560 1724 c 128,-1,32
 644 1831 644 1831 677 1864 c 0,0,1
EndSplineSet
EndChar

StartChar: parenright
Encoding: 41 41 12
Width: 555
Flags: HW
LayerCount: 2
Fore
SplineSet
303 1919 m 1,0,1
 310 1959 310 1959 350 1980 c 0,2,3
 361 1985 361 1985 376 1985 c 128,-1,4
 391 1985 391 1985 401 1962 c 1,5,6
 408 1889 408 1889 454.5 1763 c 128,-1,7
 501 1637 501 1637 511 1563 c 0,8,9
 543 1327 543 1327 543 1234 c 0,10,11
 543 1043.54545455 543 1043.54545455 474.5 777.772727273 c 128,-1,12
 406 512 406 512 294.5 264.5 c 128,-1,13
 183 17 183 17 63 -121 c 0,14,15
 8 -183 8 -183 -26.5 -222 c 128,-1,16
 -61 -261 -61 -261 -86.5 -288.5 c 128,-1,17
 -112 -316 -112 -316 -133 -336.5 c 128,-1,18
 -154 -357 -154 -357 -182 -382 c 128,-1,19
 -210 -407 -210 -407 -250 -442 c 128,-1,20
 -290 -477 -290 -477 -352 -532 c 1,21,22
 -374 -545 -374 -545 -391 -545 c 0,23,24
 -420 -545 -420 -545 -420 -515 c 128,-1,25
 -420 -485 -420 -485 -327 -406 c 0,26,27
 -300 -383 -300 -383 -250.5 -342 c 128,-1,28
 -201 -301 -201 -301 -146 -246.5 c 128,-1,29
 -91 -192 -91 -192 -8 -76 c 0,30,31
 236.022825974 265.043949554 236.022825974 265.043949554 360.5 710.5 c 0,32,33
 440 995 440 995 440 1201 c 128,-1,34
 440 1407 440 1407 409 1523 c 128,-1,35
 378 1639 378 1639 342.5 1742 c 128,-1,36
 307 1845 307 1845 303 1919 c 1,0,1
EndSplineSet
EndChar

StartChar: asterisk
Encoding: 42 42 13
Width: 686
Flags: HW
LayerCount: 2
Fore
SplineSet
287 1204 m 0,0,1
 250 1204 250 1204 250 1239 c 0,2,3
 250 1248 250 1248 254 1262 c 1,4,-1
 356 1423 l 1,5,6
 273 1405 273 1405 203 1356 c 1,7,8
 179 1343 179 1343 165 1343 c 128,-1,9
 151 1343 151 1343 141 1354 c 128,-1,10
 131 1365 131 1365 131 1384.5 c 128,-1,11
 131 1404 131 1404 156 1425 c 1,12,13
 247 1484 247 1484 332 1509 c 1,14,15
 317 1529 317 1529 288.5 1588.5 c 128,-1,16
 260 1648 260 1648 240 1673 c 1,17,18
 236 1683 236 1683 236 1700 c 128,-1,19
 236 1717 236 1717 251.5 1734 c 128,-1,20
 267 1751 267 1751 287.5 1751 c 128,-1,21
 308 1751 308 1751 326.5 1729.5 c 128,-1,22
 345 1708 345 1708 363 1676.5 c 128,-1,23
 381 1645 381 1645 398 1609.5 c 128,-1,24
 415 1574 415 1574 430 1546 c 1,25,-1
 430 1544 l 1,26,27
 490 1640 490 1640 524 1708 c 1,28,29
 545 1739 545 1739 575 1739 c 0,30,31
 612 1739 612 1739 612 1704 c 0,32,33
 612 1682 612 1682 578 1624.5 c 128,-1,34
 544 1567 544 1567 524 1532 c 1,35,36
 647 1545 647 1545 655 1546 c 1,37,38
 705 1546 705 1546 705 1516 c 0,39,40
 705 1499 705 1499 691 1480.5 c 128,-1,41
 677 1462 677 1462 655 1454 c 1,42,43
 610 1448 610 1448 571.5 1445.5 c 128,-1,44
 533 1443 533 1443 496 1440 c 1,45,46
 541 1368 541 1368 635 1270 c 1,47,48
 643 1260 643 1260 643 1240 c 128,-1,49
 643 1220 643 1220 626.5 1203 c 128,-1,50
 610 1186 610 1186 590.5 1186 c 128,-1,51
 571 1186 571 1186 557 1200 c 0,52,53
 467 1299 467 1299 420 1366 c 1,54,-1
 334 1229 l 1,55,56
 317 1204 317 1204 287 1204 c 0,0,1
EndSplineSet
EndChar

StartChar: plus
Encoding: 43 43 14
Width: 903
Flags: HW
LayerCount: 2
Fore
SplineSet
375 299 m 0,0,1
 340 299 340 299 340 387 c 128,-1,2
 340 475 340 475 381 655 c 1,3,4
 370 655 370 655 350 651 c 128,-1,5
 330 647 330 647 306.5 642.5 c 128,-1,6
 283 638 283 638 248 631 c 1,7,8
 172 596 172 596 131 596 c 128,-1,9
 90 596 90 596 90 627 c 0,10,11
 90 641 90 641 96 647 c 1,12,13
 109 669 109 669 130 682.5 c 128,-1,14
 151 696 151 696 163.5 696 c 128,-1,15
 176 696 176 696 180 692 c 1,16,17
 273 735 273 735 379 741 c 1,18,-1
 395 741 l 1,19,20
 398 768 398 768 406 799 c 2,21,-1
 420 860 l 2,22,23
 424 879 424 879 424 913 c 2,24,-1
 424 958 l 2,25,26
 424 1011 424 1011 464 1036 c 0,27,28
 476 1044 476 1044 492 1044 c 0,29,30
 530 1044 530 1044 530 994.5 c 128,-1,31
 530 945 530 945 525.5 913.5 c 128,-1,32
 521 882 521 882 514.5 853.5 c 128,-1,33
 508 825 508 825 501 798.5 c 128,-1,34
 494 772 494 772 489 745 c 1,35,-1
 504 745 l 2,36,37
 551 745 551 745 612.5 735 c 128,-1,38
 674 725 674 725 708 725 c 128,-1,39
 742 725 742 725 776 729 c 1,40,41
 805 721 805 721 805 695.5 c 128,-1,42
 805 670 805 670 764 645 c 0,43,44
 752 638 752 638 741 635 c 1,45,-1
 473 657 l 1,46,47
 442 489 442 489 442 399 c 2,48,-1
 442 371 l 1,49,50
 427 299 427 299 375 299 c 0,0,1
EndSplineSet
EndChar

StartChar: comma
Encoding: 44 44 15
Width: 330
Flags: HW
LayerCount: 2
Fore
SplineSet
-41 -381 m 0,0,1
 -78 -381 -78 -381 -78 -344 c 0,2,3
 -78 -329 -78 -329 -66 -309 c 1,4,5
 -20 -257 -20 -257 30.5 -157 c 128,-1,6
 81 -57 81 -57 90 -35 c 1,7,8
 90 -28 90 -28 83 -24.5 c 128,-1,9
 76 -21 76 -21 76 -10 c 1,10,11
 58 -18 58 -18 41 -18 c 0,12,13
 0 -18 0 -18 0 25 c 0,14,15
 0 61 0 61 27.5 96 c 128,-1,16
 55 131 55 131 103 131 c 0,17,18
 190 131 190 131 190 20 c 0,19,20
 190 -62 190 -62 122.5 -179.5 c 128,-1,21
 55 -297 55 -297 -6 -369 c 1,22,23
 -24 -381 -24 -381 -41 -381 c 0,0,1
EndSplineSet
EndChar

StartChar: hyphen
Encoding: 45 45 16
Width: 870
Flags: HW
LayerCount: 2
Fore
SplineSet
127 547 m 2,0,1
 90 547 90 547 90 585 c 0,2,3
 90 617 90 617 125 634 c 128,-1,4
 160 651 160 651 212 651 c 0,5,6
 264 651 264 651 342.5 641 c 128,-1,7
 421 631 421 631 511.5 631 c 128,-1,8
 602 631 602 631 717 662 c 1,9,-1
 729 662 l 2,10,11
 748 662 748 662 757 652.5 c 128,-1,12
 766 643 766 643 766 631 c 0,13,14
 766 535 766 535 358 535 c 0,15,16
 263 535 263 535 233 549 c 1,17,-1
 176 551 l 1,18,-1
 137 545 l 2,19,20
 133 545 133 545 133 547 c 1,21,-1
 127 547 l 2,0,1
EndSplineSet
EndChar

StartChar: period
Encoding: 46 46 17
Width: 256
Flags: HW
LayerCount: 2
Fore
SplineSet
-18 -25 m 2,0,1
 -78 -25 -78 -25 -78 46 c 0,2,3
 -78 81 -78 81 -48.5 109 c 128,-1,4
 -19 137 -19 137 15.5 137 c 128,-1,5
 50 137 50 137 82 113 c 1,6,7
 117 79 117 79 117 46 c 128,-1,8
 117 13 117 13 92 -10 c 128,-1,9
 67 -33 67 -33 38 -33 c 128,-1,10
 9 -33 9 -33 -10 -25 c 1,11,-1
 -18 -25 l 2,0,1
EndSplineSet
EndChar

StartChar: slash
Encoding: 47 47 18
Width: 815
Flags: HW
LayerCount: 2
Fore
SplineSet
-236 -887 m 0,0,1
 -236 -879 -236 -879 -198.25 -785.275862069 c 128,-1,2
 -160.5 -691.551724138 -160.5 -691.551724138 -58.2120187305 -420.579425168 c 128,-1,3
 44.075962539 -149.607126198 44.075962539 -149.607126198 106 2 c 2,4,-1
 291 461 l 1,5,6
 376 675 376 675 509 978.5 c 128,-1,7
 642 1282 642 1282 704.5 1416 c 0,8,9
 815.319327731 1653.59663866 815.319327731 1653.59663866 834.5 1749.5 c 0,10,11
 872.271186441 1938.3559322 872.271186441 1938.3559322 903.13559322 2009.1779661 c 128,-1,12
 934 2080 934 2080 985 2089 c 1,13,-1
 997 2089 l 2,14,15
 1034 2089 1034 2089 1034 2057 c 128,-1,16
 1034 2025 1034 2025 997 2001 c 1,17,18
 974 1956 974 1956 964.5 1902 c 128,-1,19
 955 1848 955 1848 949.5 1816 c 128,-1,20
 944 1784 944 1784 916.5 1698.5 c 128,-1,21
 889 1613 889 1613 722 1241 c 128,-1,22
 555 869 555 869 490.5 714.5 c 128,-1,23
 426 560 426 560 374.5 432.5 c 128,-1,24
 323 305 323 305 270 170.5 c 128,-1,25
 217 36 217 36 163 -102 c 128,-1,26
 109 -240 109 -240 32 -438 c 128,-1,27
 -45 -636 -45 -636 -143 -881 c 0,28,29
 -159 -920 -159 -920 -197.5 -920 c 128,-1,30
 -236 -920 -236 -920 -236 -887 c 0,0,1
EndSplineSet
EndChar

StartChar: zero
Encoding: 48 48 19
Width: 932
Flags: HW
LayerCount: 2
Fore
SplineSet
795 862 m 1,0,1
 852 796 852 796 852 655.5 c 128,-1,2
 852 515 852 515 792 353.5 c 128,-1,3
 732 192 732 192 622.5 84.5 c 128,-1,4
 513 -23 513 -23 376 -23 c 128,-1,5
 239 -23 239 -23 168 104 c 0,6,7
 109 210 109 210 109 369 c 0,8,9
 109 624 109 624 210 828 c 0,10,11
 286 981 286 981 420 1046 c 0,12,13
 490 1079 490 1079 553.5 1079 c 128,-1,14
 617 1079 617 1079 647.5 1064.5 c 128,-1,15
 678 1050 678 1050 706 1029 c 128,-1,16
 734 1008 734 1008 761 983.5 c 128,-1,17
 788 959 788 959 819 938 c 1,18,19
 827 925 827 925 827 900.5 c 128,-1,20
 827 876 827 876 795 862 c 1,0,1
741 868 m 1,21,22
 725 880 725 880 706 899 c 0,23,24
 621 981 621 981 558.5 981 c 0,25,26
 435.659574468 981 435.659574468 981 353.329787234 884.5 c 128,-1,27
 271 788 271 788 236 646.5 c 128,-1,28
 201 505 201 505 201 379 c 128,-1,29
 201 253 201 253 228.5 186.5 c 128,-1,30
 256 120 256 120 290 87.5 c 128,-1,31
 324 55 324 55 382 55 c 0,32,33
 494.941176471 55 494.941176471 55 580.970588235 158.5 c 128,-1,34
 667 262 667 262 709.5 402 c 128,-1,35
 752 542 752 542 752 628.5 c 128,-1,36
 752 715 752 715 719 797 c 0,37,38
 715 807 715 807 715 827 c 128,-1,39
 715 847 715 847 741 868 c 1,21,22
EndSplineSet
EndChar

StartChar: one
Encoding: 49 49 20
Width: 733
Flags: HW
LayerCount: 2
Fore
SplineSet
-102 16 m 0,0,1
 -102 72 -102 72 -78 72 c 0,2,3
 58 72 58 72 116 77 c 128,-1,4
 174 82 174 82 207 84 c 1,5,6
 238 382 238 382 261 486.5 c 128,-1,7
 284 591 284 591 313 688 c 1,8,9
 225 555 225 555 104 440 c 1,10,11
 86 428 86 428 70 428 c 0,12,13
 33 428 33 428 33 465 c 0,14,15
 33 480 33 480 45 500 c 1,16,17
 150 607 150 607 179.5 646 c 128,-1,18
 209 685 209 685 236.5 722 c 128,-1,19
 264 759 264 759 292 814 c 128,-1,20
 320 869 320 869 346 918.5 c 128,-1,21
 372 968 372 968 397.5 1002 c 128,-1,22
 423 1036 423 1036 449 1036 c 256,23,24
 475 1036 475 1036 475 1004 c 0,25,26
 475 999 475 999 475 994 c 128,-1,27
 475 989 475 989 473 983 c 2,28,-1
 467 963 l 1,29,-1
 469 963 l 1,30,-1
 465 956 l 1,31,32
 336 469 336 469 299 88 c 1,33,34
 389 92 389 92 468 92 c 2,35,-1
 554 92 l 2,36,37
 563 92 563 92 582.5 90.5 c 128,-1,38
 602 89 602 89 623 88 c 1,39,40
 657 79 657 79 657 47.5 c 128,-1,41
 657 16 657 16 620 -4 c 0,42,43
 608 -10 608 -10 596 -10 c 2,44,-1
 455 0 l 1,45,-1
 -31 -8 l 1,46,47
 -52 -20 -52 -20 -66 -20 c 0,48,49
 -102 -20 -102 -20 -102 16 c 0,0,1
EndSplineSet
EndChar

StartChar: two
Encoding: 50 50 21
Width: 1032
Flags: HW
LayerCount: 2
Fore
SplineSet
159 715 m 0,0,1
 123 715 123 715 123 752 c 0,2,3
 123 820.655172414 123 820.655172414 185 887.327586207 c 128,-1,4
 247 954 247 954 340 998 c 128,-1,5
 433 1042 433 1042 524 1042 c 0,6,7
 809 1042 809 1042 809 800.5 c 128,-1,8
 809 559 809 559 432 182 c 1,9,10
 561 107 561 107 611 94.5 c 128,-1,11
 661 82 661 82 698.5 82 c 128,-1,12
 736 82 736 82 759 104 c 128,-1,13
 782 126 782 126 795.5 159.5 c 128,-1,14
 809 193 809 193 816 231.5 c 128,-1,15
 823 270 823 270 831.5 303.5 c 128,-1,16
 840 337 840 337 853 359 c 128,-1,17
 866 381 866 381 893.5 381 c 128,-1,18
 921 381 921 381 930 344 c 1,19,20
 918 188 918 188 880 119.5 c 128,-1,21
 842 51 842 51 797.5 19.5 c 128,-1,22
 753 -12 753 -12 702.5 -12 c 128,-1,23
 652 -12 652 -12 614 0.5 c 128,-1,24
 576 13 576 13 536.5 32.5 c 128,-1,25
 497 52 497 52 456 76 c 128,-1,26
 415 100 415 100 373 123 c 1,27,28
 362 110 362 110 351.5 100.5 c 128,-1,29
 341 91 341 91 310 60 c 0,30,31
 232 -18 232 -18 117 -18 c 0,32,33
 52 -18 52 -18 4 22 c 0,34,35
 -43 62 -43 62 -43 110 c 0,36,37
 -43 194 -43 194 7.5 240.5 c 128,-1,38
 58 287 58 287 132.5 287 c 128,-1,39
 207 287 207 287 332 236 c 1,40,41
 337 232 337 232 341 230.5 c 128,-1,42
 345 229 345 229 350 227 c 1,43,44
 717 594 717 594 717 793 c 0,45,46
 717 948 717 948 512 948 c 0,47,48
 397 948 397 948 306 890 c 256,49,50
 215 832 215 832 215 756 c 1,51,52
 207 737 207 737 190 726 c 128,-1,53
 173 715 173 715 159 715 c 0,0,1
47 131.5 m 0,54,55
 47 80 47 80 123.133333333 80 c 128,-1,56
 199.266666667 80 199.266666667 80 287 164 c 1,57,58
 205 199 205 199 155 199 c 128,-1,59
 105 199 105 199 76 178 c 128,-1,60
 47 157 47 157 47 131.5 c 0,54,55
EndSplineSet
EndChar

StartChar: three
Encoding: 51 51 22
Width: 930
Flags: HW
LayerCount: 2
Fore
SplineSet
209 227 m 1,0,1
 168 231 168 231 168 262.5 c 128,-1,2
 168 294 168 294 227 328 c 128,-1,3
 286 362 286 362 354 377 c 1,4,-1
 420 418 l 1,5,6
 505 468 505 468 608 579 c 128,-1,7
 711 690 711 690 711 772 c 128,-1,8
 711 854 711 854 691 886 c 0,9,10
 648 956 648 956 541 956 c 0,11,12
 337 956 337 956 178 770 c 0,13,14
 156 745 156 745 137 745 c 0,15,16
 96 745 96 745 96 782 c 0,17,18
 96 862 96 862 250.5 953 c 128,-1,19
 405 1044 405 1044 536.5 1044 c 128,-1,20
 668 1044 668 1044 737.5 972.5 c 128,-1,21
 807 901 807 901 807 815.5 c 128,-1,22
 807 730 807 730 756 641 c 1,23,24
 699 549 699 549 588 441 c 0,25,26
 552 406 552 406 512 375 c 1,27,28
 676 340 676 340 772 197.5 c 128,-1,29
 868 55 868 55 868 -135 c 0,30,31
 868 -432 868 -432 708 -624 c 0,32,33
 526 -842 526 -842 166 -842 c 0,34,35
 -25 -842 -25 -842 -216 -720 c 0,36,37
 -346 -637 -346 -637 -403 -514 c 0,38,39
 -432 -450 -432 -450 -432 -400 c 0,40,41
 -432 -195 -432 -195 -352 -195 c 0,42,43
 -326 -195 -326 -195 -317 -229 c 1,44,45
 -321 -263 -321 -263 -326.5 -296.5 c 128,-1,46
 -332 -330 -332 -330 -332 -378.5 c 0,47,48
 -332 -481.157894737 -332 -481.157894737 -253 -568.578947368 c 128,-1,49
 -174 -656 -174 -656 -52.5 -702 c 128,-1,50
 69 -748 69 -748 204.5 -748 c 128,-1,51
 340 -748 340 -748 449.5 -695.5 c 128,-1,52
 559 -643 559 -643 630 -556 c 0,53,54
 770 -384 770 -384 770 -123 c 0,55,56
 770 33 770 33 665 167 c 128,-1,57
 560 301 560 301 418 301 c 2,58,-1
 406 301 l 1,59,60
 301 240 301 240 209 227 c 1,0,1
EndSplineSet
EndChar

StartChar: four
Encoding: 52 52 23
Width: 1022
Flags: HW
LayerCount: 2
Fore
SplineSet
643 -29 m 1,0,1
 127 -35 127 -35 82 -35 c 128,-1,2
 37 -35 37 -35 37 2 c 0,3,4
 37 21 37 21 49 39 c 1,5,6
 137 143 137 143 209.5 222.5 c 128,-1,7
 282 302 282 302 382.5 413 c 0,8,9
 483 524 483 524 580.5 654.5 c 128,-1,10
 678 785 678 785 797 993 c 1,11,12
 820 1026 820 1026 852.5 1026 c 128,-1,13
 885 1026 885 1026 885 977 c 1,14,15
 854 921 854 921 831 887 c 1,16,17
 848 878 848 878 848 858 c 1,18,-1
 844 819 l 1,19,20
 832 518 832 518 745 63 c 1,21,22
 906 77 906 77 932 80 c 1,23,24
 981 80 981 80 981 49 c 128,-1,25
 981 18 981 18 946.5 -5.5 c 128,-1,26
 912 -29 912 -29 850 -29 c 2,27,-1
 727 -29 l 1,28,29
 648 -461 648 -461 633 -666 c 0,30,31
 631 -685 631 -685 628 -714 c 0,32,33
 615 -840 615 -840 539 -840 c 0,34,35
 504 -840 504 -840 504 -803 c 0,36,37
 504 -790 504 -790 512 -781 c 128,-1,38
 520 -772 520 -772 521 -754.5 c 128,-1,39
 522 -737 522 -737 522.5 -712 c 128,-1,40
 523 -687 523 -687 566.5 -455 c 128,-1,41
 610 -223 610 -223 643 -29 c 1,0,1
284 55 m 2,42,-1
 402 55 l 2,43,44
 570 55 570 55 657 59 c 1,45,46
 720 459 720 459 760 774 c 1,47,48
 631 578 631 578 444 368.5 c 128,-1,49
 257 159 257 159 172 57 c 1,50,51
 228 55 228 55 284 55 c 2,42,-1
EndSplineSet
EndChar

StartChar: five
Encoding: 53 53 24
Width: 1335
Flags: HW
LayerCount: 2
Fore
SplineSet
229 78 m 0,0,1
 193 78 193 78 193 115 c 0,2,3
 193 128 193 128 197 135 c 0,4,5
 356 358 356 358 410 477 c 0,6,7
 516 713 516 713 516 971 c 1,8,9
 523 994 523 994 543 1008 c 1,10,11
 563 1032 563 1032 587 1032 c 128,-1,12
 611 1032 611 1032 625.5 1018 c 128,-1,13
 640 1004 640 1004 655 991 c 1,14,15
 741 948 741 948 999 948 c 0,16,17
 1160 948 1160 948 1276 1028 c 0,18,19
 1310 1051 1310 1051 1325 1051 c 0,20,21
 1360 1051 1360 1051 1360 1014 c 0,22,23
 1360 961 1360 961 1228 904 c 0,24,25
 1140 865 1140 865 1085.5 862.5 c 128,-1,26
 1031 860 1031 860 1001 860 c 0,27,28
 709 860 709 860 608 901 c 1,29,30
 591 571 591 571 393 268 c 1,31,32
 505 322 505 322 713.5 322 c 128,-1,33
 922 322 922 322 1095 171.5 c 128,-1,34
 1268 21 1268 21 1268 -228.5 c 128,-1,35
 1268 -478 1268 -478 1113 -650 c 0,36,37
 935 -846 935 -846 612 -846 c 0,38,39
 374 -846 374 -846 196 -718 c 0,40,41
 -8 -571 -8 -571 -8 -319 c 0,42,43
 -8 -215 -8 -215 49 -215 c 0,44,45
 70 -215 70 -215 84 -238 c 1,46,-1
 84 -266 l 2,47,48
 84 -498 84 -498 234 -623 c 128,-1,49
 384 -748 384 -748 610 -748 c 0,50,51
 993 -748 993 -748 1120 -462 c 0,52,53
 1165 -360 1165 -360 1165 -243 c 0,54,55
 1165 -34 1165 -34 1029.5 98.5 c 128,-1,56
 894 231 894 231 698 231 c 0,57,58
 566 231 566 231 478.5 201 c 128,-1,59
 391 171 391 171 266 90 c 0,60,61
 248 78 248 78 229 78 c 0,0,1
EndSplineSet
EndChar

StartChar: six
Encoding: 54 54 25
Width: 1126
Flags: HW
LayerCount: 2
Fore
SplineSet
1048 1916 m 0,0,1
 1091 1880 1091 1880 1141.00970874 1796.32038835 c 0,2,3
 1191.01941748 1712.6407767 1191.01941748 1712.6407767 1191.01941748 1683.14713922 c 0,4,5
 1191.01941748 1628 1191.01941748 1628 1133 1628 c 0,6,7
 1101 1628 1101 1628 1096 1642 c 0,8,9
 1034 1803 1034 1803 978 1848.5 c 128,-1,10
 922 1894 922 1894 826 1894 c 128,-1,11
 730 1894 730 1894 663.5 1848 c 128,-1,12
 597 1802 597 1802 538 1724 c 1,13,14
 429 1576 429 1576 345 1324.5 c 128,-1,15
 261 1073 261 1073 225 813 c 1,16,17
 352 1001 352 1001 537 1061 c 0,18,19
 599 1081 599 1081 665 1081 c 0,20,21
 797 1081 797 1081 879 965 c 128,-1,22
 961 849 961 849 961 653 c 0,23,24
 961 380 961 380 836 191 c 1,25,26
 695 -20 695 -20 436 -20 c 0,27,28
 274 -20 274 -20 185 112 c 128,-1,29
 96 244 96 244 96 461 c 0,30,31
 96 611 96 611 148.955497382 893.658563949 c 0,32,33
 201.910994764 1176.3171279 201.910994764 1176.3171279 284.955497382 1416.15856395 c 128,-1,34
 368 1656 368 1656 500.5 1821.5 c 128,-1,35
 633 1987 633 1987 797 1987 c 128,-1,36
 961 1987 961 1987 1048 1916 c 0,0,1
201 494 m 2,37,38
 201 202 201 202 326 103 c 0,39,40
 372 66 372 66 446.5 66 c 0,41,42
 590.255813953 66 590.255813953 66 686.627906977 154.5 c 128,-1,43
 783 243 783 243 825.5 376.5 c 128,-1,44
 868 510 868 510 868 629 c 0,45,46
 868 827 868 827 799.5 905 c 128,-1,47
 731 983 731 983 615.5 983 c 128,-1,48
 500 983 500 983 360 848 c 128,-1,49
 220 713 220 713 201 496 c 1,50,-1
 201 494 l 2,37,38
EndSplineSet
EndChar

StartChar: seven
Encoding: 55 55 26
Width: 971
Flags: HW
LayerCount: 2
Fore
SplineSet
819 1024 m 2,0,1
 885 1024 885 1024 885 935 c 0,2,3
 885 891 885 891 846 830 c 0,4,5
 681 579 681 579 498 78 c 1,6,-1
 766 78 l 2,7,8
 801 78 801 78 801 41 c 0,9,10
 801 19 801 19 782 1.5 c 128,-1,11
 763 -16 763 -16 737 -16 c 1,12,13
 577 0 577 0 475 0 c 2,14,-1
 469 0 l 1,15,16
 395 -196 395 -196 309.5 -457.5 c 128,-1,17
 224 -719 224 -719 205 -764 c 128,-1,18
 186 -809 186 -809 167.5 -831 c 128,-1,19
 149 -853 149 -853 121 -858 c 1,20,21
 87 -854 87 -854 78 -829 c 1,22,-1
 74 -807 l 1,23,24
 74 -746 74 -746 106 -737 c 1,25,26
 162 -635 162 -635 243.5 -379.5 c 128,-1,27
 325 -124 325 -124 367 -2 c 1,28,-1
 313 -2 l 2,29,30
 192 -2 192 -2 109 4 c 1,31,32
 95 0 95 0 86 0 c 0,33,34
 51 0 51 0 51 37 c 0,35,36
 51 67 51 67 76 84 c 1,37,-1
 267 83 l 1,38,-1
 397 82 l 1,39,40
 551 523 551 523 735 846 c 0,41,42
 743 860 743 860 756 878.5 c 128,-1,43
 769 897 769 897 778 922 c 1,44,-1
 260 930 l 2,45,46
 241 930 241 930 190 914.5 c 128,-1,47
 139 899 139 899 117 899 c 0,48,49
 43 899 43 899 43 968 c 0,50,51
 43 1006 43 1006 78 1018 c 128,-1,52
 113 1030 113 1030 190 1030 c 2,53,-1
 819 1024 l 2,0,1
EndSplineSet
EndChar

StartChar: eight
Encoding: 56 56 27
Width: 1018
Flags: HW
LayerCount: 2
Fore
SplineSet
45 408 m 0,0,1
 45 661 45 661 348 941 c 0,2,3
 434 1021 434 1021 524 1104 c 1,4,5
 452 1183 452 1183 406 1280 c 0,6,7
 322 1458 322 1458 322 1554 c 0,8,9
 322 1748 322 1748 422 1863 c 128,-1,10
 522 1978 522 1978 694 1978 c 0,11,12
 835 1978 835 1978 908 1830 c 0,13,14
 963 1718 963 1718 963 1621.5 c 128,-1,15
 963 1525 963 1525 942.5 1466 c 128,-1,16
 922 1407 922 1407 888 1356 c 0,17,18
 830 1268 830 1268 637 1092 c 1,19,20
 675 1023 675 1023 721 944 c 0,21,22
 901 637 901 637 901 440.5 c 128,-1,23
 901 244 901 244 785 101.5 c 128,-1,24
 669 -41 669 -41 471 -41 c 0,25,26
 314 -41 314 -41 179.5 80.5 c 128,-1,27
 45 202 45 202 45 408 c 0,0,1
727 746 m 0,28,29
 689 830 689 830 569 1030 c 1,30,31
 495 965 495 965 419 896 c 0,32,33
 143 645 143 645 143 451 c 0,34,35
 143 278 143 278 229 170.5 c 128,-1,36
 315 63 315 63 453.5 63 c 128,-1,37
 592 63 592 63 696.5 169.5 c 128,-1,38
 801 276 801 276 801 428 c 128,-1,39
 801 580 801 580 727 746 c 0,28,29
682 1884 m 0,40,41
 410 1884 410 1884 410 1577 c 0,42,43
 410 1492 410 1492 469 1366.5 c 128,-1,44
 528 1241 528 1241 582 1184 c 1,45,-1
 592 1167 l 1,46,-1
 659 1233 l 1,47,48
 695 1273 695 1273 732.5 1308.5 c 128,-1,49
 770 1344 770 1344 801 1382 c 0,50,51
 872 1469 872 1469 872 1566 c 0,52,53
 872 1729 872 1729 806 1816 c 1,54,55
 756 1884 756 1884 682 1884 c 0,40,41
EndSplineSet
EndChar

StartChar: nine
Encoding: 57 57 28
Width: 952
Flags: HW
LayerCount: 2
Fore
SplineSet
961.583333333 879.625 m 2,0,-1
 961 802.5 l 2,1,2
 961 746 961 746 926 626 c 128,-1,3
 891 506 891 506 831 395 c 1,4,5
 811 309 811 309 792 208.5 c 128,-1,6
 773 108 773 108 734.470100143 -76.7683834049 c 0,7,8
 634.715605965 -555.13652594 634.715605965 -555.13652594 428.5 -756.5 c 0,9,10
 301 -881 301 -881 102 -881 c 0,11,12
 -49 -881 -49 -881 -133 -816 c 128,-1,13
 -217 -751 -217 -751 -315 -582 c 0,14,15
 -317 -577 -317 -577 -317 -572 c 2,16,-1
 -317 -561 l 1,17,18
 -314 -538 -314 -538 -296 -520 c 128,-1,19
 -278 -502 -278 -502 -265 -502 c 128,-1,20
 -252 -502 -252 -502 -248 -507.5 c 128,-1,21
 -244 -513 -244 -513 -236 -526 c 128,-1,22
 -228 -539 -228 -539 -225 -541 c 1,23,24
 -122 -765 -122 -765 18 -788 c 0,25,26
 57 -795 57 -795 94 -795 c 0,27,28
 259 -795 259 -795 392 -640 c 0,29,30
 564 -438 564 -438 648 -42 c 0,31,32
 672 74 672 74 684 186 c 1,33,34
 512 0 512 0 322 0 c 0,35,36
 177 0 177 0 104 139.5 c 0,37,38
 45.7595628415 250.795081967 45.7595628415 250.795081967 45.7595628415 359.22588014 c 0,39,40
 45.7595628415 386.704918033 45.7595628415 386.704918033 49.5 414 c 0,41,42
 82.5770801198 655.37328736 82.5770801198 655.37328736 192 802 c 1,43,44
 361 1024 361 1024 688 1024 c 0,45,46
 783 1024 783 1024 864 978 c 0,47,48
 891 963 891 963 911 942 c 1,49,50
 943 938 943 938 950 928 c 0,51,52
 961.583333333 911.452380952 961.583333333 911.452380952 961.583333333 879.625 c 2,0,-1
827 874 m 1,53,54
 771 926 771 926 695.5 926 c 0,55,56
 551.523809524 926 551.523809524 926 442.261904762 883.5 c 128,-1,57
 333 841 333 841 252 725 c 128,-1,58
 171 609 171 609 143 408 c 0,59,60
 138.909090909 378.545454545 138.909090909 378.545454545 138.909090909 326.727272727 c 128,-1,61
 138.909090909 274.909090909 138.909090909 274.909090909 168 208 c 1,62,63
 220 94 220 94 350 94 c 0,64,65
 507 94 507 94 652 276 c 0,66,67
 694 329 694 329 729 389 c 1,68,69
 751 467 751 467 778 631 c 128,-1,70
 805 795 805 795 827 874 c 1,53,54
EndSplineSet
EndChar

StartChar: colon
Encoding: 58 58 29
Width: 485
Flags: HW
LayerCount: 2
Fore
SplineSet
301 699.5 m 128,-1,1
 276 688 276 688 248 688 c 128,-1,2
 220 688 220 688 193 713 c 128,-1,3
 166 738 166 738 166 785.5 c 0,4,5
 166 833 166 833 199 879.5 c 128,-1,6
 232 926 232 926 272.5 926 c 128,-1,7
 313 926 313 926 352 893.5 c 128,-1,8
 391 861 391 861 391 828 c 128,-1,9
 391 795 391 795 378.5 771.5 c 128,-1,10
 366 748 366 748 346 729.5 c 128,-1,0
 326 711 326 711 301 699.5 c 128,-1,1
76 -39 m 1,11,12
 54 -36 54 -36 47 -31 c 1,13,-1
 45 -31 l 2,14,15
 26 -31 26 -31 4 13 c 128,-1,16
 -18 57 -18 57 -18 97 c 0,17,18
 -18 137 -18 137 9 158.5 c 128,-1,19
 36 180 36 180 77.5 180 c 0,20,21
 119 180 119 180 162 149.5 c 128,-1,22
 205 119 205 119 205 82 c 128,-1,23
 205 45 205 45 182 18 c 1,24,25
 135 -34 135 -34 76 -39 c 1,11,12
EndSplineSet
EndChar

StartChar: semicolon
Encoding: 59 59 30
Width: 506
Flags: HW
LayerCount: 2
Fore
SplineSet
-55 -246 m 1,0,1
 31 -140 31 -140 62.5 -71 c 128,-1,2
 94 -2 94 -2 94 29 c 2,3,-1
 94 31 l 1,4,5
 89 12 89 12 70.5 -2 c 128,-1,6
 52 -16 52 -16 27.5 -16 c 0,7,8
 3 -16 3 -16 -11 6 c 128,-1,9
 -25 28 -25 28 -25 58.5 c 0,10,11
 -25 89 -25 89 15.5 129.5 c 128,-1,12
 56 170 56 170 94.5 170 c 128,-1,13
 133 170 133 170 164 133.5 c 128,-1,14
 195 97 195 97 195 66 c 0,15,16
 195 -13 195 -13 98 -182 c 0,17,18
 53 -261 53 -261 21 -289 c 128,-1,19
 -11 -317 -11 -317 -28.5 -317 c 128,-1,20
 -46 -317 -46 -317 -57 -307.5 c 128,-1,21
 -68 -298 -68 -298 -68 -284 c 128,-1,22
 -68 -270 -68 -270 -55 -246 c 1,0,1
244 707 m 1,23,24
 235 700 235 700 221 700 c 0,25,26
 197 700 197 700 182.5 744.5 c 128,-1,27
 168 789 168 789 168 830 c 0,28,29
 168 871 168 871 195.5 899.5 c 128,-1,30
 223 928 223 928 267 928 c 0,31,32
 311 928 311 928 347 898.5 c 128,-1,33
 383 869 383 869 383 824 c 0,34,35
 383 779 383 779 347 742 c 128,-1,36
 311 705 311 705 266 705 c 2,37,-1
 256 705 l 2,38,39
 250 705 250 705 244 707 c 1,23,24
EndSplineSet
EndChar

StartChar: less
Encoding: 60 60 31
Width: 934
Flags: HW
LayerCount: 2
Fore
SplineSet
809 1020 m 2,0,1
 841.029411765 1020 841.029411765 1020 841.029411765 1001.15916955 c 0,2,3
 841.029411765 954.943247722 841.029411765 954.943247722 804.514705882 937.971623861 c 0,4,5
 768 921 768 921 536 678 c 1,6,-1
 506 649 l 1,7,8
 504 649 504 649 462.5 616 c 128,-1,9
 421 583 421 583 396 560.5 c 128,-1,10
 371 538 371 538 370 522.5 c 128,-1,11
 369 507 369 507 385 478.5 c 128,-1,12
 401 450 401 450 425 416 c 128,-1,13
 449 382 449 382 478 346 c 128,-1,14
 507 310 507 310 533.5 278.5 c 128,-1,15
 560 247 560 247 580.5 223 c 128,-1,16
 601 199 601 199 606.5 190.5 c 128,-1,17
 612 182 612 182 612 164 c 128,-1,18
 612 146 612 146 590.5 127.5 c 128,-1,19
 569 109 569 109 550.5 109 c 128,-1,20
 532 109 532 109 522 113 c 1,21,22
 511 127 511 127 487.5 153 c 0,23,24
 266 398.063829787 266 398.063829787 266 481.531914894 c 128,-1,25
 266 565 266 565 402 664 c 0,26,27
 435 688 435 688 459 709 c 1,28,-1
 573 817 l 2,29,30
 577 820 577 820 582.5 828 c 128,-1,31
 588 836 588 836 590 836 c 1,32,33
 590 834 590 834 589 832.5 c 128,-1,34
 588 831 588 831 588 829 c 1,35,36
 611 856 611 856 634 884 c 0,37,38
 720 988 720 988 799 1020 c 1,39,-1
 809 1020 l 2,0,1
EndSplineSet
EndChar

StartChar: equal
Encoding: 61 61 32
Width: 934
Flags: HW
LayerCount: 2
Fore
SplineSet
705 709 m 1,0,1
 439 723 439 723 367 723 c 0,2,3
 195.133333333 723 195.133333333 723 170 694 c 1,4,5
 152 682 152 682 135 682 c 0,6,7
 98 682 98 682 98 719 c 0,8,9
 98 821 98 821 426 821 c 128,-1,10
 754 821 754 821 754 768 c 0,11,12
 754 749 754 749 739.5 732 c 128,-1,13
 725 715 725 715 705 709 c 1,0,1
791 469 m 1,14,-1
 492 481 l 1,15,16
 280 481 280 481 176 418 c 1,17,18
 164 414 164 414 154 414 c 0,19,20
 119 414 119 414 119 451 c 0,21,22
 119 496 119 496 194 528 c 0,23,24
 302 573 302 573 504 573 c 0,25,26
 581 573 581 573 657.5 569 c 128,-1,27
 734 565 734 565 805 563 c 1,28,29
 840 553 840 553 840 528 c 0,30,31
 840 510 840 510 825.5 492.5 c 128,-1,32
 811 475 811 475 791 469 c 1,14,-1
EndSplineSet
EndChar

StartChar: greater
Encoding: 62 62 33
Width: 934
Flags: HW
LayerCount: 2
Fore
SplineSet
537 891 m 1,0,-1
 539 893 l 1,1,2
 539 887 539 887 545 887 c 1,3,-1
 549 883 l 1,4,-1
 553 868 l 1,5,6
 682 649 682 649 765 599 c 0,7,8
 827 562 827 562 827 531.5 c 128,-1,9
 827 501 827 501 805.5 478 c 128,-1,10
 784 455 784 455 761 434 c 128,-1,11
 738 413 738 413 711.5 389 c 128,-1,12
 685 365 685 365 659.5 342 c 128,-1,13
 634 319 634 319 612 299.5 c 128,-1,14
 590 280 590 280 559 248 c 0,15,16
 464 152 464 152 362 96 c 1,17,18
 350 92 350 92 340 92 c 0,19,20
 311 92 311 92 311 122.5 c 128,-1,21
 311 153 311 153 349.5 176 c 128,-1,22
 388 199 388 199 422.5 228 c 128,-1,23
 457 257 457 257 488.5 288.5 c 128,-1,24
 520 320 520 320 550.5 352 c 128,-1,25
 581 384 581 384 614 414 c 2,26,-1
 711 500 l 1,27,28
 683 526 683 526 652.5 549 c 128,-1,29
 622 572 622 572 586.5 609.5 c 128,-1,30
 551 647 551 647 518 705 c 128,-1,31
 485 763 485 763 451 817 c 1,32,-1
 451 825 l 2,33,34
 451 853 451 853 471 874 c 128,-1,35
 491 895 491 895 510.5 895 c 128,-1,36
 530 895 530 895 537 891 c 1,0,-1
EndSplineSet
EndChar

StartChar: question
Encoding: 63 63 34
Width: 913
Flags: HW
LayerCount: 2
Fore
SplineSet
180 1473 m 0,0,1
 180 1448 180 1448 152 1448 c 0,2,3
 61 1448 61 1448 61 1625 c 128,-1,4
 61 1802 61 1802 230 1905 c 0,5,6
 372 1991 372 1991 545 1991 c 0,7,8
 782 1991 782 1991 864 1773 c 0,9,10
 893 1694 893 1694 893 1599 c 128,-1,11
 893 1504 893 1504 881 1446 c 128,-1,12
 869 1388 869 1388 847.5 1338.5 c 128,-1,13
 826 1289 826 1289 797 1246 c 128,-1,14
 768 1203 768 1203 734.5 1159 c 128,-1,15
 701 1115 701 1115 664.5 1067.5 c 0,16,17
 568.994723387 943.212311257 568.994723387 943.212311257 511.67416055 819.327395213 c 128,-1,18
 454.353597713 695.442479168 454.353597713 695.442479168 410 369 c 0,19,20
 407 344 407 344 388 327.5 c 128,-1,21
 369 311 369 311 352 311 c 0,22,23
 319 311 319 311 315 354 c 1,24,25
 366 643 366 643 393 736.5 c 128,-1,26
 420 830 420 830 463.609022556 906.751879699 c 128,-1,27
 507.218045113 983.503759398 507.218045113 983.503759398 630 1157 c 1,28,29
 797 1396 797 1396 797 1576 c 128,-1,30
 797 1756 797 1756 712 1836 c 1,31,32
 648 1894 648 1894 556 1894 c 0,33,34
 380 1894 380 1894 263.5 1818 c 128,-1,35
 147 1742 147 1742 147 1616 c 0,36,37
 147 1594 147 1594 163.5 1540 c 128,-1,38
 180 1486 180 1486 180 1473 c 0,0,1
354 172 m 0,39,40
 426 172 426 172 426 112 c 0,41,42
 426 84 426 84 412 37 c 1,43,44
 381 -22 381 -22 334 -37 c 1,45,46
 271 -37 271 -37 248 9 c 0,47,48
 240 25 240 25 240 65 c 128,-1,49
 240 105 240 105 279.5 138.5 c 128,-1,50
 319 172 319 172 354 172 c 0,39,40
EndSplineSet
EndChar

StartChar: at
Encoding: 64 64 35
Width: 1706
Flags: HW
LayerCount: 2
Fore
SplineSet
666 293 m 0,0,1
 530 293 530 293 530 539.5 c 128,-1,2
 530 786 530 786 594.5 997.5 c 0,3,4
 730.056737589 1442 730.056737589 1442 936 1442 c 0,5,6
 966 1442 966 1442 991 1426.5 c 128,-1,7
 1016 1411 1016 1411 1030.5 1401.5 c 128,-1,8
 1045 1392 1045 1392 1062 1386 c 0,9,10
 1096 1376 1096 1376 1096 1346 c 128,-1,11
 1096 1316 1096 1316 1058 1298 c 0,12,13
 1046 1292 1046 1292 1030 1292 c 128,-1,14
 1014 1292 1014 1292 973 1319 c 128,-1,15
 932 1346 932 1346 902.5 1346 c 128,-1,16
 873 1346 873 1346 839 1312.5 c 128,-1,17
 805 1279 805 1279 767 1208.5 c 128,-1,18
 729 1138 729 1138 677 947 c 128,-1,19
 625 756 625 756 625 577.5 c 128,-1,20
 625 399 625 399 680 399 c 0,21,22
 782 399 782 399 965 872 c 0,23,24
 976 902 976 902 988 948 c 0,25,26
 1036 1139 1036 1139 1106 1139 c 0,27,28
 1153 1139 1153 1139 1153 946 c 1,29,-1
 1151 748 l 1,30,31
 1151 568 1151 568 1191 512 c 0,32,33
 1208 489 1208 489 1237 489 c 0,34,35
 1365 489 1365 489 1465 578 c 0,36,37
 1638 731 1638 731 1638 1018 c 0,38,39
 1638 1098 1638 1098 1616.5 1204.5 c 128,-1,40
 1595 1311 1595 1311 1554 1404 c 1,41,42
 1472 1596 1472 1596 1322.5 1709.5 c 128,-1,43
 1173 1823 1173 1823 983 1823 c 0,44,45
 720 1823 720 1823 525.5 1693 c 128,-1,46
 331 1563 331 1563 227 1347 c 128,-1,47
 123 1131 123 1131 123 881 c 0,48,49
 123 229 123 229 510 16 c 0,50,51
 669 -72 669 -72 874 -72 c 0,52,53
 1137 -72 1137 -72 1332 88 c 0,54,55
 1437 174 1437 174 1513 266.5 c 128,-1,56
 1589 359 1589 359 1638 416 c 1,57,58
 1658 432 1658 432 1679 432 c 0,59,60
 1714 432 1714 432 1714 397 c 0,61,62
 1714 376 1714 376 1698 356 c 1,63,64
 1642 292 1642 292 1589.5 228 c 128,-1,65
 1537 164 1537 164 1481 106 c 0,66,67
 1355 -26 1355 -26 1205.5 -98 c 128,-1,68
 1056 -170 1056 -170 844.5 -170 c 128,-1,69
 633 -170 633 -170 454 -62 c 0,70,71
 150 121 150 121 54 534 c 0,72,73
 20 680 20 680 20 835.5 c 0,74,75
 20 1133 20 1133 129.5 1377 c 128,-1,76
 239 1621 239 1621 454.5 1772 c 128,-1,77
 670 1923 670 1923 973 1923 c 0,78,79
 1312 1923 1312 1923 1516 1667 c 128,-1,80
 1720 1411 1720 1411 1720 952 c 0,81,82
 1720 788 1720 788 1610 611 c 0,83,84
 1529 480 1529 480 1400 423 c 0,85,86
 1332 393 1332 393 1256 393 c 0,87,88
 1127 393 1127 393 1083 520 c 0,89,90
 1055 601 1055 601 1055 764 c 2,91,-1
 1055 836 l 1,92,93
 906 418 906 418 744 317 c 0,94,95
 706 293 706 293 666 293 c 0,0,1
EndSplineSet
EndChar

StartChar: A
Encoding: 65 65 36
Width: 1438
Flags: HW
LayerCount: 2
Fore
SplineSet
211 653 m 1,0,1
 290 643 290 643 477 635 c 1,2,3
 650 896 650 896 920 1404 c 0,4,5
 1089 1722 1089 1722 1139 1952 c 1,6,7
 1147 1973 1147 1973 1165 1987 c 128,-1,8
 1183 2001 1183 2001 1200 2001 c 0,9,10
 1226 2001 1226 2001 1229 1970 c 1,11,12
 1245 1954 1245 1954 1243.5 1934 c 128,-1,13
 1242 1914 1242 1914 1231 1903 c 1,14,15
 1208 1822 1208 1822 1198.5 1733.5 c 128,-1,16
 1189 1645 1189 1645 1159.5 1406 c 128,-1,17
 1130 1167 1130 1167 1130 1004 c 128,-1,18
 1130 841 1130 841 1155 608 c 1,19,20
 1278 595 1278 595 1288 581 c 128,-1,21
 1298 567 1298 567 1298 550 c 128,-1,22
 1298 533 1298 533 1279.5 515.5 c 128,-1,23
 1261 498 1261 498 1239.5 499.5 c 128,-1,24
 1218 501 1218 501 1202 503.5 c 128,-1,25
 1186 506 1186 506 1169 508 c 1,26,-1
 1169 498 l 2,27,28
 1169 492 1169 492 1172.5 467 c 128,-1,29
 1176 442 1176 442 1176.5 398 c 128,-1,30
 1177 354 1177 354 1180.5 319.5 c 128,-1,31
 1184 285 1184 285 1192 248 c 128,-1,32
 1200 211 1200 211 1215.5 141.5 c 128,-1,33
 1231 72 1231 72 1231 50 c 128,-1,34
 1231 28 1231 28 1214.5 11 c 128,-1,35
 1198 -6 1198 -6 1177.5 -6 c 128,-1,36
 1157 -6 1157 -6 1142 23.5 c 128,-1,37
 1127 53 1127 53 1117 99 c 128,-1,38
 1107 145 1107 145 1100.5 202 c 128,-1,39
 1094 259 1094 259 1089 314.5 c 128,-1,40
 1084 370 1084 370 1080.5 417.5 c 128,-1,41
 1077 465 1077 465 1073 492 c 1,42,-1
 1067 520 l 1,43,44
 931 534 931 534 792 536 c 128,-1,45
 653 538 653 538 514 541 c 1,46,47
 250 141 250 141 16 35 c 1,48,49
 -62 -4 -62 -4 -106 -4 c 0,50,51
 -160 -4 -160 -4 -160 47 c 0,52,53
 -160 73 -160 73 -142 92 c 128,-1,54
 -124 111 -124 111 -104.5 111 c 128,-1,55
 -85 111 -85 111 -74 94 c 1,56,-1
 -72 96 l 1,57,58
 142 179 142 179 332 432 c 0,59,60
 361 472 361 472 379 495 c 128,-1,61
 397 518 397 518 414 543 c 1,62,63
 259 551 259 551 182 559 c 1,64,65
 154 570 154 570 154 592 c 128,-1,66
 154 614 154 614 171.5 632 c 128,-1,67
 189 650 189 650 211 653 c 1,0,1
1057 618 m 1,68,69
 1040 752 1040 752 1040 981.5 c 128,-1,70
 1040 1211 1040 1211 1083 1538 c 1,71,72
 962 1287 962 1287 814.5 1029.5 c 128,-1,73
 667 772 667 772 578 633 c 1,74,75
 698 631 698 631 818.5 629.5 c 128,-1,76
 939 628 939 628 1057 618 c 1,68,69
EndSplineSet
EndChar

StartChar: B
Encoding: 66 66 37
Width: 1053
Flags: HW
LayerCount: 2
Fore
SplineSet
6 -82 m 1,0,1
 10 -50 10 -50 20 0 c 1,2,3
 -9 6 -9 6 -38.5 12 c 0,4,5
 -161.910034602 37.1003460208 -161.910034602 37.1003460208 -166 78 c 0,6,7
 -167 83 -167 83 -167 94.5 c 128,-1,8
 -167 106 -167 106 -155.5 119.5 c 128,-1,9
 -144 133 -144 133 -133.5 133 c 128,-1,10
 -123 133 -123 133 -111.5 129.5 c 0,11,12
 -97.5135135135 125.243243243 -97.5135135135 125.243243243 -64.5345345345 109.621621622 c 128,-1,13
 -31.5555555556 94 -31.5555555556 94 41 94 c 1,14,-1
 94 317 l 1,15,16
 125 475 125 475 163.5 634.5 c 128,-1,17
 202 794 202 794 240 958 c 1,18,-1
 178 961 l 1,19,20
 147 961 147 961 147 995 c 0,21,22
 147 1044 147 1044 258 1044 c 1,23,24
 303 1235 303 1235 337.969006008 1459.16029492 c 128,-1,25
 372.938012015 1683.32058984 372.938012015 1683.32058984 428 1858 c 1,26,27
 391 1842 391 1842 360 1815 c 1,28,29
 342 1778 342 1778 307 1778 c 0,30,31
 298 1778 298 1778 285 1786.5 c 128,-1,32
 272 1795 272 1795 272 1819 c 0,33,34
 272 1866.2 272 1866.2 332 1902.6 c 128,-1,35
 392 1939 392 1939 469 1954 c 1,36,37
 482.072463768 1975.39130435 482.072463768 1975.39130435 500.514492754 1975.39130435 c 128,-1,38
 518.956521739 1975.39130435 518.956521739 1975.39130435 532 1958 c 1,39,40
 722 1952 722 1952 837 1827.5 c 128,-1,41
 952 1703 952 1703 952 1495 c 0,42,43
 952 1325 952 1325 826.5 1181 c 128,-1,44
 701 1037 701 1037 545 1016 c 1,45,46
 719 1005 719 1005 850 863.5 c 128,-1,47
 981 722 981 722 981 570.5 c 0,48,49
 981 278.266055046 981 278.266055046 757.5 131.133027523 c 128,-1,50
 534 -16 534 -16 152 -16 c 1,51,-1
 109 -14 l 1,52,53
 102 -43 102 -43 102 -63 c 1,54,55
 97 -89 97 -89 79.5 -106 c 128,-1,56
 62 -123 62 -123 46 -123 c 0,57,58
 11 -123 11 -123 6 -82 c 1,0,1
127 80 m 1,59,60
 154 76 154 76 207 76 c 0,61,62
 534 76 534 76 710.5 207 c 128,-1,63
 887 338 887 338 887 557 c 0,64,65
 887 710 887 710 747 830 c 128,-1,66
 607 950 607 950 436 950 c 0,67,68
 392 950 392 950 328 954 c 1,69,70
 231 533 231 533 206.5 418 c 128,-1,71
 182 303 182 303 175 276.5 c 128,-1,72
 168 250 168 250 160 218 c 2,73,-1
 143 150 l 2,74,75
 134 114 134 114 127 80 c 1,59,60
757.5 1772 m 128,-1,77
 663 1866 663 1866 512 1870 c 1,78,79
 462 1705 462 1705 415.5 1423.5 c 128,-1,80
 369 1142 369 1142 348 1047 c 1,81,82
 559 1061 559 1061 705.5 1185.5 c 128,-1,83
 852 1310 852 1310 852 1494 c 128,-1,76
 852 1678 852 1678 757.5 1772 c 128,-1,77
EndSplineSet
EndChar

StartChar: C
Encoding: 67 67 38
Width: 1098
Flags: HW
LayerCount: 2
Fore
SplineSet
887 256 m 0,0,1
 922 256 922 256 922 219 c 0,2,3
 922 191 922 191 891 168 c 1,4,5
 844 136 844 136 796 100 c 0,6,7
 621.9625 -30.05 621.9625 -30.05 476.3734375 -30.05 c 0,8,9
 393.5875 -30.05 393.5875 -30.05 320 12 c 0,10,11
 163 100 163 100 95 329 c 0,12,13
 61 444 61 444 61 547.5 c 0,14,15
 61 719 61 719 115.534602076 955.316608997 c 128,-1,16
 170.069204152 1191.63321799 170.069204152 1191.63321799 272.034602076 1432.316609 c 128,-1,17
 374 1673 374 1673 516 1834 c 128,-1,18
 658 1995 658 1995 818 1995 c 128,-1,19
 978 1995 978 1995 1087 1861.5 c 128,-1,20
 1196 1728 1196 1728 1196 1589 c 1,21,22
 1193 1568 1193 1568 1175 1550 c 128,-1,23
 1157 1532 1157 1532 1139 1532 c 128,-1,24
 1121 1532 1121 1532 1112.5 1544 c 0,25,26
 1099.44642857 1562.42857143 1099.44642857 1562.42857143 1093.5 1610 c 0,27,28
 1077.60088692 1737.19290466 1077.60088692 1737.19290466 1002.80044346 1816.59645233 c 128,-1,29
 928 1896 928 1896 816 1896 c 128,-1,30
 704 1896 704 1896 577 1745 c 0,31,32
 408 1545 408 1545 287 1178.5 c 128,-1,33
 166 812 166 812 166 599.5 c 128,-1,34
 166 387 166 387 238 244 c 0,35,36
 326 70 326 70 492 70 c 0,37,38
 614 70 614 70 772 184 c 0,39,40
 816 216 816 216 843 236 c 128,-1,41
 870 256 870 256 887 256 c 0,0,1
EndSplineSet
EndChar

StartChar: D
Encoding: 68 68 39
Width: 1370
Flags: HW
LayerCount: 2
Fore
SplineSet
43 -72 m 0,0,1
 43 -52 43 -52 47 -14 c 1,2,3
 18 -8 18 -8 -12.5 -3 c 0,4,5
 -142.023333333 18.2333333333 -142.023333333 18.2333333333 -146 58 c 0,6,7
 -147 63 -147 63 -147 74.5 c 128,-1,8
 -147 86 -147 86 -135.5 99.5 c 128,-1,9
 -124 113 -124 113 -113.5 113 c 128,-1,10
 -103 113 -103 113 -91.5 109.5 c 0,11,12
 -77.5135135135 105.243243243 -77.5135135135 105.243243243 -42.4234234234 88.6216216216 c 128,-1,13
 -7.33333333333 72 -7.33333333333 72 59 72 c 1,14,15
 287 1194 287 1194 502 1835 c 1,16,17
 377 1793 377 1793 276 1729 c 1,18,19
 263 1724 263 1724 254 1724 c 0,20,21
 219 1724 219 1724 219 1761 c 0,22,23
 219 1791 219 1791 244 1808 c 1,24,25
 393 1900 393 1900 541 1942 c 1,26,27
 560 1968 560 1968 580.5 1968 c 128,-1,28
 601 1968 601 1968 608 1958 c 1,29,30
 704 1980 704 1980 823.5 1980 c 128,-1,31
 943 1980 943 1980 1045.5 1929 c 0,32,33
 1337 1783.96097561 1337 1783.96097561 1337 1286 c 0,34,35
 1337 711 1337 711 1050 360 c 0,36,37
 851 118 851 118 524 26 c 0,38,39
 358 -20 358 -20 156 -20 c 2,40,-1
 143 -20 l 1,41,42
 136 -87 136 -87 111 -105 c 0,43,44
 100 -113 100 -113 82 -113 c 0,45,46
 43 -113 43 -113 43 -72 c 0,0,1
1241 1262 m 0,47,48
 1241 1882 1241 1882 774 1882 c 0,49,50
 678 1882 678 1882 600 1862 c 1,51,52
 427 1320 427 1320 271 604 c 0,53,54
 217 357 217 357 158 68 c 1,55,56
 516 68 516 68 760 229.5 c 128,-1,57
 1004 391 1004 391 1122.5 662 c 128,-1,58
 1241 933 1241 933 1241 1262 c 0,47,48
EndSplineSet
EndChar

StartChar: E
Encoding: 69 69 40
Width: 1145
Flags: HW
LayerCount: 2
Fore
SplineSet
504 1931 m 1,0,1
 704 1982 704 1982 1128 1982 c 0,2,3
 1188 1982 1188 1982 1227 1976 c 128,-1,4
 1266 1970 1266 1970 1266 1946 c 0,5,6
 1266 1911 1266 1911 1238 1892 c 0,7,8
 1229 1886 1229 1886 1217 1886 c 2,9,-1
 1079 1886 l 2,10,11
 648 1886 648 1886 489 1833 c 1,12,13
 450 1695 450 1695 395.5 1427 c 128,-1,14
 341 1159 341 1159 317 1061 c 1,15,16
 383 1053 383 1053 597 1053 c 128,-1,17
 811 1053 811 1053 883 1057 c 1,18,19
 918 1047 918 1047 918 1024 c 0,20,21
 918 983 918 983 877.5 969.5 c 128,-1,22
 837 956 837 956 748 956 c 1,23,-1
 297 967 l 1,24,25
 262 843 262 843 197 541.5 c 128,-1,26
 132 240 132 240 88 92 c 1,27,-1
 879 76 l 1,28,29
 981 76 981 76 1020 80 c 1,30,31
 1055 70 1055 70 1055 46 c 0,32,33
 1055 4 1055 4 1009 -9 c 0,34,35
 978 -18 978 -18 886.5 -18 c 128,-1,36
 795 -18 795 -18 677.5 -14.5 c 128,-1,37
 560 -11 560 -11 450.5 -7 c 128,-1,38
 341 -3 341 -3 248.5 0.5 c 128,-1,39
 156 4 156 4 96 4 c 1,40,-1
 27 -2 l 1,41,42
 -8 -2 -8 -2 -19.5 12.5 c 128,-1,43
 -31 27 -31 27 -31 40 c 128,-1,44
 -31 53 -31 53 -24 64 c 128,-1,45
 -17 75 -17 75 -6 99.5 c 128,-1,46
 5 124 5 124 19 165 c 0,47,48
 45.2181818182 241.781818182 45.2181818182 241.781818182 73.7422077922 365.079220779 c 128,-1,49
 102.266233766 488.376623377 102.266233766 488.376623377 181.633116883 868.188311688 c 128,-1,50
 261 1248 261 1248 381 1790 c 1,51,52
 348 1793 348 1793 348 1829.5 c 128,-1,53
 348 1866 348 1866 408 1898 c 1,54,55
 408 1962 408 1962 469 1962 c 0,56,57
 499 1962 499 1962 504 1931 c 1,0,1
EndSplineSet
EndChar

StartChar: F
Encoding: 70 70 41
Width: 975
Flags: HW
LayerCount: 2
Fore
SplineSet
209 1094 m 1,0,1
 239 1090 239 1090 262 1090 c 2,2,-1
 301 1090 l 2,3,4
 316 1090 316 1090 332 1092 c 1,5,-1
 338 1143 l 2,6,7
 369 1404 369 1404 434 1706 c 1,8,9
 88 1614 88 1614 27 1544 c 1,10,11
 7 1532 7 1532 -8 1532 c 0,12,13
 -45 1532 -45 1532 -45 1569 c 0,14,15
 -45 1668 -45 1668 375 1782 c 0,16,17
 425 1795 425 1795 457 1804 c 1,18,19
 476 1884 476 1884 492 1939 c 1,20,21
 513 1970 513 1970 543 1970 c 0,22,23
 580 1970 580 1970 580 1935 c 0,24,25
 580 1921 580 1921 571 1907 c 1,26,-1
 555 1831 l 1,27,28
 1032 1951 1032 1951 1653 1960 c 1,29,30
 1688 1950 1688 1950 1688 1925 c 0,31,32
 1688 1907 1688 1907 1673 1889.5 c 128,-1,33
 1658 1872 1658 1872 1638 1866 c 1,34,35
 1017 1857 1017 1857 535 1733 c 1,36,37
 506 1589 506 1589 477 1446.5 c 128,-1,38
 448 1304 448 1304 432 1157 c 2,39,-1
 426 1102 l 1,40,-1
 539 1114 l 1,41,42
 695 1128 695 1128 844.5 1131.5 c 128,-1,43
 994 1135 994 1135 1049 1137 c 1,44,45
 1079 1125 1079 1125 1079 1104 c 128,-1,46
 1079 1083 1079 1083 1062.5 1065.5 c 128,-1,47
 1046 1048 1046 1048 1024 1044 c 1,48,49
 944 1040 944 1040 812 1037.5 c 0,50,51
 680 1035 680 1035 530 1024 c 1,52,-1
 414 1010 l 1,53,54
 366 647 366 647 268 188 c 0,55,56
 248 97 248 97 225 -12 c 1,57,58
 206 -53 206 -53 168 -53 c 0,59,60
 137 -53 137 -53 133 -12 c 1,61,62
 247 529 247 529 275.5 715.5 c 128,-1,63
 304 902 304 902 317 999 c 1,64,65
 300 997 300 997 284 997 c 2,66,-1
 250 997 l 2,67,68
 206 997 206 997 175.5 1004 c 128,-1,69
 145 1011 145 1011 145 1036 c 0,70,71
 145 1055 145 1055 164 1073.5 c 128,-1,72
 183 1092 183 1092 209 1094 c 1,0,1
EndSplineSet
EndChar

StartChar: G
Encoding: 71 71 42
Width: 1374
Flags: HW
LayerCount: 2
Fore
SplineSet
981 117 m 1,0,1
 801 -31 801 -31 510 -31 c 0,2,3
 358 -31 358 -31 246 67 c 0,4,5
 100 194 100 194 60 435 c 0,6,7
 49 505 49 505 49 571 c 0,8,9
 49 804 49 804 171 1166 c 0,10,11
 255 1415 255 1415 385 1621.5 c 128,-1,12
 515 1828 515 1828 682 1915 c 0,13,14
 769 1960 769 1960 860 1960 c 0,15,16
 1033 1960 1033 1960 1135 1856 c 128,-1,17
 1237 1752 1237 1752 1268 1577 c 1,18,19
 1265 1555 1265 1555 1246.5 1537.5 c 128,-1,20
 1228 1520 1228 1520 1206.5 1520 c 128,-1,21
 1185 1520 1185 1520 1174 1548 c 0,22,23
 1150 1615 1150 1615 1126 1672 c 0,24,25
 1048 1864 1048 1864 860 1864 c 0,26,27
 709 1864 709 1864 566 1720 c 1,28,29
 382 1532 382 1532 262.5 1182 c 128,-1,30
 143 832 143 832 143 615 c 128,-1,31
 143 398 143 398 214 253 c 0,32,33
 308 61 308 61 524 61 c 0,34,35
 879 61 879 61 1007 258 c 0,36,37
 1053 329 1053 329 1067 418 c 1,38,39
 1064 429 1064 429 1063.5 440 c 128,-1,40
 1063 451 1063 451 1039 481 c 0,41,42
 1015 511 1015 511 940.5 584.5 c 128,-1,43
 866 658 866 658 803 702 c 1,44,45
 671 675 671 675 504 653 c 1,46,47
 463 657 463 657 463 690 c 0,48,49
 463 716 463 716 487 737 c 1,50,51
 623 834 623 834 719 834 c 0,52,53
 777 834 777 834 834 803 c 1,54,55
 1080 857 1080 857 1391 956 c 1,56,57
 1440 956 1440 956 1440 922 c 0,58,59
 1440 912 1440 912 1432 891 c 1,60,61
 1170 462 1170 462 1034 -49 c 0,62,63
 966 -306 966 -306 925.5 -523.5 c 128,-1,64
 885 -741 885 -741 860 -860 c 1,65,66
 857 -885 857 -885 838 -901.5 c 128,-1,67
 819 -918 819 -918 803 -918 c 0,68,69
 770 -918 770 -918 766 -874 c 1,70,71
 834 -442 834 -442 881.5 -252.5 c 128,-1,72
 929 -63 929 -63 981 117 c 1,0,1
932 729 m 1,73,74
 1024 641 1024 641 1038.5 626 c 128,-1,75
 1053 611 1053 611 1080 586 c 128,-1,76
 1107 561 1107 561 1128 532 c 1,77,78
 1166 611 1166 611 1209.5 685 c 128,-1,79
 1253 759 1253 759 1296 834 c 1,80,81
 1115 772 1115 772 932 729 c 1,73,74
EndSplineSet
EndChar

StartChar: H
Encoding: 72 72 43
Width: 1460
Flags: HW
LayerCount: 2
Fore
SplineSet
-211 608 m 2,0,-1
 -207 590 l 1,1,2
 -207 567 -207 567 -223.5 549.5 c 128,-1,3
 -240 532 -240 532 -260 532 c 0,4,5
 -303 532 -303 532 -303 592 c 0,6,7
 -303 713 -303 713 -61 858 c 0,8,9
 22 907 22 907 73.5 926 c 128,-1,10
 125 945 125 945 179.5 969 c 128,-1,11
 234 993 234 993 272.5 1005.5 c 128,-1,12
 311 1018 311 1018 322 1022 c 1,13,14
 365 1202 365 1202 388 1396 c 128,-1,15
 411 1590 411 1590 423.5 1704.5 c 128,-1,16
 436 1819 436 1819 451 1933 c 0,17,18
 457 1982 457 1982 510 1982 c 0,19,20
 532 1982 532 1982 539.5 1974 c 128,-1,21
 547 1966 547 1966 545 1948 c 0,22,23
 521 1661 521 1661 422 1049 c 1,24,25
 730 1128 730 1128 1202 1149 c 1,26,27
 1269 1657 1269 1657 1283 1714 c 0,28,29
 1327 1892 1327 1892 1331 1954 c 1,30,31
 1337 1974 1337 1974 1354.5 1988.5 c 128,-1,32
 1372 2003 1372 2003 1391 2003 c 0,33,34
 1416 2003 1416 2003 1425 1968 c 1,35,36
 1422 1913 1422 1913 1406 1844 c 2,37,-1
 1381 1736 l 2,38,39
 1363 1658 1363 1658 1338 1468.5 c 128,-1,40
 1313 1279 1313 1279 1296 1151 c 1,41,-1
 1763 1165 l 1,42,43
 1798 1156 1798 1156 1798 1130 c 0,44,45
 1798 1112 1798 1112 1783.5 1094.5 c 128,-1,46
 1769 1077 1769 1077 1749 1071 c 1,47,48
 1633 1066 1633 1066 1517 1064 c 128,-1,49
 1401 1062 1401 1062 1282 1059 c 1,50,51
 1264 913 1264 913 1229 737 c 128,-1,52
 1194 561 1194 561 1162.5 387.5 c 128,-1,53
 1131 214 1131 214 1124 35 c 1,54,55
 1121 10 1121 10 1102.5 -6.5 c 128,-1,56
 1084 -23 1084 -23 1065 -23 c 0,57,58
 1034 -23 1034 -23 1030 20 c 1,59,60
 1037 205 1037 205 1069 380.5 c 128,-1,61
 1101 556 1101 556 1122 661.5 c 128,-1,62
 1143 767 1143 767 1161 874 c 2,63,-1
 1190 1055 l 1,64,65
 715 1036 715 1036 397 950 c 1,66,67
 335 699 335 699 264.5 454 c 128,-1,68
 194 209 194 209 135 -29 c 1,69,70
 114 -70 114 -70 78 -70 c 0,71,72
 47 -70 47 -70 43 -29 c 1,73,74
 99 201 99 201 167 439.5 c 128,-1,75
 235 678 235 678 297 922 c 1,76,77
 35 835 35 835 -119 713 c 0,78,79
 -127 707 -127 707 -142 696 c 0,80,81
 -211 645 -211 645 -211 612 c 0,82,83
 -211 610 -211 610 -211 608 c 2,0,-1
EndSplineSet
EndChar

StartChar: I
Encoding: 73 73 44
Width: 555
Flags: HW
LayerCount: 2
Fore
SplineSet
315 1874 m 2,0,1
 276 1874 276 1874 276 1912 c 0,2,3
 276 1929 276 1929 295 1946.5 c 128,-1,4
 314 1964 314 1964 340 1966 c 1,5,-1
 515 1966 l 2,6,7
 619 1966 619 1966 745 1964 c 1,8,9
 776 1953 776 1953 776 1932 c 128,-1,10
 776 1911 776 1911 760 1894 c 128,-1,11
 744 1877 744 1877 721 1872 c 1,12,-1
 656 1872 l 2,13,14
 628 1872 628 1872 578 1874 c 1,15,16
 282 684 282 684 174 92 c 1,17,18
 363 87 363 87 380 54 c 0,19,20
 385 46 385 46 385 33 c 128,-1,21
 385 20 385 20 367.5 1.5 c 128,-1,22
 350 -17 350 -17 326 -20 c 1,23,24
 270 -20 270 -20 209.5 -11 c 128,-1,25
 149 -2 149 -2 116 2 c 128,-1,26
 83 6 83 6 36 6 c 128,-1,27
 -11 6 -11 6 -63 -10 c 1,28,-1
 -74 -10 l 2,29,30
 -95 -10 -95 -10 -105 0.5 c 128,-1,31
 -115 11 -115 11 -115 25 c 0,32,33
 -115 94 -115 94 78 94 c 2,34,-1
 86 94 l 1,35,36
 171 550 171 550 301 1103 c 128,-1,37
 431 1656 431 1656 481 1874 c 1,38,39
 466 1873 466 1873 456 1873 c 2,40,-1
 402 1873 l 1,41,-1
 315 1874 l 2,0,1
EndSplineSet
EndChar

StartChar: J
Encoding: 74 74 45
Width: 1044
Flags: HW
LayerCount: 2
Fore
SplineSet
983 1962 m 0,0,1
 996 1970 996 1970 1008.5 1970 c 128,-1,2
 1021 1970 1021 1970 1034 1962 c 1,3,4
 1045 1970 1045 1970 1058 1970 c 0,5,6
 1087 1970 1087 1970 1096 1935 c 1,7,8
 1036 1711 1036 1711 972 1375.5 c 128,-1,9
 908 1040 908 1040 889 942 c 128,-1,10
 870 844 870 844 840.347376201 689.631929047 c 0,11,12
 810.694752402 535.263858093 810.694752402 535.263858093 748.847376201 366.631929047 c 128,-1,13
 687 198 687 198 578 94 c 1,14,15
 447 -27 447 -27 242.5 -27 c 128,-1,16
 38 -27 38 -27 -74 211 c 0,17,18
 -133 336 -133 336 -133 365.5 c 128,-1,19
 -133 395 -133 395 -116.5 413.5 c 128,-1,20
 -100 432 -100 432 -86 432 c 0,21,22
 -50 432 -50 432 -44 405 c 0,23,24
 -28.4509803922 335.029411765 -28.4509803922 335.029411765 12.7745098039 254.014705882 c 128,-1,25
 54 173 54 173 117.5 117 c 128,-1,26
 181 61 181 61 277.5 61 c 128,-1,27
 374 61 374 61 455 115.5 c 128,-1,28
 536 170 536 170 594 264 c 0,29,30
 690 421 690 421 762 760 c 0,31,32
 777 834 777 834 796.5 926.5 c 128,-1,33
 816 1019 816 1019 837 1120.5 c 128,-1,34
 858 1222 858 1222 880 1327 c 128,-1,35
 902 1432 902 1432 923 1530.5 c 128,-1,36
 944 1629 944 1629 962.5 1716 c 128,-1,37
 981 1803 981 1803 995 1868 c 1,38,39
 923 1827 923 1827 847 1827 c 128,-1,40
 771 1827 771 1827 657 1857.5 c 128,-1,41
 543 1888 543 1888 481 1894 c 1,42,43
 453 1907 453 1907 453 1928 c 128,-1,44
 453 1949 453 1949 470.5 1967.5 c 128,-1,45
 488 1986 488 1986 510 1989 c 1,46,47
 562 1983 562 1983 671.5 1953 c 128,-1,48
 781 1923 781 1923 848.5 1923 c 128,-1,49
 916 1923 916 1923 983 1962 c 0,0,1
EndSplineSet
EndChar

StartChar: K
Encoding: 75 75 46
Width: 1255
Flags: HW
LayerCount: 2
Fore
SplineSet
1241 1980 m 0,0,1
 1276 1980 1276 1980 1276 1946 c 0,2,3
 1276 1925 1276 1925 1260 1905 c 0,4,5
 1106 1721 1106 1721 794.5 1370 c 128,-1,6
 483 1019 483 1019 379 897 c 1,7,8
 407 610 407 610 547 360 c 0,9,10
 645 186 645 186 782 112 c 0,11,12
 852 74 852 74 926 74 c 128,-1,13
 1000 74 1000 74 1040 89 c 128,-1,14
 1080 104 1080 104 1118 162 c 1,15,16
 1138 178 1138 178 1156 178 c 0,17,18
 1196 178 1196 178 1196 142 c 128,-1,19
 1196 106 1196 106 1135 53 c 128,-1,20
 1074 0 1074 0 1022 -9 c 128,-1,21
 970 -18 970 -18 901.5 -18 c 128,-1,22
 833 -18 833 -18 753 21.5 c 128,-1,23
 673 61 673 61 608 128 c 1,24,25
 489 248 489 248 409.5 439 c 128,-1,26
 330 630 330 630 297 821 c 1,27,28
 275 796 275 796 255 778 c 128,-1,29
 235 760 235 760 221 737 c 1,30,31
 117 268 117 268 80 39 c 0,32,33
 75 14 75 14 57 -2 c 128,-1,34
 39 -18 39 -18 22 -18 c 0,35,36
 -10 -18 -10 -18 -14 25 c 1,37,38
 78 534 78 534 215.5 1125 c 128,-1,39
 353 1716 353 1716 406 1950 c 1,40,41
 414 1971 414 1971 432 1985 c 128,-1,42
 450 1999 450 1999 464 1999 c 0,43,44
 498 1999 498 1999 498 1962 c 2,45,-1
 498 1950 l 1,46,47
 448 1693 448 1693 387.5 1431.5 c 128,-1,48
 327 1170 327 1170 268 909 c 1,49,50
 382 1038 382 1038 697.942748092 1390.08874046 c 0,51,52
 1013.88549618 1742.17748092 1013.88549618 1742.17748092 1200 1964 c 1,53,54
 1220 1980 1220 1980 1241 1980 c 0,0,1
EndSplineSet
EndChar

StartChar: L
Encoding: 76 76 47
Width: 928
Flags: HW
LayerCount: 2
Fore
SplineSet
37 2 m 1,0,1
 27 -2 27 -2 16.5 -2 c 128,-1,2
 6 -2 6 -2 -3 11.5 c 128,-1,3
 -12 25 -12 25 -12 55.5 c 128,-1,4
 -12 86 -12 86 18 133 c 128,-1,5
 48 180 48 180 59 226.5 c 128,-1,6
 70 273 70 273 113 423 c 128,-1,7
 156 573 156 573 193 775 c 128,-1,8
 230 977 230 977 303 1316.5 c 128,-1,9
 376 1656 376 1656 428 1911 c 1,10,11
 434 1931 434 1931 452 1945.5 c 128,-1,12
 470 1960 470 1960 487 1960 c 0,13,14
 514 1960 514 1960 522 1925 c 1,15,16
 476 1722 476 1722 393 1294.5 c 128,-1,17
 310 867 310 867 273 714 c 128,-1,18
 236 561 236 561 205.545200893 405.071428571 c 0,19,20
 175.090401786 249.142857143 175.090401786 249.142857143 133 111 c 1,21,22
 351 74 351 74 487 74 c 2,23,-1
 530 74 l 1,24,-1
 710 82 l 1,25,26
 748 82 748 82 844 94 c 1,27,28
 879 85 879 85 879 59 c 0,29,30
 879 42 879 42 864 24 c 128,-1,31
 849 6 849 6 829 0 c 1,32,33
 687 -14 687 -14 555 -14 c 1,34,-1
 37 2 l 1,0,1
EndSplineSet
EndChar

StartChar: M
Encoding: 77 77 48
Width: 1753
Flags: HW
LayerCount: 2
Fore
SplineSet
1567 1933 m 1,0,1
 1594 1982 1594 1982 1626.66666667 1982 c 128,-1,2
 1659.33333333 1982 1659.33333333 1982 1659.33333333 1951.75 c 0,3,4
 1659.33333333 1949 1659.33333333 1949 1659 1946 c 0,5,6
 1598 929 1598 929 1591 76 c 1,7,8
 1604 50 1604 50 1590 24 c 1,9,10
 1566 -25 1566 -25 1534 -25 c 0,11,12
 1495 -25 1495 -25 1492 44 c 0,13,14
 1491 64 1491 64 1491 171 c 128,-1,15
 1491 278 1491 278 1496.5 475 c 128,-1,16
 1502 672 1502 672 1509.5 870.5 c 128,-1,17
 1517 1069 1517 1069 1525 1266.5 c 128,-1,18
 1533 1464 1533 1464 1538 1657 c 1,19,20
 1439 1436 1439 1436 1194.5 970.5 c 128,-1,21
 950 505 950 505 866 336 c 1,22,23
 843 293 843 293 814 293 c 128,-1,24
 785 293 785 293 774 322 c 1,25,26
 722 562 722 562 616 1037 c 128,-1,27
 510 1512 510 1512 471 1706 c 1,28,29
 404 1366 404 1366 259 768 c 128,-1,30
 114 170 114 170 80 18 c 1,31,32
 60 -23 60 -23 23 -23 c 0,33,34
 -8 -23 -8 -23 -12 18 c 1,35,36
 53 375 53 375 209 1022.5 c 128,-1,37
 365 1670 365 1670 424 1931 c 1,38,39
 430 1951 430 1951 447.5 1965.5 c 128,-1,40
 465 1980 465 1980 480 1980 c 0,41,42
 509 1980 509 1980 518 1946 c 1,43,44
 603 1578 603 1578 689.5 1161 c 128,-1,45
 776 744 776 744 831 510 c 1,46,47
 968 746 968 746 1085 979 c 128,-1,48
 1202 1212 1202 1212 1315.5 1439 c 128,-1,49
 1429 1666 1429 1666 1567 1933 c 1,0,1
EndSplineSet
EndChar

StartChar: N
Encoding: 78 78 49
Width: 1329
Flags: HW
LayerCount: 2
Fore
SplineSet
439.068181818 1985 m 128,-1,1
 462 1985 462 1985 474.5 1971 c 128,-1,2
 487 1957 487 1957 494.5 1919.5 c 0,3,4
 527.894117647 1752.52941176 527.894117647 1752.52941176 700.316624041 1093.97122762 c 128,-1,5
 872.739130435 435.413043478 872.739130435 435.413043478 952 158 c 1,6,7
 999 424 999 424 1111.79411765 1011.5210084 c 128,-1,8
 1224.58823529 1599.04201681 1224.58823529 1599.04201681 1286 1939 c 1,9,10
 1293 1961 1293 1961 1315.5 1975 c 128,-1,11
 1338 1989 1338 1989 1357 1989 c 128,-1,12
 1376 1989 1376 1989 1377 1976.5 c 128,-1,13
 1378 1964 1378 1964 1378 1939 c 1,14,15
 1251 1326 1251 1326 1152 768 c 128,-1,16
 1053 210 1053 210 1036.5 118.5 c 128,-1,17
 1020 27 1020 27 1015 16.5 c 128,-1,18
 1010 6 1010 6 995.5 -8.5 c 128,-1,19
 981 -23 981 -23 956.5 -23 c 128,-1,20
 932 -23 932 -23 904 24 c 1,21,22
 877 73 877 73 840 222 c 128,-1,23
 803 371 803 371 666.5 886.5 c 128,-1,24
 530 1402 530 1402 451 1731 c 1,25,26
 404 1516 404 1516 285.5 943 c 128,-1,27
 167 370 167 370 82 20 c 0,28,29
 73 -20 73 -20 29.5458015267 -20 c 128,-1,30
 -13.9083969466 -20 -13.9083969466 -20 -13.9083969466 17.1228366645 c 0,31,32
 -13.9083969466 29.1221374046 -13.9083969466 29.1221374046 55.5458015267 315.561068702 c 128,-1,33
 125 602 125 602 262.149693252 1272.92147239 c 128,-1,34
 399.299386503 1943.84294479 399.299386503 1943.84294479 407.71787507 1964.42147239 c 128,-1,0
 416.136363636 1985 416.136363636 1985 439.068181818 1985 c 128,-1,1
EndSplineSet
EndChar

StartChar: O
Encoding: 79 79 50
Width: 1270
Flags: HW
LayerCount: 2
Fore
SplineSet
426 -45 m 0,0,1
 61 -45 61 -45 61 604 c 0,2,3
 61 1043 61 1043 230 1414 c 1,4,5
 413.06 1819 413.06 1819 707 1819 c 0,6,7
 821 1819 821 1819 922 1737 c 1,8,9
 940 1717 940 1717 940 1696 c 0,10,11
 940 1647 940 1647 907 1647 c 0,12,13
 899 1647 899 1647 860.5 1668 c 0,14,15
 768.833333333 1718 768.833333333 1718 675 1718 c 0,16,17
 552.194805195 1718 552.194805195 1718 429.097402597 1557.5 c 128,-1,18
 306 1397 306 1397 230 1145 c 128,-1,19
 154 893 154 893 154 647 c 0,20,21
 154 172 154 172 330 72 c 0,22,23
 372 49 372 49 443 49 c 128,-1,24
 514 49 514 49 591.5 84.5 c 0,25,26
 807.425717854 183.407909469 807.425717854 183.407909469 952.948845998 501.67748684 c 0,27,28
 1045 703 1045 703 1093 930 c 128,-1,29
 1141 1157 1141 1157 1141 1369.5 c 128,-1,30
 1141 1582 1141 1582 1062 1744 c 1,31,32
 1005 1858 1005 1858 914 1884 c 1,33,34
 868 1896 868 1896 826.5 1904 c 128,-1,35
 785 1912 785 1912 756 1922 c 128,-1,36
 727 1932 727 1932 727 1952 c 0,37,38
 727 1990 727 1990 778 1997 c 1,39,40
 1179 1997 1179 1997 1228 1472 c 0,41,42
 1237 1383 1237 1383 1237 1279.5 c 0,43,44
 1237 1060.44827586 1237 1060.44827586 1177.59361081 825.89546338 c 128,-1,45
 1118.18722162 591.342650898 1118.18722162 591.342650898 1008.59361081 392.171325449 c 128,-1,46
 899 193 899 193 749.5 74 c 128,-1,47
 600 -45 600 -45 426 -45 c 0,0,1
EndSplineSet
EndChar

StartChar: P
Encoding: 80 80 51
Width: 1096
Flags: HW
LayerCount: 2
Fore
SplineSet
268 809 m 1,0,1
 94 865 94 865 94 909 c 0,2,3
 94 934 94 934 111 946 c 128,-1,4
 128 958 128 958 147 958 c 128,-1,5
 166 958 166 958 184 953 c 128,-1,6
 202 948 202 948 220 941 c 128,-1,7
 238 934 238 934 256 925.5 c 128,-1,8
 274 917 274 917 289 911 c 1,9,-1
 494 1872 l 1,10,11
 403 1844 403 1844 360 1767 c 1,12,13
 342 1743 342 1743 313 1743 c 0,14,15
 276 1743 276 1743 276 1778 c 0,16,17
 276 1785 276 1785 281 1800 c 1,18,19
 353 1937 353 1937 524 1970 c 1,20,21
 546 2011 546 2011 575.5 2011 c 128,-1,22
 605 2011 605 2011 610 1980 c 1,23,-1
 618 1980 l 2,24,25
 847 1980 847 1980 977.5 1827.5 c 128,-1,26
 1108 1675 1108 1675 1108 1487 c 0,27,28
 1108 1171 1108 1171 947 980 c 0,29,30
 773 772 773 772 457 772 c 0,31,32
 408 772 408 772 354 786 c 1,33,34
 331 671 331 671 281.5 442 c 128,-1,35
 232 213 232 213 203 47 c 0,36,37
 198 22 198 22 180 6 c 128,-1,38
 162 -10 162 -10 146 -10 c 0,39,40
 113 -10 113 -10 109 33 c 1,41,42
 143 230 143 230 195.5 470.5 c 128,-1,43
 248 711 248 711 268 809 c 1,0,1
375 881 m 1,44,45
 423 868 423 868 520.5 868 c 128,-1,46
 618 868 618 868 713.5 914 c 128,-1,47
 809 960 809 960 878 1038 c 1,48,49
 1022 1204 1022 1204 1022 1438 c 0,50,51
 1022 1620 1022 1620 906 1754 c 128,-1,52
 790 1888 790 1888 590 1888 c 1,53,-1
 375 881 l 1,44,45
EndSplineSet
EndChar

StartChar: Q
Encoding: 81 81 52
Width: 1321
Flags: HW
LayerCount: 2
Fore
SplineSet
2277 -549 m 1,0,1
 2327 -549 2327 -549 2327 -580 c 0,2,3
 2327 -597 2327 -597 2313 -615 c 128,-1,4
 2299 -633 2299 -633 2277 -641 c 1,5,6
 2065 -681 2065 -681 1879.5 -709 c 128,-1,7
 1694 -737 1694 -737 1538 -737 c 0,8,9
 1208 -737 1208 -737 920 -582 c 0,10,11
 572 -395 572 -395 252 16 c 1,12,13
 150 100 150 100 105.5 260.5 c 128,-1,14
 61 421 61 421 61 580.5 c 0,15,16
 61 907.176470588 61 907.176470588 131.5 1190.58823529 c 128,-1,17
 202 1474 202 1474 348 1644 c 0,18,19
 519 1843 519 1843 766 1843 c 0,20,21
 810 1843 810 1843 855.5 1831 c 128,-1,22
 901 1819 901 1819 909 1815 c 1,23,24
 914 1807 914 1807 920 1803.5 c 128,-1,25
 926 1800 926 1800 926 1786 c 128,-1,26
 926 1772 926 1772 908.5 1756.5 c 128,-1,27
 891 1741 891 1741 870 1741 c 128,-1,28
 849 1741 849 1741 803 1755 c 128,-1,29
 757 1769 757 1769 737 1769 c 0,30,31
 560 1769 560 1769 424 1592 c 0,32,33
 234 1346 234 1346 179 878 c 0,34,35
 162 734 162 734 162 590 c 0,36,37
 162 47 162 47 467 47 c 0,38,39
 616 47 616 47 766 197 c 1,40,41
 1051 486 1051 486 1154 989 c 0,42,43
 1194 1189 1194 1189 1194 1386 c 128,-1,44
 1194 1583 1194 1583 1107 1742 c 0,45,46
 1008 1923 1008 1923 844 1923 c 0,47,48
 763 1923 763 1923 694 1903 c 1,49,50
 653 1907 653 1907 653 1937 c 0,51,52
 653 2015 653 2015 843 2015 c 128,-1,53
 1033 2015 1033 2015 1159.5 1830.5 c 128,-1,54
 1286 1646 1286 1646 1286 1454 c 0,55,56
 1286 1077.41666667 1286 1077.41666667 1186 735.208333333 c 128,-1,57
 1086 393 1086 393 895 172 c 128,-1,58
 704 -49 704 -49 444 -49 c 0,59,60
 438 -49 438 -49 433 -48 c 128,-1,61
 428 -47 428 -47 422 -47 c 1,62,63
 943 -643 943 -643 1548 -643 c 0,64,65
 1714 -643 1714 -643 1893.5 -615 c 128,-1,66
 2073 -587 2073 -587 2277 -549 c 1,0,1
EndSplineSet
EndChar

StartChar: R
Encoding: 82 82 53
Width: 948
Flags: HW
LayerCount: 2
Fore
SplineSet
334 934 m 0,0,1
 334 995 334 995 368 995 c 0,2,3
 388 995 388 995 394 989 c 128,-1,4
 400 983 400 983 416.5 970.5 c 128,-1,5
 433 958 433 958 510.5 958 c 128,-1,6
 588 958 588 958 671.5 1002 c 128,-1,7
 755 1046 755 1046 816 1120 c 0,8,9
 944 1277 944 1277 944 1493 c 0,10,11
 944 1661 944 1661 862.5 1777.5 c 128,-1,12
 781 1894 781 1894 649 1894 c 0,13,14
 544 1894 544 1894 489 1878 c 1,15,-1
 111 31 l 1,16,17
 100 -4 100 -4 54 -4 c 128,-1,18
 8 -4 8 -4 8 29 c 0,19,20
 8 38 8 38 11 49.5 c 128,-1,21
 14 61 14 61 23 106.5 c 0,22,23
 45.1785714286 218.625 45.1785714286 218.625 172.696641579 827.233971173 c 128,-1,24
 300.21471173 1435.84294235 300.21471173 1435.84294235 389 1831 c 1,25,26
 359 1812 359 1812 317 1774 c 1,27,28
 315 1752 315 1752 296 1736 c 128,-1,29
 277 1720 277 1720 252 1720 c 1,30,-1
 227 1726 l 1,31,32
 199 1739 199 1739 199 1768 c 0,33,34
 199 1824 199 1824 264.5 1871.5 c 128,-1,35
 330 1919 330 1919 428 1944 c 1,36,37
 464 2030 464 2030 494 2030 c 0,38,39
 518 2030 518 2030 530 1962 c 1,40,41
 573 1968 573 1968 612 1968 c 0,42,43
 827 1968 827 1968 937 1816 c 0,44,45
 1028 1690 1028 1690 1028 1483 c 0,46,47
 1028 1217 1028 1217 871.5 1039.5 c 128,-1,48
 715 862 715 862 434 862 c 1,49,50
 434 520 434 520 550 195 c 1,51,52
 685 -188 685 -188 960 -370 c 0,53,54
 1170 -510 1170 -510 1455 -510 c 128,-1,55
 1740 -510 1740 -510 1976 -318 c 0,56,57
 2047 -259 2047 -259 2124 -190 c 0,58,59
 2132 -182 2132 -182 2150 -182 c 0,60,61
 2187 -182 2187 -182 2187 -219 c 0,62,63
 2187 -240 2187 -240 2171 -260 c 1,64,65
 2019 -417 2019 -417 1874 -495 c 0,66,67
 1676 -602 1676 -602 1426.5 -602 c 128,-1,68
 1177 -602 1177 -602 942 -458 c 1,69,70
 518 -196 518 -196 383 424 c 0,71,72
 334 649 334 649 334 934 c 0,0,1
EndSplineSet
EndChar

StartChar: S
Encoding: 83 83 54
Width: 1147
Flags: HW
LayerCount: 2
Fore
SplineSet
862 1980 m 0,0,1
 1101 1980 1101 1980 1178 1722 c 1,2,3
 1186 1709 1186 1709 1186 1690.5 c 128,-1,4
 1186 1672 1186 1672 1168.5 1656 c 128,-1,5
 1151 1640 1151 1640 1133 1640 c 0,6,7
 1102 1640 1102 1640 1096 1678 c 0,8,9
 1082 1768 1082 1768 1020 1831 c 128,-1,10
 958 1894 958 1894 862 1894 c 128,-1,11
 766 1894 766 1894 717 1827 c 128,-1,12
 668 1760 668 1760 668 1669 c 128,-1,13
 668 1578 668 1578 692.5 1482 c 128,-1,14
 717 1386 717 1386 754 1290 c 128,-1,15
 791 1194 791 1194 833.5 1098 c 128,-1,16
 876 1002 876 1002 913 905 c 0,17,18
 999 680 999 680 999 500.5 c 128,-1,19
 999 321 999 321 900 172 c 1,20,21
 773 -23 773 -23 500 -23 c 0,22,23
 291 -23 291 -23 138.5 81 c 128,-1,24
 -14 185 -14 185 -14 379 c 128,-1,25
 -14 573 -14 573 102 714 c 0,26,27
 144 765 144 765 205 819 c 0,28,29
 225 836 225 836 243 836 c 0,30,31
 283 836 283 836 283 803 c 0,32,33
 283 786 283 786 274 772 c 1,34,35
 172 678 172 678 139 616 c 1,36,37
 84 508 84 508 84 408 c 128,-1,38
 84 308 84 308 119 248 c 128,-1,39
 154 188 154 188 212 148 c 0,40,41
 326 68 326 68 508.5 68 c 128,-1,42
 691 68 691 68 804 212 c 0,43,44
 901 335 901 335 901 512.5 c 128,-1,45
 901 690 901 690 735 1076 c 256,46,47
 569 1462 569 1462 569 1612.5 c 0,48,49
 569 1763 569 1763 641 1871.5 c 128,-1,50
 713 1980 713 1980 862 1980 c 0,0,1
EndSplineSet
EndChar

StartChar: T
Encoding: 84 84 55
Width: 1186
Flags: HW
LayerCount: 2
Fore
SplineSet
717 1862 m 1,0,1
 483 1868 483 1868 394.5 1868 c 128,-1,2
 306 1868 306 1868 203 1862 c 1,3,4
 160 1866 160 1866 160 1896 c 0,5,6
 160 1953 160 1953 264 1960 c 0,7,8
 293 1962 293 1962 322 1962 c 2,9,-1
 741 1954 l 1,10,11
 770 2040 770 2040 819 2040 c 0,12,13
 848 2040 848 2040 854 2005 c 1,14,-1
 858 1964 l 1,15,-1
 856 1954 l 1,16,17
 913 1956 913 1956 957.5 1959 c 128,-1,18
 1002 1962 1002 1962 1040.5 1964.5 c 128,-1,19
 1079 1967 1079 1967 1156 1972.5 c 128,-1,20
 1233 1978 1233 1978 1326 1978 c 2,21,-1
 1400 1978 l 2,22,23
 1413 1978 1413 1978 1427 1980 c 1,24,25
 1462 1971 1462 1971 1462 1946 c 0,26,27
 1462 1884 1462 1884 1362 1884 c 0,28,29
 1232 1884 1232 1884 1084 1874 c 128,-1,30
 936 1864 936 1864 815 1862 c 1,31,32
 781 1693 781 1693 732.333333333 1481.66666667 c 0,33,34
 683.666666667 1270.33333333 683.666666667 1270.33333333 587.833333333 785.166666667 c 128,-1,35
 492 300 492 300 440 -20 c 0,36,37
 435 -45 435 -45 417.5 -61.5 c 128,-1,38
 400 -78 400 -78 384 -78 c 0,39,40
 350 -78 350 -78 346 -35 c 1,41,42
 407 471 407 471 616 1361 c 0,43,44
 646 1491 646 1491 662 1551 c 128,-1,45
 678 1611 678 1611 683 1643 c 128,-1,46
 688 1675 688 1675 693.5 1711.5 c 128,-1,47
 699 1748 699 1748 704.5 1786.5 c 128,-1,48
 710 1825 710 1825 717 1862 c 1,0,1
EndSplineSet
EndChar

StartChar: U
Encoding: 85 85 56
Width: 1309
Flags: HW
LayerCount: 2
Fore
SplineSet
1346 1968 m 0,0,1
 1382 1968 1382 1968 1382 1933 c 0,2,3
 1382 1912 1382 1912 1360 1859.5 c 128,-1,4
 1338 1807 1338 1807 1323 1753 c 128,-1,5
 1308 1699 1308 1699 1283.5 1594 c 128,-1,6
 1259 1489 1259 1489 1232.5 1368.5 c 128,-1,7
 1206 1248 1206 1248 1178.5 1120 c 0,8,9
 1076.65934066 645.978021978 1076.65934066 645.978021978 1022.62654533 483.879635989 c 128,-1,10
 968.59375 321.78125 968.59375 321.78125 926 241 c 0,11,12
 788.073170732 -20 788.073170732 -20 476.5 -20 c 0,13,14
 308 -20 308 -20 204 96 c 128,-1,15
 100 212 100 212 100 373 c 0,16,17
 100 443 100 443 117 492 c 1,18,19
 152 690 152 690 182.5 869.5 c 128,-1,20
 213 1049 213 1049 264.5 1330.5 c 128,-1,21
 316 1612 316 1612 406 1937 c 1,22,23
 427 1968 427 1968 450 1968 c 0,24,25
 494 1968 494 1968 494 1933 c 1,26,27
 492 1921 492 1921 487.5 1908.5 c 128,-1,28
 483 1896 483 1896 479 1884 c 2,29,-1
 440 1759 l 1,30,31
 396 1546 396 1546 328.5 1171.5 c 128,-1,32
 261 797 261 797 223.5 613.745283019 c 128,-1,33
 186 430.490566038 186 430.490566038 186 352 c 0,34,35
 186 234 186 234 262 154 c 128,-1,36
 338 74 338 74 477 74 c 0,37,38
 695 74 695 74 802 206 c 0,39,40
 861 278 861 278 888 358 c 2,41,-1
 932 487 l 1,42,43
 1000 694 1000 694 1105.5 1186.5 c 128,-1,44
 1211 1679 1211 1679 1274 1888 c 0,45,46
 1285 1925 1285 1925 1306 1946.5 c 128,-1,47
 1327 1968 1327 1968 1346 1968 c 0,0,1
EndSplineSet
EndChar

StartChar: V
Encoding: 86 86 57
Width: 1094
Flags: HW
LayerCount: 2
Fore
SplineSet
162 1927 m 1,0,1
 168 1947 168 1947 185.5 1961.5 c 128,-1,2
 203 1976 203 1976 218 1976 c 0,3,4
 247 1976 247 1976 256 1942 c 1,5,6
 287 1620 287 1620 382.5 1025 c 128,-1,7
 478 430 478 430 512 143 c 1,8,9
 868 705 868 705 1010 1125 c 0,10,11
 1116 1439 1116 1439 1116 1694 c 0,12,13
 1116 1766 1116 1766 1102 1850 c 128,-1,14
 1088 1934 1088 1934 1081 1985 c 1,15,16
 1081 2011 1081 2011 1099 2029.5 c 128,-1,17
 1117 2048 1117 2048 1134 2048 c 0,18,19
 1169 2048 1169 2048 1176 2013 c 1,20,21
 1187 1939 1187 1939 1198.5 1866 c 128,-1,22
 1210 1793 1210 1793 1210 1681 c 0,23,24
 1210 1446.78846154 1210 1446.78846154 1104 1130.39423077 c 128,-1,25
 998 814 998 814 841 520.5 c 128,-1,26
 684 227 684 227 509 0 c 0,27,28
 484 -33 484 -33 463.5 -33 c 128,-1,29
 443 -33 443 -33 432 -4 c 1,30,31
 415 108 415 108 398.854304636 265.947019868 c 0,32,33
 382.708609272 423.894039735 382.708609272 423.894039735 294.854304636 994.947019868 c 128,-1,34
 207 1566 207 1566 162 1927 c 1,0,1
EndSplineSet
EndChar

StartChar: W
Encoding: 87 87 58
Width: 1559
Flags: HW
LayerCount: 2
Fore
SplineSet
928 1440 m 1,0,1
 932 1320 932 1320 932 1276 c 2,2,-1
 932 1098 l 2,3,4
 932 604 932 604 986 336 c 0,5,6
 1011 215 1011 215 1053 119 c 1,7,8
 1363 680 1363 680 1468 1050 c 0,9,10
 1546 1323 1546 1323 1546 1580 c 128,-1,11
 1546 1837 1546 1837 1406 2110 c 0,12,13
 1305 2305 1305 2305 1145 2390 c 0,14,15
 1062 2433 1062 2433 961 2433 c 0,16,17
 931 2433 931 2433 909.5 2420.5 c 128,-1,18
 888 2408 888 2408 877 2402 c 1,19,-1
 846 2308 l 1,20,21
 826 2267 826 2267 788 2267 c 0,22,23
 758 2267 758 2267 754 2308 c 1,24,25
 760 2327 760 2327 764 2347.5 c 128,-1,26
 768 2368 768 2368 774 2388 c 0,27,28
 812 2529 812 2529 990.5 2529 c 128,-1,29
 1169 2529 1169 2529 1321 2383.5 c 128,-1,30
 1473 2238 1473 2238 1559 2022 c 128,-1,31
 1645 1806 1645 1806 1645 1638.5 c 0,32,33
 1645 901.868613139 1645 901.868613139 1145 88 c 0,34,35
 1079 -20 1079 -20 1033 -20 c 128,-1,36
 987 -20 987 -20 928 188 c 1,37,38
 838 522 838 522 838 1114 c 1,39,40
 683 573 683 573 504 213 c 0,41,42
 472 150 472 150 442 90 c 0,43,44
 381 -31 381 -31 315 -31 c 0,45,46
 297 -31 297 -31 284.5 -13.5 c 128,-1,47
 272 4 272 4 272 35 c 0,48,49
 272 323 272 323 245.5 569 c 128,-1,50
 219 815 219 815 200.5 959 c 128,-1,51
 182 1103 182 1103 155.5 1345.5 c 128,-1,52
 129 1588 129 1588 129 1864 c 0,53,54
 129 1927 129 1927 154.5 1945.5 c 128,-1,55
 180 1964 180 1964 197 1964 c 0,56,57
 227 1964 227 1964 227 1927 c 1,58,-1
 217 1800 l 1,59,60
 217 1736 217 1736 225.5 1639.5 c 128,-1,61
 234 1543 234 1543 240.5 1400.5 c 128,-1,62
 247 1258 247 1258 303 819.5 c 128,-1,63
 359 381 359 381 371 143 c 1,64,65
 416 240 416 240 454.5 322.5 c 128,-1,66
 493 405 493 405 528 487 c 0,67,68
 665 809 665 809 834 1442 c 1,69,70
 831 1544 831 1544 831 1680 c 128,-1,71
 831 1816 831 1816 850.5 1884 c 128,-1,72
 870 1952 870 1952 918 1952 c 0,73,74
 975 1952 975 1952 975 1767 c 0,75,76
 975 1644 975 1644 928 1440 c 1,0,1
EndSplineSet
EndChar

StartChar: X
Encoding: 88 88 59
Width: 1286
Flags: HW
LayerCount: 2
Fore
SplineSet
395 1880 m 2,0,1
 367 1880 367 1880 367 1915 c 128,-1,2
 367 1950 367 1950 393.5 1976.5 c 128,-1,3
 420 2003 420 2003 434 2003 c 2,4,-1
 452 2003 l 2,5,6
 456 2003 456 2003 465 1999.5 c 128,-1,7
 474 1996 474 1996 497.5 1928 c 128,-1,8
 521 1860 521 1860 552 1748.5 c 128,-1,9
 583 1637 583 1637 621 1491 c 128,-1,10
 659 1345 659 1345 702 1184 c 1,11,12
 1026 1643 1026 1643 1252 1894 c 0,13,14
 1321 1970 1321 1970 1342 1976 c 128,-1,15
 1363 1982 1363 1982 1377 1982 c 128,-1,16
 1391 1982 1391 1982 1402 1973 c 128,-1,17
 1413 1964 1413 1964 1413 1949 c 0,18,19
 1413 1934 1413 1934 1386 1900 c 128,-1,20
 1359 1866 1359 1866 1223.5 1708 c 128,-1,21
 1088 1550 1088 1550 737 1055 c 1,22,23
 952 272 952 272 1083 14 c 1,24,25
 1083 -15 1083 -15 1062.5 -36 c 128,-1,26
 1042 -57 1042 -57 1019 -57 c 128,-1,27
 996 -57 996 -57 987 -43 c 1,28,29
 985 -43 985 -43 985 -45 c 1,30,31
 973 3 973 3 963 50.5 c 128,-1,32
 953 98 953 98 938 143 c 1,33,34
 813 422 813 422 662 946 c 1,35,36
 504 716 504 716 341.5 479.5 c 128,-1,37
 179 243 179 243 -4 0 c 1,38,39
 -21 -27 -21 -27 -50 -27 c 0,40,41
 -115 -27 -115 -27 -115 23 c 1,42,-1
 -113 33 l 1,43,44
 98 301 98 301 446 812 c 0,45,46
 536 944 536 944 627 1075 c 1,47,48
 571 1271 571 1271 518.5 1463 c 128,-1,49
 466 1655 466 1655 406 1841 c 1,50,-1
 397 1880 l 1,51,-1
 395 1880 l 2,0,1
EndSplineSet
EndChar

StartChar: Y
Encoding: 89 89 60
Width: 881
Flags: HW
LayerCount: 2
Fore
SplineSet
172 -61 m 1,0,1
 165 -78 165 -78 135 -78 c 0,2,3
 98 -78 98 -78 98 -41 c 0,4,5
 98 8 98 8 170 25 c 0,6,7
 210 34 210 34 247.5 42.5 c 128,-1,8
 285 51 285 51 324 59 c 1,9,10
 371 190 371 190 390 307.5 c 128,-1,11
 409 425 409 425 419 503.5 c 128,-1,12
 429 582 429 582 442 674 c 1,13,14
 354 788 354 788 216 1574 c 0,15,16
 181 1776 181 1776 162 1917 c 1,17,18
 162 1943 162 1943 177 1962.5 c 128,-1,19
 192 1982 192 1982 215 1982 c 128,-1,20
 238 1982 238 1982 260 1964 c 1,21,22
 268 1953 268 1953 268 1936.5 c 128,-1,23
 268 1920 268 1920 258 1907 c 1,24,25
 270 1821 270 1821 283 1725 c 0,26,27
 371.869151023 1068.73550014 371.869151023 1068.73550014 489 778 c 1,28,29
 535.058823529 879.56561086 535.058823529 879.56561086 639.029411765 1151.28280543 c 128,-1,30
 743 1423 743 1423 839.5 1615.5 c 128,-1,31
 936 1808 936 1808 1065 1964 c 0,32,33
 1078 1980 1078 1980 1100 1980 c 0,34,35
 1141 1980 1141 1980 1141 1946 c 0,36,37
 1141 1924 1141 1924 1124 1905 c 0,38,39
 958 1727 958 1727 785 1286 c 0,40,41
 738 1167 738 1167 662.5 967 c 128,-1,42
 587 767 587 767 551 696 c 1,43,44
 520 576 520 576 484 383 c 128,-1,45
 448 190 448 190 418 74 c 1,46,47
 470 80 470 80 520 80 c 0,48,49
 719 80 719 80 719 25 c 0,50,51
 719 3 719 3 698.5 -14 c 128,-1,52
 678 -31 678 -31 653 -31 c 1,53,54
 590.396226415 -14.358490566 590.396226415 -14.358490566 490.79245283 -14.358490566 c 128,-1,55
 391.188679245 -14.358490566 391.188679245 -14.358490566 290.594339623 -38.679245283 c 128,-1,56
 190 -63 190 -63 178 -63 c 2,57,-1
 172 -63 l 1,58,-1
 172 -61 l 1,0,1
EndSplineSet
EndChar

StartChar: Z
Encoding: 90 90 61
Width: 981
Flags: HW
LayerCount: 2
Fore
SplineSet
1247 1952 m 0,0,1
 1247 1932 1247 1932 1239 1919 c 0,2,3
 689 1046 689 1046 41 150 c 1,4,5
 65 158 65 158 121.5 158 c 0,6,7
 221.956521739 158 221.956521739 158 408.47826087 -25.5 c 128,-1,8
 595 -209 595 -209 779 -309.5 c 128,-1,9
 963 -410 963 -410 1148 -410 c 128,-1,10
 1333 -410 1333 -410 1495 -309 c 0,11,12
 1516 -296 1516 -296 1542.5 -274 c 128,-1,13
 1569 -252 1569 -252 1614.5 -215 c 128,-1,14
 1660 -178 1660 -178 1690 -178 c 128,-1,15
 1720 -178 1720 -178 1720 -211 c 128,-1,16
 1720 -244 1720 -244 1670 -287 c 0,17,18
 1583 -360 1583 -360 1526 -389 c 1,19,20
 1280 -508 1280 -508 1108 -508 c 0,21,22
 860 -508 860 -508 557 -286 c 0,23,24
 397 -168 397 -168 343 -109.5 c 128,-1,25
 289 -51 289 -51 250 -16 c 0,26,27
 155 68 155 68 68 68 c 0,28,29
 34 68 34 68 -10.5 42 c 128,-1,30
 -55 16 -55 16 -76.5 4 c 128,-1,31
 -98 -8 -98 -8 -115 -8 c 0,32,33
 -152 -8 -152 -8 -152 29 c 0,34,35
 -152 45 -152 45 -139 66 c 1,36,37
 -9 256 -9 256 146 466.5 c 128,-1,38
 301 677 301 677 466 906 c 0,39,40
 873 1473 873 1473 1112 1894 c 1,41,-1
 1067 1890 l 1,42,43
 799 1870 799 1870 506 1870 c 2,44,-1
 356 1870 l 2,45,46
 234 1870 234 1870 166 1882 c 1,47,48
 137 1893 137 1893 137 1922 c 128,-1,49
 137 1951 137 1951 174 1969 c 0,50,51
 185 1974 185 1974 197 1974 c 2,52,-1
 535 1962 l 1,53,54
 800 1962 800 1962 939.5 1977.5 c 128,-1,55
 1079 1993 1079 1993 1163 1993 c 128,-1,56
 1247 1993 1247 1993 1247 1952 c 0,0,1
EndSplineSet
EndChar

StartChar: bracketleft
Encoding: 91 91 62
Width: 588
Flags: HW
LayerCount: 2
Fore
SplineSet
766 1853 m 1,0,1
 752 1853 752 1853 541 1872 c 1,2,3
 298 731 298 731 228 383.5 c 128,-1,4
 158 36 158 36 118.5 -157.5 c 128,-1,5
 79 -351 79 -351 57 -543 c 1,6,7
 70 -549 70 -549 113 -549 c 128,-1,8
 156 -549 156 -549 293 -515 c 128,-1,9
 430 -481 430 -481 457.5 -481 c 128,-1,10
 485 -481 485 -481 485 -504 c 1,11,12
 483 -521 483 -521 466.5 -543 c 128,-1,13
 450 -565 450 -565 416.5 -574 c 128,-1,14
 383 -583 383 -583 279.083333333 -612 c 0,15,16
 175.166666667 -641 175.166666667 -641 104.083333333 -641 c 128,-1,17
 33 -641 33 -641 -1.5 -633.5 c 128,-1,18
 -36 -626 -36 -626 -45 -598 c 1,19,20
 -23 -394 -23 -394 18 -192 c 0,21,22
 245 946 245 946 461 1929 c 1,23,24
 470 1949 470 1949 491 1963.5 c 128,-1,25
 512 1978 512 1978 528 1978 c 128,-1,26
 544 1978 544 1978 549 1968 c 1,27,28
 614 1965 614 1965 675 1957.5 c 128,-1,29
 736 1950 736 1950 801 1948 c 1,30,31
 827 1943 827 1943 827 1916.5 c 128,-1,32
 827 1890 827 1890 789 1864 c 0,33,34
 778 1857 778 1857 766 1853 c 1,0,1
EndSplineSet
EndChar

StartChar: backslash
Encoding: 92 92 63
Width: 815
Flags: HW
LayerCount: 2
Fore
SplineSet
997 -922 m 1,0,1
 956 -915 956 -915 935 -890 c 128,-1,2
 914 -865 914 -865 898 -828 c 128,-1,3
 882 -791 882 -791 871 -746.5 c 128,-1,4
 860 -702 860 -702 851 -659.5 c 128,-1,5
 842 -617 842 -617 834.5 -580 c 128,-1,6
 827 -543 827 -543 797 -462 c 128,-1,7
 767 -381 767 -381 704.5 -247 c 128,-1,8
 642 -113 642 -113 504 202.5 c 128,-1,9
 366 518 366 518 291 709 c 1,10,-1
 106 1167 l 2,11,12
 75.2033898305 1243.3220339 75.2033898305 1243.3220339 1.10169491525 1437.66101695 c 128,-1,13
 -73 1632 -73 1632 -131 1783.5 c 128,-1,14
 -189 1935 -189 1935 -212.5 1991 c 128,-1,15
 -236 2047 -236 2047 -236 2054 c 0,16,17
 -236 2089 -236 2089 -197.5 2089 c 128,-1,18
 -159 2089 -159 2089 -143 2050 c 0,19,20
 -45 1805 -45 1805 198 1180 c 128,-1,21
 441 555 441 555 582.5 239.5 c 128,-1,22
 724 -76 724 -76 829 -314 c 128,-1,23
 934 -552 934 -552 950 -648 c 0,24,25
 956 -679 956 -679 964.5 -732.5 c 128,-1,26
 973 -786 973 -786 997 -834 c 1,27,28
 1034 -855 1034 -855 1034 -888.5 c 128,-1,29
 1034 -922 1034 -922 997 -922 c 1,0,1
EndSplineSet
EndChar

StartChar: bracketright
Encoding: 93 93 64
Width: 674
Flags: HW
LayerCount: 2
Fore
SplineSet
-25 -356 m 0,0,1
 -61 -356 -61 -356 -61 -319 c 0,2,3
 -61 -290 -61 -290 -8 -235.5 c 128,-1,4
 45 -181 45 -181 77 -150 c 0,5,6
 180 -50 180 -50 258 97 c 0,7,8
 465 484 465 484 465 886.5 c 128,-1,9
 465 1289 465 1289 272 1651 c 0,10,11
 255 1683 255 1683 210.5 1764.5 c 128,-1,12
 166 1846 166 1846 145 1919 c 1,13,14
 145 1944 145 1944 162 1964.5 c 128,-1,15
 179 1985 179 1985 199.5 1985 c 128,-1,16
 220 1985 220 1985 236 1962 c 1,17,18
 258 1885 258 1885 331 1759 c 128,-1,19
 404 1633 404 1633 428 1564 c 0,20,21
 500 1359 500 1359 531.015384615 1233.95384615 c 0,22,23
 562.030769231 1108.90769231 562.030769231 1108.90769231 562.030769231 970.784852071 c 0,24,25
 562.030769231 966.4 562.030769231 966.4 562 962 c 0,26,27
 562 698 562 698 502 459 c 128,-1,28
 442 220 442 220 335.5 60 c 128,-1,29
 229 -100 229 -100 201 -134.5 c 128,-1,30
 173 -169 173 -169 150 -194 c 128,-1,31
 127 -219 127 -219 94 -254 c 128,-1,32
 61 -289 61 -289 10 -344 c 1,33,34
 -8 -356 -8 -356 -25 -356 c 0,0,1
EndSplineSet
EndChar

StartChar: asciicircum
Encoding: 94 94 65
Width: 1067
Flags: HW
LayerCount: 2
Fore
SplineSet
905 2554 m 0,0,1
 905 2545 905 2545 901 2531 c 1,2,-1
 879 2490 l 2,3,4
 877 2486 877 2486 877 2480 c 1,5,6
 890 2435 890 2435 905 2381 c 128,-1,7
 920 2327 920 2327 950 2232.5 c 0,8,9
 980 2138 980 2138 1032 2057 c 1,10,11
 1098 1951 1098 1951 1182 1921 c 1,12,13
 1198 1908 1198 1908 1198 1889.5 c 0,14,15
 1198 1871 1198 1871 1172.5 1851 c 128,-1,16
 1147 1831 1147 1831 1120 1831 c 1,17,18
 984 1882 984 1882 900 2076 c 0,19,20
 877 2130 877 2130 855.5 2182 c 128,-1,21
 834 2234 834 2234 811.5 2285 c 128,-1,22
 789 2336 789 2336 782 2390 c 1,23,-1
 721 2324 l 2,24,25
 673 2271 673 2271 620 2210 c 0,26,27
 412 1971 412 1971 254 1907 c 0,28,29
 242 1903 242 1903 231 1903 c 0,30,31
 205 1903 205 1903 205 1927 c 0,32,33
 205 1973 205 1973 264 1996 c 1,34,35
 385 2046 385 2046 708 2423 c 0,36,37
 746 2468 746 2468 774 2499 c 2,38,-1
 815 2544 l 1,39,40
 815 2546 815 2546 828.5 2563 c 128,-1,41
 842 2580 842 2580 873.5 2580 c 128,-1,42
 905 2580 905 2580 905 2554 c 0,0,1
EndSplineSet
EndChar

StartChar: underscore
Encoding: 95 95 66
Width: 1335
Flags: HW
LayerCount: 2
Fore
SplineSet
176 -86 m 1,0,1
 -18 -86 -18 -86 -18 -39 c 0,2,3
 -18 -12 -18 -12 0.5 6.5 c 128,-1,4
 19 25 19 25 47.5 25 c 128,-1,5
 76 25 76 25 113 16.5 c 128,-1,6
 150 8 150 8 194 8 c 128,-1,7
 238 8 238 8 286 11 c 128,-1,8
 334 14 334 14 429.5 17.5 c 128,-1,9
 525 21 525 21 832.5 21 c 128,-1,10
 1140 21 1140 21 1315 33 c 1,11,12
 1350 23 1350 23 1350 -2 c 0,13,14
 1350 -21 1350 -21 1335 -38 c 128,-1,15
 1320 -55 1320 -55 1300 -61 c 1,16,17
 1146 -72 1146 -72 856 -72 c 1,18,-1
 176 -86 l 1,0,1
EndSplineSet
EndChar

StartChar: grave
Encoding: 96 96 67
Width: 567
Flags: HW
LayerCount: 2
Fore
SplineSet
113 2494 m 1,0,1
 113 2520 113 2520 130.5 2539 c 128,-1,2
 148 2558 148 2558 165 2558 c 0,3,4
 201 2558 201 2558 207 2523 c 0,5,6
 229 2401 229 2401 389 2195 c 0,7,8
 397 2185 397 2185 397 2165.5 c 128,-1,9
 397 2146 397 2146 380.5 2128.5 c 128,-1,10
 364 2111 364 2111 345.5 2111 c 128,-1,11
 327 2111 327 2111 311 2126 c 1,12,13
 145 2342 145 2342 113 2494 c 1,0,1
EndSplineSet
EndChar

StartChar: a
Encoding: 97 97 68
Width: 920
Flags: HW
LayerCount: 2
Fore
SplineSet
150 0 m 0,0,1
 33 0 33 0 33 147 c 128,-1,2
 33 294 33 294 142.5 507.5 c 128,-1,3
 252 721 252 721 400 876.5 c 128,-1,4
 548 1032 548 1032 641.5 1032 c 128,-1,5
 735 1032 735 1032 748 950 c 0,6,7
 752 925 752 925 754 897 c 1,8,9
 763 903 763 903 776 903 c 0,10,11
 823 903 823 903 823 858 c 2,12,-1
 823 850 l 2,13,14
 823 847 823 847 798 760 c 128,-1,15
 773 673 773 673 741 470 c 128,-1,16
 709 267 709 267 709 123 c 1,17,18
 718 117 718 117 730 109.5 c 128,-1,19
 742 102 742 102 760 86.5 c 128,-1,20
 778 71 778 71 778 50 c 128,-1,21
 778 29 778 29 765 12.5 c 128,-1,22
 752 -4 752 -4 728 -4 c 0,23,24
 679 -4 679 -4 639.5 46 c 128,-1,25
 600 96 600 96 600 154 c 0,26,27
 600 279.259259259 600 279.259259259 668 584 c 1,28,29
 583 406 583 406 448 241 c 128,-1,30
 313 76 313 76 261.5 38 c 128,-1,31
 210 0 210 0 150 0 c 0,0,1
135 143 m 0,32,33
 135 106 135 106 166 106 c 0,34,35
 188 106 188 106 203 121 c 1,36,37
 410 299 410 299 574 614 c 0,38,39
 667 794 667 794 672.5 821 c 128,-1,40
 678 848 678 848 678 867 c 128,-1,41
 678 886 678 886 668 903 c 128,-1,42
 658 920 658 920 640 920 c 128,-1,43
 622 920 622 920 587 901 c 0,44,45
 509.810188989 859.096959737 509.810188989 859.096959737 397.405094495 722.048479869 c 128,-1,46
 285 585 285 585 210 424 c 128,-1,47
 135 263 135 263 135 143 c 0,32,33
EndSplineSet
EndChar

StartChar: b
Encoding: 98 98 69
Width: 805
Flags: HW
LayerCount: 2
Fore
SplineSet
530 1921 m 1,0,-1
 526 1907 l 1,1,2
 473 1559 473 1559 411.5 1281 c 128,-1,3
 350 1003 350 1003 303 776 c 1,4,5
 366 889 366 889 409 936 c 0,6,7
 495 1030 495 1030 576 1030 c 128,-1,8
 657 1030 657 1030 700 968 c 128,-1,9
 743 906 743 906 743 837.5 c 0,10,11
 743 689.727272727 743 689.727272727 696.5 486.363636364 c 128,-1,12
 650 283 650 283 569 149 c 0,13,14
 468 -20 468 -20 338 -20 c 0,15,16
 244 -20 244 -20 198 64 c 128,-1,17
 152 148 152 148 152 258 c 128,-1,18
 152 368 152 368 167.5 470 c 128,-1,19
 183 572 183 572 201 686 c 128,-1,20
 219 800 219 800 235.5 894.5 c 128,-1,21
 252 989 252 989 267 1069 c 128,-1,22
 282 1149 282 1149 297.5 1224.5 c 128,-1,23
 313 1300 313 1300 353 1493.5 c 128,-1,24
 393 1687 393 1687 436 1933 c 1,25,26
 453 1966 453 1966 477 1966 c 0,27,28
 530 1966 530 1966 530 1921 c 1,0,-1
256 258 m 0,29,30
 256 84 256 84 338 84 c 0,31,32
 413 84 413 84 486 206 c 0,33,34
 585 371 585 371 624 615 c 0,35,36
 635 684 635 684 635 761.5 c 128,-1,37
 635 839 635 839 621 884.5 c 128,-1,38
 607 930 607 930 563 930 c 0,39,40
 498 930 498 930 392 777 c 128,-1,41
 286 624 286 624 271 475.5 c 128,-1,42
 256 327 256 327 256 258 c 0,29,30
EndSplineSet
EndChar

StartChar: c
Encoding: 99 99 70
Width: 694
Flags: HW
LayerCount: 2
Fore
SplineSet
162 258 m 0,0,1
 162 76 162 76 295 76 c 0,2,3
 361 76 361 76 419 140 c 0,4,5
 441 165 441 165 460 185 c 128,-1,6
 479 205 479 205 499 205 c 0,7,8
 539 205 539 205 539 170 c 0,9,10
 539 106 539 106 457 40.5 c 128,-1,11
 375 -25 375 -25 271.5 -25 c 128,-1,12
 168 -25 168 -25 114.5 51.5 c 128,-1,13
 61 128 61 128 61 224.5 c 0,14,15
 61 403.387096774 61 403.387096774 127.5 595.193548387 c 128,-1,16
 194 787 194 787 302.5 917 c 128,-1,17
 411 1047 411 1047 532 1047 c 0,18,19
 620 1047 620 1047 648 984 c 0,20,21
 655 967 655 967 664.5 940.5 c 128,-1,22
 674 914 674 914 686 907 c 1,23,24
 694 894 694 894 694 875.5 c 128,-1,25
 694 857 694 857 677 841 c 128,-1,26
 660 825 660 825 639 825 c 0,27,28
 595.8125 825 595.8125 825 583.90625 888.5 c 128,-1,29
 572 952 572 952 517 952 c 0,30,31
 440 952 440 952 357.5 835 c 128,-1,32
 275 718 275 718 218.5 551 c 128,-1,33
 162 384 162 384 162 258 c 0,0,1
EndSplineSet
EndChar

StartChar: d
Encoding: 100 100 71
Width: 899
Flags: HW
LayerCount: 2
Fore
SplineSet
676 942 m 1,0,-1
 774 1372 l 2,1,2
 784 1418 784 1418 822.5 1609.5 c 128,-1,3
 861 1801 861 1801 879 1876 c 1,4,-1
 883 1901 l 1,5,6
 883 1927 883 1927 900.5 1945.5 c 128,-1,7
 918 1964 918 1964 937 1964 c 0,8,9
 981 1964 981 1964 981 1917 c 2,10,-1
 981 1908 l 2,11,12
 981 1859 981 1859 910.5 1535 c 128,-1,13
 840 1211 840 1211 819 1079 c 128,-1,14
 798 947 798 947 739.5 710 c 128,-1,15
 681 473 681 473 666 390 c 128,-1,16
 651 307 651 307 637 249.5 c 128,-1,17
 623 192 623 192 623 135 c 128,-1,18
 623 78 623 78 641 20 c 1,19,20
 638 -4 638 -4 619 -20.5 c 128,-1,21
 600 -37 600 -37 584 -37 c 0,22,23
 558 -37 558 -37 539 24.5 c 128,-1,24
 520 86 520 86 520 127.5 c 128,-1,25
 520 169 520 169 532 225 c 1,26,27
 491 101 491 101 426 41.5 c 128,-1,28
 361 -18 361 -18 255.5 -18 c 128,-1,29
 150 -18 150 -18 105.5 68.5 c 128,-1,30
 61 155 61 155 61 238 c 0,31,32
 61 543.907407407 61 543.907407407 177 755.5 c 0,33,34
 231 854 231 854 272.5 901 c 128,-1,35
 314 948 314 948 379 991 c 128,-1,36
 444 1034 444 1034 539 1034 c 128,-1,37
 634 1034 634 1034 676 942 c 1,0,-1
622.5 724.5 m 128,-1,39
 627 747 627 747 627 798.5 c 128,-1,40
 627 850 627 850 597 899 c 128,-1,41
 567 948 567 948 512.5 948 c 0,42,43
 414.254237288 948 414.254237288 948 332.627118644 824.5 c 128,-1,44
 251 701 251 701 202.5 536.5 c 128,-1,45
 154 372 154 372 154 259 c 128,-1,46
 154 146 154 146 218 98 c 0,47,48
 239 82 239 82 274 82 c 0,49,50
 345 82 345 82 426 203 c 128,-1,51
 507 324 507 324 547 431.5 c 128,-1,52
 587 539 587 539 602.5 620.5 c 128,-1,38
 618 702 618 702 622.5 724.5 c 128,-1,39
EndSplineSet
EndChar

StartChar: e
Encoding: 101 101 72
Width: 664
Flags: HW
LayerCount: 2
Fore
SplineSet
518 168 m 0,0,1
 553 168 553 168 553 131 c 0,2,3
 553 88 553 88 448 34 c 128,-1,4
 343 -20 343 -20 273 -20 c 128,-1,5
 203 -20 203 -20 168 3 c 128,-1,6
 133 26 133 26 111 67 c 0,7,8
 68 147 68 147 68 259.5 c 0,9,10
 68 460.137931034 68 460.137931034 128 637.068965517 c 128,-1,11
 188 814 188 814 288 930.5 c 128,-1,12
 388 1047 388 1047 504 1047 c 0,13,14
 566 1047 566 1047 601.5 995.5 c 128,-1,15
 637 944 637 944 637 873.5 c 0,16,17
 637 742.571428571 637 742.571428571 568.5 651.785714286 c 128,-1,18
 500 561 500 561 400 503 c 128,-1,19
 300 445 300 445 170 393 c 1,20,-1
 166 246 l 1,21,22
 166 74 166 74 270 74 c 0,23,24
 326 74 326 74 387.5 106.5 c 128,-1,25
 449 139 449 139 476 153.5 c 128,-1,26
 503 168 503 168 518 168 c 0,0,1
543 870 m 0,27,28
 543 950 543 950 476 950 c 0,29,30
 416 950 416 950 335 842 c 128,-1,31
 254 734 254 734 201 557 c 0,32,33
 188 514 188 514 186 492 c 1,34,35
 226 514 226 514 268 534 c 128,-1,36
 310 554 310 554 350 576 c 0,37,38
 442 627 442 627 492.5 695.5 c 128,-1,39
 543 764 543 764 543 870 c 0,27,28
EndSplineSet
EndChar

StartChar: f
Encoding: 102 102 73
Width: 700
Flags: HW
LayerCount: 2
Fore
SplineSet
206 936 m 2,0,-1
 70 930 l 1,1,2
 29 933 29 933 29 967 c 0,3,4
 29 1020 29 1020 145 1023 c 0,5,6
 182 1024 182 1024 227 1024 c 2,7,-1
 281 1024 l 1,8,9
 337 1255 337 1255 371 1350 c 0,10,11
 440 1544 440 1544 538.5 1646.5 c 128,-1,12
 637 1749 637 1749 807 1749 c 128,-1,13
 977 1749 977 1749 977 1688 c 0,14,15
 977 1655 977 1655 936 1628 c 1,16,17
 796 1638 796 1638 772 1638 c 0,18,19
 623 1638 623 1638 521.5 1461.5 c 128,-1,20
 420 1285 420 1285 381 1024 c 1,21,22
 447 1022 447 1022 468 1022 c 2,23,-1
 513 1023 l 1,24,-1
 594 1024 l 1,25,-1
 616 1024 l 2,26,27
 626 1024 626 1024 641 1022 c 1,28,29
 698 1022 698 1022 698 983 c 0,30,31
 698 933 698 933 600 929 c 0,32,33
 573 928 573 928 542 928 c 2,34,-1
 468 928 l 2,35,36
 426 928 426 928 360 930 c 1,37,38
 321 715 321 715 296.5 549.5 c 128,-1,39
 272 384 272 384 260.5 315.5 c 128,-1,40
 249 247 249 247 236.5 148.5 c 128,-1,41
 224 50 224 50 196.692082111 -119.82111437 c 0,42,43
 126.293463781 -557.612522111 126.293463781 -557.612522111 -88.5 -733.5 c 0,44,45
 -221 -842 -221 -842 -440 -842 c 0,46,47
 -595 -842 -595 -842 -724 -768 c 0,48,49
 -775 -738 -775 -738 -803 -709 c 128,-1,50
 -831 -680 -831 -680 -831 -663 c 128,-1,51
 -831 -646 -831 -646 -813 -632 c 128,-1,52
 -795 -618 -795 -618 -772 -618 c 1,53,-1
 -760 -621 l 1,54,55
 -646 -703 -646 -703 -587 -723 c 128,-1,56
 -528 -743 -528 -743 -432 -743 c 128,-1,57
 -336 -743 -336 -743 -260.5 -711 c 128,-1,58
 -185 -679 -185 -679 -128.5 -624 c 128,-1,59
 -72 -569 -72 -569 -31 -494.5 c 128,-1,60
 10 -420 10 -420 38.5 -335.5 c 128,-1,61
 67 -251 67 -251 86.5 -160.5 c 128,-1,62
 106 -70 106 -70 120.5 18 c 128,-1,63
 135 106 135 106 146.5 187 c 128,-1,64
 158 268 158 268 172 334 c 1,65,66
 194 483 194 483 214 635 c 128,-1,67
 234 787 234 787 260 934 c 1,68,69
 228 936 228 936 206 936 c 2,0,-1
EndSplineSet
EndChar

StartChar: g
Encoding: 103 103 74
Width: 778
Flags: HW
LayerCount: 2
Fore
SplineSet
715 1016 m 0,0,1
 748 1016 748 1016 748 982.5 c 128,-1,2
 748 949 748 949 736 917 c 128,-1,3
 724 885 724 885 710.5 834.5 c 128,-1,4
 697 784 697 784 672 680 c 128,-1,5
 647 576 647 576 623 469.5 c 128,-1,6
 599 363 599 363 576.5 257 c 128,-1,7
 554 151 554 151 532 53 c 1,8,9
 570 79 570 79 607.5 113 c 128,-1,10
 645 147 645 147 670.5 167.5 c 128,-1,11
 696 188 696 188 714 188 c 0,12,13
 752 188 752 188 752 154 c 0,14,15
 752 127 752 127 735 113 c 0,16,17
 608 16 608 16 520 -47 c 1,18,-1
 461 -348 l 2,19,20
 401 -653 401 -653 308 -758 c 1,21,22
 234 -840 234 -840 136.5 -840 c 128,-1,23
 39 -840 39 -840 -27.5 -773.5 c 128,-1,24
 -94 -707 -94 -707 -94 -596 c 0,25,26
 -94 -436 -94 -436 71 -292 c 0,27,28
 138 -234 138 -234 251.5 -151 c 128,-1,29
 365 -68 365 -68 430 -14 c 1,30,31
 439 31 439 31 451.5 84.5 c 128,-1,32
 464 138 464 138 474 182 c 128,-1,33
 484 226 484 226 494 269 c 128,-1,34
 504 312 504 312 512.5 351 c 128,-1,35
 521 390 521 390 528 418 c 1,36,37
 473 241 473 241 414 150.5 c 0,38,39
 305.453038674 -16 305.453038674 -16 229.726519337 -16 c 128,-1,40
 154 -16 154 -16 107.5 41 c 128,-1,41
 61 98 61 98 61 193 c 0,42,43
 61 368.096774194 61 368.096774194 127 563.548387097 c 128,-1,44
 193 759 193 759 309 900.5 c 128,-1,45
 425 1042 425 1042 563 1042 c 0,46,47
 633 1042 633 1042 688 1010 c 1,48,49
 700 1016 700 1016 715 1016 c 0,0,1
154 227.5 m 128,-1,51
 154 82 154 82 230 82 c 0,52,53
 297 82 297 82 384.5 211 c 128,-1,54
 472 340 472 340 524.5 519.5 c 128,-1,55
 577 699 577 699 604 798.5 c 128,-1,56
 631 898 631 898 641 934 c 1,57,58
 609 961 609 961 562.5 961 c 0,59,60
 471.105263158 961 471.105263158 961 376.052631579 842 c 128,-1,61
 281 723 281 723 217.5 548 c 128,-1,50
 154 373 154 373 154 227.5 c 128,-1,51
414 -125 m 1,62,63
 339 -187 339 -187 265.5 -242.5 c 128,-1,64
 192 -298 192 -298 134 -353 c 0,65,66
 6 -476 6 -476 6 -585.5 c 128,-1,67
 6 -695 6 -695 54 -724 c 0,68,69
 75 -737 75 -737 118 -737 c 0,70,71
 206 -737 206 -737 266.5 -641.5 c 128,-1,72
 327 -546 327 -546 383 -287 c 1,73,-1
 414 -125 l 1,62,63
EndSplineSet
EndChar

StartChar: h
Encoding: 104 104 75
Width: 958
Flags: HW
LayerCount: 2
Fore
SplineSet
193 31 m 1,0,1
 193 -16 193 -16 117 -16 c 0,2,3
 81.9073790836 -16 81.9073790836 -16 81.9073790836 18.166921002 c 0,4,5
 81.9073790836 52.3338420039 81.9073790836 52.3338420039 282 970 c 1,6,7
 431 1673 431 1673 471 1919 c 1,8,-1
 479 1946 l 2,9,10
 488 1976 488 1976 515 1976 c 0,11,12
 566 1976 566 1976 580 1925 c 1,13,14
 572 1887 572 1887 558.5 1819 c 128,-1,15
 545 1751 545 1751 527 1664 c 128,-1,16
 509 1577 509 1577 488 1476 c 128,-1,17
 467 1375 467 1375 445 1271 c 128,-1,18
 423 1167 423 1167 378 953 c 128,-1,19
 333 739 333 739 301 594 c 1,20,21
 510 1024 510 1024 696 1024 c 0,22,23
 772 1024 772 1024 809 964.5 c 128,-1,24
 846 905 846 905 846 833 c 128,-1,25
 846 761 846 761 820 632 c 2,26,-1
 786 460 l 2,27,28
 730.396694215 177.190082645 730.396694215 177.190082645 730.396694215 121.84823441 c 1,29,-1
 733 44 l 2,30,31
 733 18 733 18 715.5 2 c 128,-1,32
 698 -14 698 -14 669 -14 c 128,-1,33
 640 -14 640 -14 626.666666667 6.41666666667 c 0,34,35
 613.333333333 26.8333333333 613.333333333 26.8333333333 613.333333333 45.9166666667 c 0,36,37
 613.333333333 65 613.333333333 65 616 80 c 2,38,-1
 735 745 l 2,39,40
 741 777 741 777 741 819 c 0,41,42
 741 922 741 922 684 922 c 0,43,44
 576 922 576 922 390 599 c 0,45,46
 285 416 285 416 261 345.5 c 128,-1,47
 237 275 237 275 213.923076923 183.653846154 c 0,48,49
 190.846153846 92.3076923077 190.846153846 92.3076923077 190.846153846 66.3905325444 c 1,50,-1
 193 31 l 1,0,1
EndSplineSet
EndChar

StartChar: i
Encoding: 105 105 76
Width: 438
Flags: HW
LayerCount: 2
Fore
SplineSet
383 1376 m 0,0,1
 442 1376 442 1376 442 1317 c 0,2,3
 442 1231 442 1231 382 1220 c 0,4,5
 365 1217 365 1217 345 1217 c 128,-1,6
 325 1217 325 1217 305 1237 c 128,-1,7
 285 1257 285 1257 285 1288.5 c 0,8,9
 285 1320 285 1320 316 1348 c 128,-1,10
 347 1376 347 1376 383 1376 c 0,0,1
242 909 m 2,11,-1
 242 929 l 2,12,13
 242 943 242 943 227 997 c 1,14,15
 227 1022 227 1022 244 1042.5 c 128,-1,16
 261 1063 261 1063 285.5 1063 c 0,17,18
 310 1063 310 1063 326 1032 c 128,-1,19
 342 1001 342 1001 342 964 c 0,20,21
 342 927 342 927 248 522 c 128,-1,22
 154 117 154 117 154 95.5 c 128,-1,23
 154 74 154 74 174 74 c 0,24,25
 187 74 187 74 211 99.5 c 128,-1,26
 235 125 235 125 252 125 c 0,27,28
 285 125 285 125 285 83.5 c 128,-1,29
 285 42 285 42 223 11 c 128,-1,30
 161 -20 161 -20 133 -20 c 0,31,32
 63 -20 63 -20 63 92 c 0,33,34
 63 115 63 115 72.5 143.5 c 128,-1,35
 82 172 82 172 92.5 222.5 c 128,-1,36
 103 273 103 273 122.5 360 c 128,-1,37
 142 447 142 447 162.5 540 c 128,-1,38
 183 633 183 633 212.5 765.5 c 128,-1,39
 242 898 242 898 242 909 c 2,11,-1
EndSplineSet
EndChar

StartChar: j
Encoding: 106 106 77
Width: 412
Flags: HW
LayerCount: 2
Fore
SplineSet
412.5 1338 m 128,-1,1
 432 1312 432 1312 432 1279 c 128,-1,2
 432 1246 432 1246 405.5 1228 c 128,-1,3
 379 1210 379 1210 350 1210 c 0,4,5
 321 1210 321 1210 300 1237 c 128,-1,6
 279 1264 279 1264 279 1292.5 c 0,7,8
 279 1321 279 1321 299 1342.5 c 128,-1,9
 319 1364 319 1364 356 1364 c 128,-1,0
 393 1364 393 1364 412.5 1338 c 128,-1,1
-633 -719 m 1,10,11
 -567 -745 -567 -745 -458 -745 c 0,12,13
 -59 -745 -59 -745 41 -221 c 0,14,15
 189 561 189 561 248 993 c 1,16,17
 253 1016 253 1016 270.5 1028 c 128,-1,18
 288 1040 288 1040 305 1040 c 0,19,20
 340 1040 340 1040 340 1004 c 1,21,22
 296 696 l 1,23,24
 185 -98 185 -98 86 -402 c 0,25,26
 3 -656 3 -656 -161 -763 c 0,27,28
 -291 -848 -291 -848 -477 -848 c 0,29,30
 -588 -848 -588 -848 -661 -808 c 0,31,32
 -684 -796 -684 -796 -684 -778 c 128,-1,33
 -684 -760 -684 -760 -668.5 -742 c 128,-1,34
 -653 -724 -653 -724 -633 -719 c 1,10,11
EndSplineSet
EndChar

StartChar: k
Encoding: 107 107 78
Width: 893
Flags: HW
LayerCount: 2
Fore
SplineSet
807 201 m 0,0,1
 860 201 860 201 860 133.5 c 0,2,3
 860 94 860 94 826 55 c 0,4,5
 759 -20 759 -20 689 -20 c 0,6,7
 571.324324324 -20 571.324324324 -20 480.892145126 55.1908006814 c 128,-1,8
 390.459965928 130.381601363 390.459965928 130.381601363 333.229982964 235.190800681 c 128,-1,9
 276 340 276 340 263 413 c 1,10,-1
 258 410 l 1,11,12
 251 358 251 358 214 207.5 c 128,-1,13
 177 57 177 57 171 27 c 0,14,15
 161 -25 161 -25 123 -25 c 0,16,17
 92 -25 92 -25 79 -14 c 128,-1,18
 66 -3 66 -3 66 4 c 2,19,-1
 66 12 l 2,20,21
 66 70.2448979592 66 70.2448979592 158.5 459.12244898 c 128,-1,22
 251 848 251 848 274.5 949.5 c 0,23,24
 388.663930468 1442.59101883 388.663930468 1442.59101883 429.987928537 1686.10743602 c 128,-1,25
 471.311926606 1929.62385321 471.311926606 1929.62385321 481.655963303 1951.81192661 c 128,-1,26
 492 1974 492 1974 506 1974 c 0,27,28
 572.359675007 1974 572.359675007 1974 572.359675007 1906.16500985 c 0,29,30
 572.359675007 1882.43844613 572.359675007 1882.43844613 548.679837504 1769.21922306 c 128,-1,31
 525 1656 525 1656 504.375 1556.3125 c 128,-1,32
 483.75 1456.625 483.75 1456.625 436.875 1241.3125 c 128,-1,33
 390 1026 390 1026 375 956 c 1,34,35
 459 1044 459 1044 541 1044 c 128,-1,36
 623 1044 623 1044 653.5 987.5 c 128,-1,37
 684 931 684 931 684 867 c 0,38,39
 684 746.266666667 684 746.266666667 599 655.133333333 c 128,-1,40
 514 564 514 564 342 460 c 1,41,42
 370 306 370 306 471 191 c 128,-1,43
 572 76 572 76 680 76 c 0,44,45
 730 76 730 76 754 123 c 0,46,47
 765 143 765 143 775 172 c 128,-1,48
 785 201 785 201 807 201 c 0,0,1
518 950 m 0,49,50
 440 950 440 950 383.5 880.5 c 128,-1,51
 327 811 327 811 301 669 c 0,52,53
 295.8 640.4 295.8 640.4 282 576 c 1,54,-1
 268 504 l 1,55,56
 278 512 278 512 305 528.5 c 128,-1,57
 332 545 332 545 394.832640333 588.085239085 c 128,-1,58
 457.665280665 631.17047817 457.665280665 631.17047817 518.832640333 701.085239085 c 128,-1,59
 580 771 580 771 580 860.5 c 128,-1,60
 580 950 580 950 518 950 c 0,49,50
EndSplineSet
EndChar

StartChar: l
Encoding: 108 108 79
Width: 535
Flags: HW
LayerCount: 2
Fore
SplineSet
391 125 m 0,0,1
 436 125 436 125 436 79.5 c 128,-1,2
 436 34 436 34 376.5 9 c 128,-1,3
 317 -16 317 -16 240.5 -16 c 0,4,5
 164 -16 164 -16 128 25 c 128,-1,6
 92 66 92 66 92 125 c 128,-1,7
 92 184 92 184 98.5 233.5 c 128,-1,8
 105 283 105 283 121 371 c 128,-1,9
 137 459 137 459 158 569 c 128,-1,10
 179 679 179 679 205 805 c 128,-1,11
 231 931 231 931 258 1062 c 128,-1,12
 285 1193 285 1193 312.5 1322 c 128,-1,13
 340 1451 340 1451 365 1567.5 c 128,-1,14
 390 1684 390 1684 411 1781.5 c 128,-1,15
 432 1879 432 1879 446 1946 c 1,16,17
 455 1978 455 1978 492 1978 c 0,18,19
 535 1978 535 1978 535 1931 c 2,20,-1
 535 1905 l 1,21,22
 496 1718 496 1718 458 1541 c 128,-1,23
 420 1364 420 1364 328.5 927 c 0,24,25
 237 490 237 490 210.5 336 c 128,-1,26
 184 182 184 182 184 151 c 128,-1,27
 184 120 184 120 203 96 c 128,-1,28
 222 72 222 72 247.5 72 c 128,-1,29
 273 72 273 72 294 80.5 c 128,-1,30
 315 89 315 89 335 98.5 c 128,-1,31
 355 108 355 108 371 116.5 c 128,-1,32
 387 125 387 125 391 125 c 0,0,1
EndSplineSet
EndChar

StartChar: m
Encoding: 109 109 80
Width: 1409
Flags: HW
LayerCount: 2
Fore
SplineSet
82 0 m 1,0,1
 98 48 98 48 110.5 117.5 c 128,-1,2
 123 187 123 187 143 246 c 1,3,4
 228 585 228 585 283 965 c 0,5,6
 286 983 286 983 287.5 999 c 128,-1,7
 289 1015 289 1015 317 1047 c 1,8,9
 338 1055 338 1055 348 1055 c 0,10,11
 376 1055 376 1055 385 1020 c 1,12,-1
 385 1004 l 1,13,14
 381 858 381 858 340 686 c 2,15,-1
 289 471 l 1,16,17
 311 517 311 517 337 577 c 0,18,19
 446.931895573 830.688989784 446.931895573 830.688989784 541.965947787 936.344494892 c 128,-1,20
 637 1042 637 1042 748 1042 c 0,21,22
 809 1042 809 1042 848 992.5 c 128,-1,23
 887 943 887 943 887 877 c 0,24,25
 887 867 887 867 886 859.5 c 128,-1,26
 885 852 885 852 885 844 c 1,27,28
 996 979 996 979 1116 1028 c 0,29,30
 1153 1044 1153 1044 1190.5 1044 c 128,-1,31
 1228 1044 1228 1044 1262 1008.5 c 128,-1,32
 1296 973 1296 973 1296 913 c 128,-1,33
 1296 853 1296 853 1283 784 c 128,-1,34
 1270 715 1270 715 1250.5 645 c 128,-1,35
 1231 575 1231 575 1206.5 503.5 c 128,-1,36
 1182 432 1182 432 1143 305 c 128,-1,37
 1104 178 1104 178 1097 110.5 c 128,-1,38
 1090 43 1090 43 1085.5 30 c 128,-1,39
 1081 17 1081 17 1067.5 -0.5 c 128,-1,40
 1054 -18 1054 -18 1030 -18 c 0,41,42
 983 -18 983 -18 983 82 c 0,43,44
 983 145 983 145 1006 218 c 128,-1,45
 1029 291 1029 291 1043.5 341 c 128,-1,46
 1058 391 1058 391 1083 461 c 128,-1,47
 1108 531 1108 531 1145 645 c 128,-1,48
 1182 759 1182 759 1194 889 c 1,49,50
 1194 931 1194 931 1183.5 938.5 c 128,-1,51
 1173 946 1173 946 1146 946 c 128,-1,52
 1119 946 1119 946 1064.5 911 c 128,-1,53
 1010 876 1010 876 954 812 c 1,54,55
 829 665 829 665 766 451 c 0,56,57
 748 387 748 387 732 341 c 128,-1,58
 716 295 716 295 689.5 215 c 128,-1,59
 663 135 663 135 647.5 74.5 c 128,-1,60
 632 14 632 14 620.5 -2 c 128,-1,61
 609 -18 609 -18 583 -18 c 0,62,63
 536 -18 536 -18 532 33 c 1,64,65
 556 201 556 201 604 330 c 128,-1,66
 652 459 652 459 682 535 c 128,-1,67
 712 611 712 611 740 706.5 c 128,-1,68
 768 802 768 802 768 871 c 128,-1,69
 768 940 768 940 725 940 c 0,70,71
 607 940 607 940 415 552 c 0,72,73
 312 345 312 345 290 279 c 128,-1,74
 268 213 268 213 256 178 c 0,75,76
 190 -29 190 -29 131 -29 c 0,77,78
 111 -29 111 -29 96.5 -20.5 c 128,-1,79
 82 -12 82 -12 82 0 c 1,0,1
EndSplineSet
EndChar

StartChar: n
Encoding: 110 110 81
Width: 913
Flags: HW
LayerCount: 2
Fore
SplineSet
698 810.5 m 0,0,1
 698 909 698 909 643.5 909 c 0,2,3
 572.187165775 909 572.187165775 909 369 496 c 0,4,5
 277 309 277 309 240.5 213.5 c 128,-1,6
 204 118 204 118 186 79 c 128,-1,7
 168 40 168 40 150.5 20 c 128,-1,8
 133 0 133 0 111.5 0 c 128,-1,9
 90 0 90 0 86 10.5 c 128,-1,10
 82 21 82 21 82 48.7 c 128,-1,11
 82 76.4 82 76.4 162.5 520.7 c 128,-1,12
 243 965 243 965 255.5 988 c 128,-1,13
 268 1011 268 1011 278 1017.5 c 128,-1,14
 288 1024 288 1024 314 1024 c 128,-1,15
 340 1024 340 1024 354.5 1004 c 128,-1,16
 369 984 369 984 369 968.5 c 128,-1,17
 369 953 369 953 365 937.5 c 0,18,19
 358.28 911.46 358.28 911.46 344 871 c 0,20,21
 295.544041451 733.708117444 295.544041451 733.708117444 252 483 c 2,22,-1
 231 362 l 1,23,24
 254 410 254 410 283 477.5 c 128,-1,25
 312 545 312 545 369 671 c 128,-1,26
 426 797 426 797 496 896 c 1,27,28
 586 1026 586 1026 664 1026 c 0,29,30
 801 1026 801 1026 801 805 c 0,31,32
 801 722 801 722 777.5 598 c 128,-1,33
 754 474 754 474 725.5 327 c 128,-1,34
 697 180 697 180 694 84 c 1,35,-1
 682 29 l 1,36,37
 682 7 682 7 675.5 -2.5 c 128,-1,38
 669 -12 669 -12 636.5 -12 c 128,-1,39
 604 -12 604 -12 589.5 0 c 128,-1,40
 575 12 575 12 580 43 c 2,41,-1
 680 641 l 2,42,43
 698 752 698 752 698 810.5 c 0,0,1
EndSplineSet
EndChar

StartChar: o
Encoding: 111 111 82
Width: 780
Flags: HW
LayerCount: 2
Fore
SplineSet
530 1034 m 0,0,1
 719 1034 719 1034 719 748 c 0,2,3
 719 525 719 525 596 269 c 0,4,5
 513 97 513 97 396 21 c 0,6,7
 336 -18 336 -18 272 -18 c 0,8,9
 159 -18 159 -18 110 72 c 128,-1,10
 61 162 61 162 61 266.5 c 0,11,12
 61 451.517241379 61 451.517241379 123.5 626.75862069 c 128,-1,13
 186 802 186 802 293.5 918 c 128,-1,14
 401 1034 401 1034 530 1034 c 0,0,1
262 703 m 0,15,16
 154 487 154 487 154 281 c 0,17,18
 154 138 154 138 233 89 c 0,19,20
 257 74 257 74 288.5 74 c 0,21,22
 351.884615385 74 351.884615385 74 430.942307692 185 c 128,-1,23
 510 296 510 296 564 458.5 c 128,-1,24
 618 621 618 621 618 737.5 c 128,-1,25
 618 854 618 854 604.5 885 c 128,-1,26
 591 916 591 916 573.5 928 c 128,-1,27
 556 940 556 940 515.5 940 c 128,-1,28
 475 940 475 940 427 908 c 0,29,30
 334 848 334 848 262 703 c 0,15,16
EndSplineSet
EndChar

StartChar: p
Encoding: 112 112 83
Width: 856
Flags: HW
LayerCount: 2
Fore
SplineSet
326 758 m 1,0,1
 472.176470588 1038 472.176470588 1038 642 1038 c 0,2,3
 731 1038 731 1038 770 985.5 c 128,-1,4
 809 933 809 933 809 830 c 0,5,6
 809 640.68 809 640.68 755 444.34 c 128,-1,7
 701 248 701 248 593.5 110.5 c 128,-1,8
 486 -27 486 -27 340 -27 c 0,9,10
 284 -27 284 -27 250 -3 c 128,-1,11
 216 21 216 21 195 78 c 1,12,13
 144 -154 144 -154 98.5 -383.5 c 128,-1,14
 53 -613 53 -613 4 -799 c 1,15,16
 -16 -840 -16 -840 -53 -840 c 0,17,18
 -84 -840 -84 -840 -88 -799 c 1,19,20
 -22 -540 -22 -540 18 -331 c 128,-1,21
 58 -122 58 -122 79.5 -10 c 128,-1,22
 101 102 101 102 140.5 311.5 c 128,-1,23
 180 521 180 521 268 967 c 1,24,-1
 268 1012 l 2,25,26
 268 1032 268 1032 286.5 1050.5 c 128,-1,27
 305 1069 305 1069 329.5 1069 c 128,-1,28
 354 1069 354 1069 365.5 1050 c 128,-1,29
 377 1031 377 1031 377 1013.5 c 128,-1,30
 377 996 377 996 374 982 c 128,-1,31
 371 968 371 968 367 954.5 c 128,-1,32
 363 941 363 941 359 928 c 128,-1,33
 355 915 355 915 354 905 c 2,34,-1
 326 758 l 1,0,1
238 227 m 0,35,36
 238 70 238 70 354 70 c 0,37,38
 462 70 462 70 552 204 c 0,39,40
 667 376 667 376 704 662 c 0,41,42
 715 741 715 741 715 814 c 0,43,44
 715 946 715 946 650 946 c 128,-1,45
 585 946 585 946 499 851 c 0,46,47
 379 718 379 718 308.5 536 c 128,-1,48
 238 354 238 354 238 227 c 0,35,36
EndSplineSet
EndChar

StartChar: q
Encoding: 113 113 84
Width: 764
Flags: HW
LayerCount: 2
Fore
SplineSet
682 752 m 1,0,1
 679 732 679 732 662 702 c 1,2,3
 657 583 657 583 503 -144 c 0,4,5
 478 -262 478 -262 450.5 -392 c 128,-1,6
 423 -522 423 -522 362 -803 c 1,7,8
 352 -844 352 -844 311 -844 c 0,9,10
 296 -844 296 -844 283 -834.5 c 128,-1,11
 270 -825 270 -825 270 -812.5 c 128,-1,12
 270 -800 270 -800 281.5 -743.5 c 128,-1,13
 293 -687 293 -687 308 -608.5 c 128,-1,14
 323 -530 323 -530 335.5 -465.5 c 128,-1,15
 348 -401 348 -401 359 -346.5 c 128,-1,16
 370 -292 370 -292 380.5 -240 c 128,-1,17
 391 -188 391 -188 402.5 -135 c 128,-1,18
 414 -82 414 -82 427 -20.5 c 128,-1,19
 440 41 440 41 456 115 c 128,-1,20
 472 189 472 189 492 283 c 1,21,22
 474 256 474 256 457 223 c 128,-1,23
 440 190 440 190 407 131.5 c 128,-1,24
 374 73 374 73 325 28.5 c 128,-1,25
 276 -16 276 -16 206 -16 c 128,-1,26
 136 -16 136 -16 98.5 42.5 c 128,-1,27
 61 101 61 101 61 180.5 c 0,28,29
 61 352.842105263 61 352.842105263 100 548.921052632 c 128,-1,30
 139 745 139 745 222 879 c 1,31,32
 326 1044 326 1044 479 1044 c 0,33,34
 568 1044 568 1044 625 958 c 128,-1,35
 682 872 682 872 682 752 c 1,0,1
154 225 m 0,36,37
 154 84 154 84 217 84 c 0,38,39
 290 84 290 84 442 400 c 1,40,41
 544 609 544 609 550 675 c 0,42,43
 553 699 553 699 556.5 743 c 128,-1,44
 560 787 560 787 573 813 c 1,45,-1
 580 819 l 1,46,47
 552 950 552 950 479 950 c 0,48,49
 332 950 332 950 232 651 c 0,50,51
 154 417 154 417 154 225 c 0,36,37
EndSplineSet
EndChar

StartChar: r
Encoding: 114 114 85
Width: 727
Flags: HW
LayerCount: 2
Fore
SplineSet
82 4 m 1,0,-1
 128 248 l 2,1,2
 164 435 164 435 177 513.5 c 128,-1,3
 190 592 190 592 206.727272727 686.545454545 c 0,4,5
 223.454545455 781.090909091 223.454545455 781.090909091 274 958 c 1,6,7
 272 963 272 963 272 967 c 2,8,-1
 272 977 l 2,9,10
 272 1025 272 1025 309 1046 c 0,11,12
 320 1053 320 1053 332 1053 c 0,13,14
 375 1053 375 1053 375 991 c 0,15,16
 375 955 375 955 346 861.5 c 128,-1,17
 317 768 317 768 301 688 c 1,18,19
 315 711 315 711 335.5 746 c 128,-1,20
 356 781 356 781 400.5 848 c 128,-1,21
 445 915 445 915 512.5 975.5 c 128,-1,22
 580 1036 580 1036 650.5 1036 c 128,-1,23
 721 1036 721 1036 758 998 c 0,24,25
 772 985 772 985 772 965 c 128,-1,26
 772 945 772 945 754 929 c 128,-1,27
 736 913 736 913 717 913 c 128,-1,28
 698 913 698 913 680 923.5 c 128,-1,29
 662 934 662 934 640 934 c 128,-1,30
 618 934 618 934 570 898 c 0,31,32
 379 759 379 759 255 347 c 0,33,34
 222 237 222 237 215 195.5 c 128,-1,35
 208 154 208 154 203 128 c 0,36,37
 173 -33 173 -33 111 -33 c 0,38,39
 82 -33 82 -33 82 4 c 1,0,-1
EndSplineSet
EndChar

StartChar: s
Encoding: 115 115 86
Width: 633
Flags: HW
LayerCount: 2
Fore
SplineSet
387 956 m 0,0,1
 287 956 287 956 287 840 c 0,2,3
 287 763 287 763 323 681 c 128,-1,4
 359 599 359 599 384 549.5 c 0,5,6
 481 357.44 481 357.44 481 254.72 c 128,-1,7
 481 152 481 152 419 80 c 128,-1,8
 357 8 357 8 240 -6 c 1,9,-1
 227 -6 l 2,10,11
 114 -6 114 -6 63 133 c 0,12,13
 61 138 61 138 61 142 c 2,14,-1
 61 152 l 2,15,16
 61 173 61 173 74 186.5 c 128,-1,17
 87 200 87 200 102 203 c 1,18,-1
 113 203 l 2,19,20
 133 203 133 203 145.5 187 c 128,-1,21
 158 171 158 171 169 151.5 c 128,-1,22
 180 132 180 132 193 116 c 128,-1,23
 206 100 206 100 238 100 c 0,24,25
 306 100 306 100 346.5 142.5 c 128,-1,26
 387 185 387 185 387 237 c 128,-1,27
 387 289 387 289 372 334.5 c 0,28,29
 346.751753913 411.086346465 346.751753913 411.086346465 285.5 525.5 c 0,30,31
 184 715.094339623 184 715.094339623 184 820.047169811 c 128,-1,32
 184 925 184 925 237 992 c 128,-1,33
 290 1059 290 1059 387 1059 c 0,34,35
 447 1059 447 1059 490 1034 c 0,36,37
 571 987 571 987 571 928.5 c 128,-1,38
 571 870 571 870 522 870 c 0,39,40
 504 870 504 870 492.5 883.5 c 128,-1,41
 481 897 481 897 468 913 c 0,42,43
 433 956 433 956 387 956 c 0,0,1
EndSplineSet
EndChar

StartChar: t
Encoding: 116 116 87
Width: 647
Flags: HW
LayerCount: 2
Fore
SplineSet
272 942 m 1,0,1
 187 942 187 942 125 932 c 1,2,3
 84 936 84 936 84 967 c 0,4,5
 84 985 84 985 99 1004 c 128,-1,6
 114 1023 114 1023 139 1026 c 1,7,-1
 287 1022 l 1,8,9
 291 1043 291 1043 295.5 1072.5 c 128,-1,10
 300 1102 300 1102 311.5 1158.5 c 128,-1,11
 323 1215 323 1215 343.5 1261 c 128,-1,12
 364 1307 364 1307 397 1307 c 128,-1,13
 430 1307 430 1307 430 1270 c 2,14,-1
 430 1257 l 1,15,16
 401 1133 401 1133 381 1024 c 1,17,-1
 528 1024 l 2,18,19
 606 1024 606 1024 623.5 1012 c 128,-1,20
 641 1000 641 1000 641 982 c 0,21,22
 641 947 641 947 598 936 c 0,23,24
 576 930 576 930 509.5 930 c 128,-1,25
 443 930 443 930 365 936 c 1,26,27
 346 836 346 836 280.5 561.954022989 c 0,28,29
 215 287.908045977 215 287.908045977 215 208.454022989 c 128,-1,30
 215 129 215 129 233 104 c 1,31,32
 246 88 246 88 277 88 c 128,-1,33
 308 88 308 88 330 106 c 128,-1,34
 352 124 352 124 370 145.5 c 128,-1,35
 388 167 388 167 405.5 185 c 128,-1,36
 423 203 423 203 444 203 c 0,37,38
 485 203 485 203 485 162 c 0,39,40
 485 141 485 141 443.5 92.5 c 128,-1,41
 402 44 402 44 367 18 c 128,-1,42
 332 -8 332 -8 265 -8 c 128,-1,43
 198 -8 198 -8 173 15 c 0,44,45
 121 61 121 61 121 162 c 0,46,47
 121 214 121 214 133 285 c 2,48,-1
 152 401 l 1,49,50
 171 487 171 487 186 551.5 c 128,-1,51
 201 616 201 616 212 665 c 128,-1,52
 223 714 223 714 241 792.5 c 128,-1,53
 259 871 259 871 272 942 c 1,0,1
EndSplineSet
EndChar

StartChar: u
Encoding: 117 117 88
Width: 870
Flags: HW
LayerCount: 2
Fore
SplineSet
598 -49 m 0,0,1
 537 -49 537 -49 537 115 c 0,2,3
 537 221 537 221 557.5 332 c 128,-1,4
 578 443 578 443 600 549 c 1,5,6
 563 483 563 483 530 413.5 c 128,-1,7
 497 344 497 344 472 301.5 c 128,-1,8
 447 259 447 259 431.5 229.5 c 0,9,10
 302.508474576 -16 302.508474576 -16 192.254237288 -16 c 128,-1,11
 82 -16 82 -16 82 203 c 0,12,13
 82 484 82 484 171 840 c 2,14,-1
 202 964 l 1,15,16
 221 1032 221 1032 266 1032 c 0,17,18
 292 1032 292 1032 301 997 c 1,19,20
 298 965 298 965 285 938 c 128,-1,21
 272 911 272 911 265.5 878 c 0,22,23
 178 433.769230769 178 433.769230769 178 272 c 1,24,-1
 176 176 l 1,25,26
 176 94 176 94 203 94 c 0,27,28
 281 94 281 94 468 462 c 0,29,30
 497 518 497 518 539 603 c 128,-1,31
 581 688 581 688 605 732.5 c 128,-1,32
 629 777 629 777 648 818 c 0,33,34
 727 991 727 991 784 991 c 0,35,36
 819 991 819 991 819 952.5 c 128,-1,37
 819 914 819 914 780 826 c 128,-1,38
 741 738 741 738 715.5 646 c 0,39,40
 644.314006238 389.172100936 644.314006238 389.172100936 627 109 c 1,41,-1
 627 98 l 2,42,43
 627 68 627 68 639.5 53.5 c 128,-1,44
 652 39 652 39 658 32.5 c 128,-1,45
 664 26 664 26 664 5.5 c 128,-1,46
 664 -15 664 -15 640.5 -32 c 128,-1,47
 617 -49 617 -49 598 -49 c 0,0,1
EndSplineSet
EndChar

StartChar: v
Encoding: 118 118 89
Width: 700
Flags: HW
LayerCount: 2
Fore
SplineSet
426 1378 m 1,0,1
 711 1356 711 1356 711 1028.5 c 128,-1,2
 711 701 711 701 486 293 c 0,3,4
 412 160 412 160 317 35 c 0,5,6
 286 -6 286 -6 262 -6 c 0,7,8
 211 -6 211 -6 205 37 c 0,9,10
 169 291 169 291 147 500.5 c 0,11,12
 125 710 125 710 84 1012 c 1,13,14
 90 1032 90 1032 107.5 1046.5 c 128,-1,15
 125 1061 125 1061 140 1061 c 0,16,17
 169 1061 169 1061 178 1026 c 1,18,19
 200 825 200 825 228 607 c 128,-1,20
 256 389 256 389 285 143 c 1,21,22
 434 378 434 378 493 513 c 0,23,24
 614 794 614 794 614 1010.5 c 128,-1,25
 614 1227 614 1227 488 1275 c 0,26,27
 452 1289 452 1289 422 1293 c 128,-1,28
 392 1297 392 1297 380.5 1303 c 128,-1,29
 369 1309 369 1309 369 1327 c 0,30,31
 369 1371 369 1371 426 1378 c 1,0,1
EndSplineSet
EndChar

StartChar: w
Encoding: 119 119 90
Width: 1178
Flags: HW
LayerCount: 2
Fore
SplineSet
268 -6 m 0,0,1
 225 -6 225 -6 225 78 c 1,2,3
 191 221 191 221 151.5 528 c 128,-1,4
 112 835 112 835 98 897.5 c 128,-1,5
 84 960 84 960 84 974.5 c 128,-1,6
 84 989 84 989 100.5 1007.5 c 128,-1,7
 117 1026 117 1026 135 1026 c 128,-1,8
 153 1026 153 1026 168.5 1011 c 128,-1,9
 184 996 184 996 191.5 960.5 c 128,-1,10
 199 925 199 925 216.914285714 805.571428571 c 0,11,12
 234.828571429 686.142857143 234.828571429 686.142857143 266.414285714 454.071428571 c 128,-1,13
 298 222 298 222 307 205 c 1,14,15
 341 301 341 301 382 406 c 0,16,17
 548 838 548 838 578 995 c 0,18,19
 585 1034 585 1034 625 1034 c 0,20,21
 648 1034 648 1034 657.5 1022 c 128,-1,22
 667 1010 667 1010 670 987 c 0,23,24
 717 510 717 510 780 174 c 1,25,26
 1085 664 1085 664 1085 956 c 0,27,28
 1085 1102 1085 1102 991 1202 c 0,29,30
 977 1217 977 1217 953.5 1230.5 c 128,-1,31
 930 1244 930 1244 907 1258 c 0,32,33
 850 1291 850 1291 850 1317 c 0,34,35
 850 1337 850 1337 867 1353.5 c 128,-1,36
 884 1370 884 1370 908 1370 c 128,-1,37
 932 1370 932 1370 1006 1323 c 128,-1,38
 1080 1276 1080 1276 1128 1186 c 128,-1,39
 1176 1096 1176 1096 1176 972 c 0,40,41
 1176 762 1176 762 1092.5 559 c 128,-1,42
 1009 356 1009 356 881 164 c 0,43,44
 865 140 865 140 849 109 c 0,45,46
 786 -14 786 -14 733 -14 c 0,47,48
 686 -14 686 -14 686 68 c 0,49,50
 686 83 686 83 688.5 98 c 128,-1,51
 691 113 691 113 684 154 c 0,52,53
 614 529 614 529 592 719 c 1,54,55
 562 651 562 651 471 403.5 c 128,-1,56
 380 156 380 156 315 20 c 1,57,58
 296 -6 296 -6 268 -6 c 0,0,1
EndSplineSet
EndChar

StartChar: x
Encoding: 120 120 91
Width: 700
Flags: HW
LayerCount: 2
Fore
SplineSet
-57 18 m 0,0,1
 -57 38 -57 38 -38 67 c 128,-1,2
 -19 96 -19 96 84 261.5 c 128,-1,3
 187 427 187 427 272 553 c 1,4,5
 266 567 266 567 260.5 583.5 c 128,-1,6
 255 600 255 600 236 655 c 128,-1,7
 217 710 217 710 191 783.5 c 128,-1,8
 165 857 165 857 156.5 883 c 128,-1,9
 148 909 148 909 140 934.5 c 128,-1,10
 132 960 132 960 125.5 979 c 128,-1,11
 119 998 119 998 119 1010.5 c 128,-1,12
 119 1023 119 1023 134 1039 c 128,-1,13
 149 1055 149 1055 173.5 1055 c 128,-1,14
 198 1055 198 1055 212.5 1035.5 c 128,-1,15
 227 1016 227 1016 236 989 c 128,-1,16
 245 962 245 962 250.5 933.5 c 128,-1,17
 256 905 256 905 264 880 c 128,-1,18
 272 855 272 855 282 827 c 128,-1,19
 292 799 292 799 302 771.5 c 128,-1,20
 312 744 312 744 323 715.5 c 128,-1,21
 334 687 334 687 346 655 c 1,22,23
 386.80961183 705.475046211 386.80961183 705.475046211 470.404805915 824.737523105 c 128,-1,24
 554 944 554 944 577.5 974 c 128,-1,25
 601 1004 601 1004 635 1024 c 1,26,27
 650 1030 650 1030 664 1030 c 1,28,29
 696 1024 696 1024 696 997.5 c 128,-1,30
 696 971 696 971 686.5 952.5 c 0,31,32
 670.845070423 922.014084507 670.845070423 922.014084507 632.467989757 875.961587708 c 128,-1,33
 594.090909091 829.909090909 594.090909091 829.909090909 519.045454545 719.954545455 c 128,-1,34
 444 610 444 610 391 547 c 1,35,36
 502 275 502 275 522 215.5 c 128,-1,37
 542 156 542 156 564 114.5 c 128,-1,38
 586 73 586 73 586 35 c 1,39,40
 583 13 583 13 564.5 -1.5 c 128,-1,41
 546 -16 546 -16 522 -16 c 128,-1,42
 498 -16 498 -16 489 16 c 1,43,44
 486 50 486 50 468.5 80.5 c 128,-1,45
 451 111 451 111 433 163.5 c 128,-1,46
 415 216 415 216 383 290.5 c 128,-1,47
 351 365 351 365 319 446 c 1,48,-1
 39 16 l 2,49,50
 20 -14 20 -14 -18.5 -14 c 128,-1,51
 -57 -14 -57 -14 -57 18 c 0,0,1
EndSplineSet
EndChar

StartChar: y
Encoding: 121 121 92
Width: 860
Flags: HW
LayerCount: 2
Fore
SplineSet
710 1009.5 m 128,-1,1
 727 1034 727 1034 760.235294118 1034 c 128,-1,2
 793.470588235 1034 793.470588235 1034 793.470588235 1010.06129322 c 128,-1,3
 793.470588235 986.122586439 793.470588235 986.122586439 703.735294118 591.56129322 c 128,-1,4
 614 197 614 197 582 51 c 1,5,6
 622 86 622 86 653 117 c 128,-1,7
 684 148 684 148 708 169 c 128,-1,8
 732 190 732 190 750 190 c 0,9,10
 788 190 788 190 788 156 c 0,11,12
 788 135 788 135 772 115 c 1,13,14
 660 15 660 15 559 -61 c 1,15,16
 473 -534 473 -534 395 -684 c 0,17,18
 374 -725 374 -725 340 -762 c 1,19,20
 259 -854 259 -854 155 -854 c 128,-1,21
 51 -854 51 -854 -6 -777.5 c 128,-1,22
 -63 -701 -63 -701 -63 -628.5 c 128,-1,23
 -63 -556 -63 -556 -45 -503 c 128,-1,24
 -27 -450 -27 -450 4 -406 c 128,-1,25
 35 -362 35 -362 77 -324.5 c 128,-1,26
 119 -287 119 -287 167 -252 c 128,-1,27
 215 -217 215 -217 266.5 -183 c 128,-1,28
 318 -149 318 -149 369 -111 c 2,29,-1
 469 -35 l 1,30,31
 480 9 480 9 545 219 c 128,-1,32
 610 429 610 429 621 469 c 1,33,34
 535 218 535 218 410 78 c 0,35,36
 326 -16 326 -16 250 -16 c 128,-1,37
 174 -16 174 -16 125 45 c 128,-1,38
 76 106 76 106 76 217 c 0,39,40
 76 389 76 389 174 759 c 0,41,42
 223.075471698 942.79245283 223.075471698 942.79245283 223.075471698 958.98754005 c 1,43,44
 218.682841975 987.570903849 218.682841975 987.570903849 227.341420988 999.285451925 c 0,45,46
 255.956521739 1038 255.956521739 1038 294.932806324 1038 c 128,-1,47
 333.909090909 1038 333.909090909 1038 333.909090909 997.917355372 c 0,48,49
 333.909090909 960.897485493 333.909090909 960.897485493 257.954545455 653.039168279 c 128,-1,50
 182 345.180851064 182 345.180851064 182 240.590425532 c 128,-1,51
 182 136 182 136 207.5 109 c 128,-1,52
 233 82 233 82 270 82 c 0,53,54
 349 82 349 82 436 213 c 128,-1,55
 523 344 523 344 585.5 574 c 128,-1,56
 648 804 648 804 670.5 894.5 c 128,-1,0
 693 985 693 985 710 1009.5 c 128,-1,1
444 -154 m 1,57,58
 362 -217 362 -217 288.5 -267 c 128,-1,59
 215 -317 215 -317 160 -367 c 0,60,61
 41 -475 41 -475 41 -608 c 0,62,63
 41 -692 41 -692 96 -738 c 0,64,65
 119 -756 119 -756 157.5 -756 c 128,-1,66
 196 -756 196 -756 228.5 -730 c 128,-1,67
 261 -704 261 -704 287 -663 c 128,-1,68
 313 -622 313 -622 333.5 -570 c 128,-1,69
 354 -518 354 -518 370 -466 c 128,-1,70
 386 -414 386 -414 397.5 -366.5 c 128,-1,71
 409 -319 409 -319 418 -287 c 1,72,-1
 444 -154 l 1,57,58
EndSplineSet
EndChar

StartChar: z
Encoding: 122 122 93
Width: 817
Flags: HW
LayerCount: 2
Fore
SplineSet
214.955135395 1033.24050633 m 1,0,-1
 301 1026 l 1,1,-1
 741 1024 l 2,2,3
 793 1024 793 1024 796 1004 c 0,4,5
 797 997 797 997 797 985.5 c 128,-1,6
 797 974 797 974 791.5 963.5 c 128,-1,7
 786 953 786 953 779.5 945 c 128,-1,8
 773 937 773 937 766.5 931.5 c 128,-1,9
 760 926 760 926 692.5 833.5 c 128,-1,10
 625 741 625 741 441 498.5 c 128,-1,11
 257 256 257 256 160 123 c 1,12,13
 201 123 201 123 277 95.5 c 128,-1,14
 353 68 353 68 416 68 c 0,15,16
 614 68 614 68 614 180 c 0,17,18
 614 202 614 202 596 230 c 128,-1,19
 578 258 578 258 578 275.5 c 128,-1,20
 578 293 578 293 594 313.5 c 128,-1,21
 610 334 610 334 633 334 c 0,22,23
 671 334 671 334 692 282.5 c 128,-1,24
 713 231 713 231 713 195 c 0,25,26
 713 94 713 94 641.5 35.5 c 128,-1,27
 570 -23 570 -23 434 -23 c 0,28,29
 364 -23 364 -23 303 -0.5 c 128,-1,30
 242 22 242 22 212.5 32.5 c 128,-1,31
 183 43 183 43 153.5 43 c 128,-1,32
 124 43 124 43 78 15.5 c 128,-1,33
 32 -12 32 -12 14 -12 c 0,34,35
 -23 -12 -23 -12 -23 25 c 0,36,37
 -23 39 -23 39 -10 59 c 1,38,39
 152 270 152 270 358 542.5 c 128,-1,40
 564 815 564 815 655 932 c 1,41,-1
 410 942 l 1,42,-1
 272 932 l 1,43,-1
 238 932 l 2,44,45
 145 932 145 932 145 982.620253165 c 128,-1,46
 145 1033.24050633 145 1033.24050633 214.955135395 1033.24050633 c 1,0,-1
EndSplineSet
EndChar

StartChar: braceleft
Encoding: 123 123 94
Width: 565
Flags: HW
LayerCount: 2
Fore
SplineSet
137 -608 m 0,0,1
 33.4814814815 -608 33.4814814815 -608 33.4814814815 -341.228395062 c 128,-1,2
 33.4814814815 -74.4567901235 33.4814814815 -74.4567901235 152 369 c 1,3,4
 175 461 175 461 190 516 c 1,5,-1
 198 550 l 2,6,7
 205 579 205 579 207.5 594.5 c 128,-1,8
 210 610 210 610 213.5 624 c 128,-1,9
 217 638 217 638 217 642 c 2,10,-1
 217 649 l 2,11,12
 217 662 217 662 208 662 c 1,13,-1
 143 653 l 1,14,15
 116 653 116 653 112 660.5 c 128,-1,16
 108 668 108 668 106 674 c 128,-1,17
 104 680 104 680 98 688 c 1,18,19
 107 729 107 729 164 758 c 0,20,21
 187 769 187 769 210 780 c 128,-1,22
 233 791 233 791 254 819 c 128,-1,23
 275 847 275 847 287.5 890 c 128,-1,24
 300 933 300 933 305.5 978 c 128,-1,25
 311 1023 311 1023 311 1067 c 0,26,27
 311 1328.44444444 311 1328.44444444 327 1476 c 0,28,29
 373 1903 373 1903 628 1972 c 0,30,31
 638 1974 638 1974 647 1974 c 0,32,33
 690 1974 690 1974 690 1938.5 c 128,-1,34
 690 1903 690 1903 642 1884 c 0,35,36
 629 1878 629 1878 616 1878 c 2,37,-1
 608 1878 l 1,38,39
 538 1864 538 1864 500 1800 c 1,40,-1
 500 1798 l 1,41,42
 443 1699 443 1699 432 1490 c 0,43,44
 427 1399 427 1399 423.5 1233 c 128,-1,45
 420 1067 420 1067 400.5 978.5 c 128,-1,46
 381 890 381 890 357 838 c 128,-1,47
 333 786 333 786 287 745 c 1,48,49
 317 727 317 727 317 664.2 c 128,-1,50
 317 601.4 317 601.4 256 394 c 0,51,52
 127 -38 127 -38 127 -303 c 0,53,54
 127 -419 127 -419 158 -477 c 0,55,56
 164 -488 164 -488 175.5 -494 c 128,-1,57
 187 -500 187 -500 197 -508 c 1,58,-1
 272 -487 l 1,59,60
 315 -487 315 -487 315 -514 c 0,61,62
 315 -550 315 -550 253.5 -579 c 128,-1,63
 192 -608 192 -608 137 -608 c 0,0,1
164 674 m 1,64,-1
 166 674 l 1,65,-1
 164 674 l 1,64,-1
500 1800 m 1,66,-1
 500 1798 l 1,67,-1
 500 1800 l 1,66,-1
EndSplineSet
EndChar

StartChar: bar
Encoding: 124 124 95
Width: 580
Flags: HW
LayerCount: 2
Fore
SplineSet
45 -305 m 0,0,1
 22 -305 22 -305 18 -276 c 1,2,3
 18 -266 18 -266 20 -262 c 1,4,-1
 18 -262 l 1,5,-1
 18 -261 l 1,6,-1
 20 -260 l 1,7,8
 33 -161 33 -161 77.3186813187 38.4340659341 c 0,9,10
 121.637362637 237.868131868 121.637362637 237.868131868 284.318681319 1109.93406593 c 128,-1,11
 447 1982 447 1982 535 2404 c 1,12,13
 546 2424 546 2424 566.5 2439 c 128,-1,14
 587 2454 587 2454 604 2454 c 0,15,16
 630 2454 630 2454 633 2419 c 1,17,18
 553 2039 553 2039 385.5 1142.5 c 128,-1,19
 218 246 218 246 174.5 56.5 c 128,-1,20
 131 -133 131 -133 119 -229 c 1,21,-1
 119 -236 l 2,22,23
 119 -273 119 -273 72 -298 c 0,24,25
 59 -305 59 -305 45 -305 c 0,0,1
EndSplineSet
EndChar

StartChar: braceright
Encoding: 125 125 96
Width: 655
Flags: HW
LayerCount: 2
Fore
SplineSet
408 1858 m 1,0,-1
 319 1853 l 1,1,2
 285 1857 285 1857 285 1878 c 0,3,4
 285 1954 285 1954 455 1954 c 0,5,6
 618 1954 618 1954 618 1720 c 0,7,8
 618 1545 618 1545 549 1315 c 0,9,10
 519 1215 519 1215 485 1115.5 c 128,-1,11
 451 1016 451 1016 421 917 c 0,12,13
 352 689 352 689 352 520 c 0,14,15
 352 509 352 509 353 498.5 c 128,-1,16
 354 488 354 488 354 477 c 1,17,18
 382 487 382 487 410 487 c 128,-1,19
 438 487 438 487 438 455 c 128,-1,20
 438 423 438 423 394 398.5 c 128,-1,21
 350 374 350 374 342 367 c 1,22,23
 284 299 284 299 239.5 -66 c 128,-1,24
 195 -431 195 -431 162 -556 c 0,25,26
 101 -791 101 -791 12.5 -907.5 c 128,-1,27
 -76 -1024 -76 -1024 -217 -1024 c 128,-1,28
 -358 -1024 -358 -1024 -462 -956 c 0,29,30
 -522 -917 -522 -917 -522 -891 c 128,-1,31
 -522 -865 -522 -865 -499 -844 c 128,-1,32
 -476 -823 -476 -823 -456.5 -823 c 128,-1,33
 -437 -823 -437 -823 -426 -831 c 1,34,35
 -321 -934 -321 -934 -184 -934 c 0,36,37
 -37 -934 -37 -934 16 -734 c 0,38,39
 62 -559 62 -559 98 -331 c 128,-1,40
 134 -103 134 -103 154 -6 c 1,41,42
 152 -16 152 -16 145 -33 c 1,43,44
 151 14 151 14 157 69 c 0,45,46
 181 287 181 287 264 391 c 1,47,48
 238 414 238 414 238 481.5 c 128,-1,49
 238 549 238 549 252.5 615 c 128,-1,50
 267 681 267 681 275.5 731.5 c 128,-1,51
 284 782 284 782 308 861.5 c 128,-1,52
 332 941 332 941 359.5 1019.5 c 128,-1,53
 387 1098 387 1098 415 1177 c 128,-1,54
 443 1256 443 1256 479.5 1389 c 128,-1,55
 516 1522 516 1522 516 1669 c 128,-1,56
 516 1816 516 1816 461 1846 c 0,57,58
 440 1858 440 1858 408 1858 c 1,0,-1
EndSplineSet
EndChar

StartChar: asciitilde
Encoding: 126 126 97
Width: 1239
Flags: HW
LayerCount: 2
Fore
SplineSet
1157 684 m 0,0,1
 1157 670 1157 670 1149 655 c 2,2,-1
 1067 506 l 1,3,4
 1028 433 1028 433 938 428 c 1,5,6
 844 428 844 428 680 528 c 0,7,8
 637 554 637 554 573 594.5 c 128,-1,9
 509 635 509 635 479 644 c 128,-1,10
 449 653 449 653 412 653 c 0,11,12
 326 653 326 653 243 586 c 128,-1,13
 160 519 160 519 156 428 c 1,14,15
 153 403 153 403 134 387 c 128,-1,16
 115 371 115 371 96 371 c 0,17,18
 65 371 65 371 61 414 c 1,19,20
 74 539 74 539 184.5 648.5 c 128,-1,21
 295 758 295 758 422 758 c 0,22,23
 474 758 474 758 516.73943662 737.887323944 c 0,24,25
 559.478873239 717.774647887 559.478873239 717.774647887 723.23943662 621.887323944 c 128,-1,26
 887 526 887 526 926.5 526 c 128,-1,27
 966 526 966 526 992.759124088 545.897810219 c 0,28,29
 1019.51824818 565.795620438 1019.51824818 565.795620438 1042 622 c 1,30,31
 1077 719 1077 719 1122 719 c 0,32,33
 1157 719 1157 719 1157 684 c 0,0,1
EndSplineSet
EndChar

StartChar: exclamdown
Encoding: 161 161 99
Width: 406
Flags: HW
LayerCount: 2
Fore
SplineSet
-123 -1327 m 0,0,1
 -149 -1327 -149 -1327 -158 -1292 c 1,2,3
 -153 -1189 -153 -1189 -134 -1089.5 c 128,-1,4
 -115 -990 -115 -990 -102 -887 c 1,5,6
 -30 -242 -30 -242 160 557 c 1,7,8
 168 576 168 576 185 587 c 128,-1,9
 202 598 202 598 216 598 c 0,10,11
 248 598 248 598 252 557 c 1,12,13
 66 -235 66 -235 -8 -872 c 0,14,15
 -21 -976 -21 -976 -39.5 -1076 c 128,-1,16
 -58 -1176 -58 -1176 -63 -1278 c 1,17,18
 -70 -1298 -70 -1298 -87 -1312.5 c 128,-1,19
 -104 -1327 -104 -1327 -123 -1327 c 0,0,1
283 975 m 1,20,21
 324 959 324 959 324 914 c 128,-1,22
 324 869 324 869 287.5 839 c 128,-1,23
 251 809 251 809 217 809 c 128,-1,24
 183 809 183 809 165 832 c 128,-1,25
 147 855 147 855 147 888 c 0,26,27
 147 960 147 960 215 1014 c 1,28,29
 230 1024 230 1024 248 1024 c 0,30,31
 285 1024 285 1024 285 989 c 2,32,-1
 285 982 l 2,33,34
 285 978 285 978 283 975 c 1,20,21
EndSplineSet
EndChar

StartChar: cent
Encoding: 162 162 100
Width: 694
Flags: HW
LayerCount: 2
Fore
SplineSet
184 -236 m 0,0,1
 150 -236 150 -236 150 -203 c 0,2,3
 150 -176 150 -176 178.5 -118.5 c 128,-1,4
 207 -61 207 -61 219 -20 c 1,5,6
 147 -5 147 -5 104 68.5 c 128,-1,7
 61 142 61 142 61 228.5 c 0,8,9
 61 388.666666667 61 388.666666667 118.5 566.833333333 c 128,-1,10
 176 745 176 745 271.5 877 c 128,-1,11
 367 1009 367 1009 479 1038 c 1,12,13
 526 1146 526 1146 536 1180 c 0,14,15
 553 1235 553 1235 602 1241 c 1,16,17
 614 1241 614 1241 623.5 1232 c 128,-1,18
 633 1223 633 1223 633 1204 c 0,19,20
 633 1140 633 1140 578 1040 c 1,21,22
 630 1028 630 1028 653 972 c 0,23,24
 662 950 662 950 668 931.5 c 128,-1,25
 674 913 674 913 686 907 c 1,26,27
 694 894 694 894 694 875.5 c 128,-1,28
 694 857 694 857 677 841 c 128,-1,29
 660 825 660 825 639 825 c 0,30,31
 595.8125 825 595.8125 825 583.90625 888.5 c 128,-1,32
 572 952 572 952 514 952 c 0,33,34
 430 952 430 952 345 834.5 c 128,-1,35
 260 717 260 717 206 550.5 c 128,-1,36
 152 384 152 384 152 273.5 c 128,-1,37
 152 163 152 163 204 109 c 0,38,39
 223 90 223 90 250 82 c 1,40,41
 270 102 270 102 291.5 102 c 128,-1,42
 313 102 313 102 324 78 c 1,43,44
 389 87 389 87 435 148 c 0,45,46
 452 170 452 170 466.5 187.5 c 128,-1,47
 481 205 481 205 500 205 c 0,48,49
 539 205 539 205 539 162 c 128,-1,50
 539 119 539 119 470 58 c 128,-1,51
 401 -3 401 -3 311 -18 c 1,52,53
 275 -155 275 -155 220 -216 c 0,54,55
 202 -236 202 -236 184 -236 c 0,0,1
EndSplineSet
EndChar

StartChar: sterling
Encoding: 163 163 101
Width: 1077
Flags: HW
LayerCount: 2
Fore
SplineSet
588 973 m 1,0,1
 721 928 721 928 762 928 c 0,2,3
 839 928 839 928 965 1012 c 0,4,5
 978 1020 978 1020 995 1020 c 0,6,7
 1028 1020 1028 1020 1028 983 c 0,8,9
 1028 934 1028 934 923.5 882.5 c 128,-1,10
 819 831 819 831 747.5 831 c 128,-1,11
 676 831 676 831 565 868 c 1,12,13
 554 816 554 816 544.5 765.5 c 128,-1,14
 535 715 535 715 524 670 c 128,-1,15
 513 625 513 625 491.5 505.5 c 128,-1,16
 470 386 470 386 444 317 c 1,17,18
 501 286 501 286 556.5 255.5 c 128,-1,19
 612 225 612 225 670.5 201 c 128,-1,20
 729 177 729 177 785.5 149 c 128,-1,21
 842 121 842 121 933.5 81 c 128,-1,22
 1025 41 1025 41 1090.5 41 c 128,-1,23
 1156 41 1156 41 1210 73.5 c 128,-1,24
 1264 106 1264 106 1293 120.5 c 128,-1,25
 1322 135 1322 135 1354 135 c 128,-1,26
 1386 135 1386 135 1386 104 c 0,27,28
 1386 45 1386 45 1278 -5 c 128,-1,29
 1170 -55 1170 -55 1096.5 -55 c 128,-1,30
 1023 -55 1023 -55 963.5 -38 c 128,-1,31
 904 -21 904 -21 845 4.5 c 128,-1,32
 786 30 786 30 728 60.5 c 128,-1,33
 670 91 670 91 617.5 114.5 c 128,-1,34
 565 138 565 138 513.5 170.5 c 128,-1,35
 462 203 462 203 408 233 c 1,36,37
 359 149 359 149 287 88 c 0,38,39
 145 -31 145 -31 66.5 -31 c 128,-1,40
 -12 -31 -12 -31 -50 20 c 128,-1,41
 -88 71 -88 71 -88 127 c 0,42,43
 -88 234 -88 234 -20 325 c 128,-1,44
 48 416 48 416 144 416 c 128,-1,45
 240 416 240 416 365 358 c 1,46,47
 386 433 386 433 399 508 c 128,-1,48
 412 583 412 583 430 664 c 1,49,-1
 479 899 l 1,50,51
 350 942 350 942 303 942 c 128,-1,52
 256 942 256 942 234.5 939.5 c 128,-1,53
 213 937 213 937 199 915 c 1,54,55
 179 891 179 891 152 891 c 0,56,57
 115 891 115 891 115 925 c 0,58,59
 115 983 115 983 176 1015 c 0,60,61
 219 1038 219 1038 262.5 1038 c 128,-1,62
 306 1038 306 1038 349 1028.5 c 128,-1,63
 392 1019 392 1019 440 1010 c 1,64,-1
 500 997 l 1,65,66
 550 1251 550 1251 586.5 1381 c 128,-1,67
 623 1511 623 1511 629 1538.5 c 128,-1,68
 635 1566 635 1566 646.5 1612 c 128,-1,69
 658 1658 658 1658 672.5 1690.5 c 128,-1,70
 687 1723 687 1723 698.5 1751.5 c 128,-1,71
 710 1780 710 1780 724 1810 c 0,72,73
 797 1974 797 1974 897 1974 c 0,74,75
 974 1974 974 1974 1065 1876.5 c 128,-1,76
 1156 1779 1156 1779 1169 1706 c 1,77,78
 1166 1684 1166 1684 1148 1666.5 c 128,-1,79
 1130 1649 1130 1649 1108 1649 c 128,-1,80
 1086 1649 1086 1649 1075 1677 c 1,81,82
 1066 1738 1066 1738 997 1801 c 128,-1,83
 928 1864 928 1864 889 1878 c 1,84,-1
 887 1878 l 1,85,86
 778 1799 778 1799 708 1500 c 0,87,88
 682 1389 682 1389 668.5 1329.5 c 128,-1,89
 655 1270 655 1270 639 1206 c 1,90,-1
 588 973 l 1,0,1
330 274 m 1,91,92
 236 319 236 319 166 319 c 128,-1,93
 96 319 96 319 50 273 c 128,-1,94
 4 227 4 227 4 167.5 c 128,-1,95
 4 108 4 108 46 72 c 0,96,97
 61 59 61 59 84 59 c 0,98,99
 133 59 133 59 209.5 133.5 c 128,-1,100
 286 208 286 208 330 274 c 1,91,92
EndSplineSet
EndChar

StartChar: currency
Encoding: 164 164 102
Width: 1010
Flags: HW
LayerCount: 2
Fore
SplineSet
213 692 m 1,0,1
 160 769 160 769 160 850.5 c 128,-1,2
 160 932 160 932 217 1024 c 1,3,4
 164 1054 164 1054 133 1090.5 c 128,-1,5
 102 1127 102 1127 96 1138.5 c 128,-1,6
 90 1150 90 1150 90 1167 c 128,-1,7
 90 1184 90 1184 106.5 1202.5 c 128,-1,8
 123 1221 123 1221 143.5 1221 c 128,-1,9
 164 1221 164 1221 174.5 1202.5 c 128,-1,10
 185 1184 185 1184 198.5 1171.5 c 128,-1,11
 212 1159 212 1159 227 1148 c 128,-1,12
 242 1137 242 1137 257.5 1126 c 128,-1,13
 273 1115 273 1115 285 1104 c 1,14,15
 372 1182 372 1182 477 1182 c 0,16,17
 524 1182 524 1182 554 1164.5 c 128,-1,18
 584 1147 584 1147 595.5 1139.5 c 128,-1,19
 607 1132 607 1132 643 1120 c 1,20,21
 663 1157 663 1157 745 1216.5 c 128,-1,22
 827 1276 827 1276 863 1276 c 128,-1,23
 899 1276 899 1276 899 1239 c 0,24,25
 899 1208 899 1208 828 1160 c 1,26,27
 798 1141 798 1141 766 1121 c 128,-1,28
 734 1101 734 1101 717 1087.5 c 128,-1,29
 700 1074 700 1074 692 1071 c 1,30,31
 735 1018 735 1018 735 943 c 0,32,33
 735 818 735 818 678 717 c 1,34,35
 675 699 675 699 666 690 c 1,36,37
 680 647 680 647 736 589 c 128,-1,38
 792 531 792 531 815 506 c 128,-1,39
 838 481 838 481 838 462.5 c 128,-1,40
 838 444 838 444 821 427 c 128,-1,41
 804 410 804 410 781.5 410 c 0,42,43
 759 410 759 410 690 476.5 c 128,-1,44
 621 543 621 543 586 614 c 1,45,46
 527 573 527 573 443 573 c 128,-1,47
 359 573 359 573 285 623 c 1,48,49
 236 533 236 533 203 502 c 128,-1,50
 170 471 170 471 158 471 c 0,51,52
 121 471 121 471 121 509 c 128,-1,53
 121 547 121 547 158 609 c 128,-1,54
 195 671 195 671 213 692 c 1,0,1
565 1026 m 0,55,56
 540 1034 540 1034 537 1053 c 1,57,58
 514 1067 514 1067 496 1078.5 c 128,-1,59
 478 1090 478 1090 447 1090 c 0,60,61
 380 1090 380 1090 318 1021 c 128,-1,62
 256 952 256 952 256 874 c 256,63,64
 256 796 256 796 308.5 735 c 128,-1,65
 361 674 361 674 446.5 674 c 128,-1,66
 532 674 532 674 592.5 748 c 128,-1,67
 653 822 653 822 653 910 c 128,-1,68
 653 998 653 998 565 1026 c 0,55,56
EndSplineSet
EndChar

StartChar: yen
Encoding: 165 165 103
Width: 881
Flags: HW
LayerCount: 2
Fore
SplineSet
135 -78 m 0,0,1
 98 -78 98 -78 98 -41 c 0,2,3
 98 8 98 8 170 25 c 0,4,5
 210 34 210 34 247.5 42.5 c 128,-1,6
 285 51 285 51 324 59 c 1,7,8
 342 125 342 125 360 175.5 c 128,-1,9
 378 226 378 226 403.5 307 c 128,-1,10
 429 388 429 388 432 518 c 1,11,12
 287 506 287 506 209 459 c 1,13,14
 199 455 199 455 186 455 c 128,-1,15
 173 455 173 455 162.5 465 c 128,-1,16
 152 475 152 475 152 498 c 0,17,18
 152 544 152 544 235.5 572 c 128,-1,19
 319 600 319 600 436 610 c 1,20,-1
 442 674 l 1,21,22
 424 701 424 701 401 764 c 1,23,24
 227 759 227 759 203 735 c 1,25,26
 183 723 183 723 168 723 c 0,27,28
 131 723 131 723 131 760 c 0,29,30
 131 844 131 844 371 860 c 1,31,32
 278 1176 278 1176 186 1755 c 0,33,34
 172 1843 172 1843 162 1917 c 1,35,36
 162 1943 162 1943 177 1962.5 c 128,-1,37
 192 1982 192 1982 215 1982 c 128,-1,38
 238 1982 238 1982 253 1969.5 c 128,-1,39
 268 1957 268 1957 268 1938.5 c 128,-1,40
 268 1920 268 1920 258 1907 c 1,41,42
 308 1537 308 1537 418 1078 c 0,43,44
 452 934 452 934 481 862 c 1,45,-1
 500 862 l 1,46,47
 521 916 521 916 556.036777583 982.945271454 c 0,48,49
 591.073555166 1049.89054291 591.073555166 1049.89054291 690.036777583 1292.44527145 c 128,-1,50
 789 1535 789 1535 874.5 1699.5 c 128,-1,51
 960 1864 960 1864 1065 1964 c 1,52,53
 1085 1980 1085 1980 1103 1980 c 0,54,55
 1141 1980 1141 1980 1141 1946 c 0,56,57
 1141 1924 1141 1924 1124 1905 c 1,58,59
 983 1768 983 1768 840 1434 c 0,60,61
 801 1341 801 1341 738.5 1185 c 128,-1,62
 676 1029 676 1029 641 960.5 c 128,-1,63
 606 892 606 892 594 858 c 1,64,65
 786 848 786 848 786 809 c 0,66,67
 786 790 786 790 771.5 773 c 128,-1,68
 757 756 757 756 737 750 c 1,69,70
 664 756 664 756 557 760 c 1,71,72
 550 750 550 750 539 614 c 1,73,74
 616 614 616 614 691 610 c 128,-1,75
 766 606 766 606 838 604 c 1,76,77
 872 595 872 595 872 569 c 0,78,79
 872 551 872 551 857.5 533.5 c 128,-1,80
 843 516 843 516 823 510 c 1,81,-1
 528 522 l 1,82,83
 511 396 511 396 473 269.5 c 128,-1,84
 435 143 435 143 418 74 c 1,85,86
 470 80 470 80 520 80 c 0,87,88
 719 80 719 80 719 25 c 0,89,90
 719 3 719 3 698.5 -14 c 128,-1,91
 678 -31 678 -31 653 -31 c 1,92,93
 590.396226415 -14.358490566 590.396226415 -14.358490566 490.79245283 -14.358490566 c 0,94,95
 391.188679245 -14.358490566 391.188679245 -14.358490566 301.594339623 -36.679245283 c 0,96,97
 212 -59 212 -59 187.5 -68.5 c 128,-1,98
 163 -78 163 -78 135 -78 c 0,0,1
EndSplineSet
EndChar

StartChar: brokenbar
Encoding: 166 166 104
Width: 664
Flags: HW
LayerCount: 2
Fore
SplineSet
350 809 m 0,0,1
 324 809 324 809 324 840 c 0,2,3
 324 848 324 848 351 933.5 c 128,-1,4
 378 1019 378 1019 445 1302 c 128,-1,5
 512 1585 512 1585 550 1726 c 128,-1,6
 588 1867 588 1867 618 2009 c 1,7,8
 647 2058 647 2058 680.5 2058 c 128,-1,9
 714 2058 714 2058 717 2023 c 1,10,11
 685 1881 685 1881 647.5 1740.5 c 128,-1,12
 610 1600 610 1600 574 1454.5 c 128,-1,13
 538 1309 538 1309 503.5 1161.5 c 128,-1,14
 469 1014 469 1014 422 866 c 0,15,16
 414 842 414 842 391.5 825.5 c 128,-1,17
 369 809 369 809 350 809 c 0,0,1
18 -764 m 1,18,-1
 110 -276 l 1,19,20
 171 25 171 25 189 146 c 128,-1,21
 207 267 207 267 215 278 c 0,22,23
 242 317 242 317 273.5 317 c 128,-1,24
 305 317 305 317 305 283 c 1,25,26
 281 76 281 76 237 -139.5 c 128,-1,27
 193 -355 193 -355 166.5 -483.5 c 128,-1,28
 140 -612 140 -612 119 -739 c 1,29,30
 109 -764 109 -764 87.5 -780.5 c 128,-1,31
 66 -797 66 -797 47 -797 c 0,32,33
 18 -797 18 -797 18 -764 c 1,18,-1
EndSplineSet
EndChar

StartChar: section
Encoding: 167 167 105
Width: 1071
Flags: HW
LayerCount: 2
Fore
SplineSet
524 1653 m 1,0,1
 319 1877 319 1877 319 2056 c 0,2,3
 319 2153 319 2153 348 2205.5 c 128,-1,4
 377 2258 377 2258 421 2290 c 0,5,6
 501 2347 501 2347 596 2347 c 0,7,8
 768 2347 768 2347 894 2244 c 128,-1,9
 1020 2141 1020 2141 1020 2011 c 0,10,11
 1020 1911 1020 1911 1012 1876 c 0,12,13
 995 1796 995 1796 940 1796 c 0,14,15
 917 1796 917 1796 911 1825 c 1,16,-1
 920 1966 l 1,17,18
 920 2088 920 2088 822 2174.5 c 128,-1,19
 724 2261 724 2261 582 2261 c 256,20,21
 440 2261 440 2261 423 2133 c 0,22,23
 418 2095 418 2095 418 2058 c 0,24,25
 418 1881.69879518 418 1881.69879518 613 1682 c 1,26,27
 781 1508 781 1508 833 1438 c 0,28,29
 924 1315 924 1315 924 1221 c 0,30,31
 924 1060 924 1060 753 948 c 0,32,33
 607 852 607 852 483 848 c 1,34,35
 628 636 628 636 670 559 c 0,36,37
 762 387 762 387 762 259.5 c 0,38,39
 762 33.2807017544 762 33.2807017544 644.5 -118.859649123 c 128,-1,40
 527 -271 527 -271 354 -347.5 c 128,-1,41
 181 -424 181 -424 33 -424 c 128,-1,42
 -115 -424 -115 -424 -246 -361.5 c 128,-1,43
 -377 -299 -377 -299 -414 -195 c 1,44,45
 -414 -146 -414 -146 -372 -122 c 0,46,47
 -359 -115 -359 -115 -343 -115 c 128,-1,48
 -327 -115 -327 -115 -317 -137 c 1,49,50
 -287 -227 -287 -227 -174.5 -275.5 c 128,-1,51
 -62 -324 -62 -324 33.5 -324 c 0,52,53
 200.567567568 -324 200.567567568 -324 341.283783784 -245.5 c 128,-1,54
 482 -167 482 -167 570.5 -38 c 128,-1,55
 659 91 659 91 659 241.5 c 128,-1,56
 659 392 659 392 540 578 c 0,57,58
 489 657 489 657 430 733.5 c 128,-1,59
 371 810 371 810 320 886 c 0,60,61
 201 1065 201 1065 201 1186.5 c 128,-1,62
 201 1308 201 1308 226 1379.5 c 128,-1,63
 251 1451 251 1451 295 1500.5 c 128,-1,64
 339 1550 339 1550 397.5 1584 c 128,-1,65
 456 1618 456 1618 524 1653 c 1,0,1
772.5 1373.5 m 128,-1,67
 718 1455 718 1455 606 1569 c 1,68,69
 444 1508 444 1508 395.5 1459.5 c 0,70,71
 309 1373 309 1373 309 1267 c 128,-1,72
 309 1161 309 1161 346 1080 c 128,-1,73
 383 999 383 999 453 893 c 1,74,75
 469 932 469 932 583.5 983 c 128,-1,76
 698 1034 698 1034 738 1060 c 1,77,78
 827 1121 827 1121 827 1206.5 c 128,-1,66
 827 1292 827 1292 772.5 1373.5 c 128,-1,67
EndSplineSet
EndChar

StartChar: dieresis
Encoding: 168 168 106
Width: 1706
Flags: HW
LayerCount: 2
Fore
SplineSet
782 2174 m 0,0,1
 733 2191 733 2191 733 2240.5 c 128,-1,2
 733 2290 733 2290 760 2316 c 0,3,4
 809 2363 809 2363 837 2363 c 0,5,6
 901 2363 901 2363 901 2300 c 0,7,8
 901 2256 901 2256 869 2213.5 c 128,-1,9
 837 2171 837 2171 799 2171 c 0,10,11
 792 2171 792 2171 782 2174 c 0,0,1
475 2347 m 1,12,-1
 475 2349 l 1,13,14
 508 2310 508 2310 508 2278.5 c 0,15,16
 508 2247 508 2247 463 2203 c 128,-1,17
 418 2159 418 2159 391 2159 c 0,18,19
 364 2159 364 2159 349 2192.5 c 128,-1,20
 334 2226 334 2226 334 2254 c 128,-1,21
 334 2282 334 2282 341.5 2302 c 128,-1,22
 349 2322 349 2322 361.5 2337 c 128,-1,23
 374 2352 374 2352 390 2361 c 128,-1,24
 406 2370 406 2370 429 2370 c 128,-1,25
 452 2370 452 2370 475 2347 c 1,12,-1
EndSplineSet
EndChar

StartChar: copyright
Encoding: 169 169 107
Width: 1090
Flags: HW
LayerCount: 2
Fore
SplineSet
848 1853 m 1,0,-1
 760 1866 l 1,1,2
 631 1866 631 1866 488 1788 c 0,3,4
 292 1682 292 1682 260 1530 c 0,5,6
 250 1486 250 1486 250 1422.5 c 128,-1,7
 250 1359 250 1359 277 1292 c 128,-1,8
 304 1225 304 1225 352 1176 c 0,9,10
 453 1073 453 1073 618.5 1073 c 128,-1,11
 784 1073 784 1073 933 1214 c 0,12,13
 1023 1299 1023 1299 1062 1411 c 0,14,15
 1081 1466 1081 1466 1081 1521 c 128,-1,16
 1081 1576 1081 1576 1072 1610 c 128,-1,17
 1063 1644 1063 1644 1045.5 1670.5 c 128,-1,18
 1028 1697 1028 1697 1002 1723.5 c 128,-1,19
 976 1750 976 1750 942 1790 c 1,20,21
 938 1800 938 1800 938 1816.5 c 128,-1,22
 938 1833 938 1833 954 1850.5 c 128,-1,23
 970 1868 970 1868 992.5 1868 c 128,-1,24
 1015 1868 1015 1868 1070 1810.5 c 128,-1,25
 1125 1753 1125 1753 1143 1712 c 1,26,27
 1171 1636 1171 1636 1171 1562.5 c 0,28,29
 1171 1413.80555556 1171 1413.80555556 1097.5 1279.90277778 c 128,-1,30
 1024 1146 1024 1146 893.5 1061.5 c 128,-1,31
 763 977 763 977 600 977 c 0,32,33
 393 977 393 977 275.5 1104 c 128,-1,34
 158 1231 158 1231 158 1405.5 c 128,-1,35
 158 1580 158 1580 255 1703.5 c 128,-1,36
 352 1827 352 1827 502.5 1895.5 c 128,-1,37
 653 1964 653 1964 811 1966 c 0,38,39
 831 1966 831 1966 850 1958 c 128,-1,40
 869 1950 869 1950 889 1944 c 1,41,42
 911 1929 911 1929 911 1908.5 c 128,-1,43
 911 1888 911 1888 891.5 1870.5 c 128,-1,44
 872 1853 872 1853 848 1853 c 1,0,-1
725 1268 m 0,45,46
 725 1206 725 1206 625 1206 c 128,-1,47
 525 1206 525 1206 470.5 1279 c 128,-1,48
 416 1352 416 1352 416 1416 c 0,49,50
 416 1538 416 1538 520 1640.5 c 128,-1,51
 624 1743 624 1743 741 1743 c 0,52,53
 814 1743 814 1743 864 1704 c 1,54,55
 872 1691 872 1691 872 1672.5 c 128,-1,56
 872 1654 872 1654 855 1638 c 128,-1,57
 838 1622 838 1622 821 1622 c 256,58,59
 804 1622 804 1622 772 1636.5 c 128,-1,60
 740 1651 740 1651 712.5 1651 c 128,-1,61
 685 1651 685 1651 647 1630 c 128,-1,62
 609 1609 609 1609 578 1576 c 0,63,64
 510 1504 510 1504 510 1424 c 128,-1,65
 510 1344 510 1344 606 1314 c 0,66,67
 641 1304 641 1304 690 1303 c 1,68,69
 725 1294 725 1294 725 1268 c 0,45,46
EndSplineSet
EndChar

StartChar: ordfeminine
Encoding: 170 170 108
Width: 575
Flags: HW
LayerCount: 2
Fore
SplineSet
465 1288 m 1,0,1
 406 1247 406 1247 330.5 1247 c 128,-1,2
 255 1247 255 1247 206.5 1296 c 128,-1,3
 158 1345 158 1345 158 1445 c 128,-1,4
 158 1545 158 1545 257 1627.5 c 128,-1,5
 356 1710 356 1710 471 1710 c 2,6,-1
 473 1710 l 1,7,8
 479 1750 479 1750 479 1799 c 0,9,10
 479 1903 479 1903 377 1903 c 0,11,12
 298 1903 298 1903 252 1856 c 0,13,14
 238 1841 238 1841 231 1822 c 0,15,16
 216 1782 216 1782 176 1782 c 0,17,18
 145 1782 145 1782 141 1823 c 1,19,20
 146 1840 146 1840 150.5 1860 c 128,-1,21
 155 1880 155 1880 170 1896 c 1,22,23
 203 1935 203 1935 272 1966 c 128,-1,24
 341 1997 341 1997 392 1997 c 0,25,26
 487 1997 487 1997 530 1949.5 c 128,-1,27
 573 1902 573 1902 573 1821.5 c 128,-1,28
 573 1741 573 1741 549.5 1617 c 128,-1,29
 526 1493 526 1493 526 1446.5 c 128,-1,30
 526 1400 526 1400 535.5 1379 c 128,-1,31
 545 1358 545 1358 559 1346.5 c 128,-1,32
 573 1335 573 1335 589.5 1330 c 128,-1,33
 606 1325 606 1325 620 1320 c 0,34,35
 653 1310 653 1310 653 1280.5 c 128,-1,36
 653 1251 653 1251 614 1234 c 0,37,38
 602 1229 602 1229 590 1229 c 0,39,40
 507 1229 507 1229 465 1288 c 1,0,1
430 1394 m 2,41,-1
 430 1446 l 2,42,43
 430 1486 430 1486 455 1614 c 1,44,-1
 440 1614 l 2,45,46
 356 1614 356 1614 303 1557.5 c 128,-1,47
 250 1501 250 1501 250 1449 c 0,48,49
 250 1346 250 1346 340 1346 c 0,50,51
 406 1346 406 1346 432 1372 c 1,52,53
 430 1383 430 1383 430 1394 c 2,41,-1
EndSplineSet
EndChar

StartChar: guillemotleft
Encoding: 171 171 109
Width: 668
Flags: HW
LayerCount: 2
Fore
SplineSet
281 494 m 1,0,1
 244 494 244 494 244 522 c 0,2,3
 244 536 244 536 265 558 c 0,4,5
 417 717 417 717 494 848 c 1,6,7
 525 881 525 881 551 881 c 128,-1,8
 577 881 577 881 582 864 c 128,-1,9
 587 847 587 847 572 822 c 0,10,11
 456 628 456 628 381 561 c 1,12,13
 453 516 453 516 524.5 425 c 128,-1,14
 596 334 596 334 596 302 c 128,-1,15
 596 270 596 270 574.5 248.5 c 128,-1,16
 553 227 553 227 532 227 c 128,-1,17
 511 227 511 227 500 242 c 1,18,19
 402 415 402 415 281 494 c 1,0,1
287 319 m 0,20,21
 287 274 287 274 236 274 c 0,22,23
 207 274 207 274 178 312 c 0,24,25
 76 443 76 443 23.5 467.5 c 128,-1,26
 -29 492 -29 492 -29 509.5 c 128,-1,27
 -29 527 -29 527 -18 538.5 c 128,-1,28
 -7 550 -7 550 16 567 c 1,29,30
 145 682 145 682 266 825 c 1,31,32
 278 837 278 837 287 848 c 128,-1,33
 296 859 296 859 311 873 c 128,-1,34
 326 887 326 887 350.5 887 c 128,-1,35
 375 887 375 887 375 860 c 1,36,37
 373 855 373 855 368 840 c 0,38,39
 347 782 347 782 148 572 c 0,40,41
 114 536 114 536 88 512 c 1,42,43
 127 483 127 483 178 430.5 c 128,-1,44
 229 378 229 378 258 356.5 c 128,-1,45
 287 335 287 335 287 319 c 0,20,21
EndSplineSet
EndChar

StartChar: logicalnot
Encoding: 172 172 110
Width: 991
Flags: HW
LayerCount: 2
Fore
SplineSet
723 465 m 1,0,1
 726 482 726 482 755 563.5 c 128,-1,2
 784 645 784 645 803 688 c 1,3,-1
 786 688 l 2,4,5
 667 688 667 688 453.5 700 c 128,-1,6
 240 712 240 712 131 713 c 1,7,8
 96 716 96 716 96 739 c 0,9,10
 96 774 96 774 140 798 c 0,11,12
 152 805 152 805 166 807 c 1,13,14
 275 806 275 806 491 794 c 128,-1,15
 707 782 707 782 825 782 c 1,16,-1
 893 784 l 2,17,18
 924 784 924 784 924 756 c 0,19,20
 924 741 924 741 918 731 c 128,-1,21
 912 721 912 721 913.5 718.5 c 128,-1,22
 915 716 915 716 910 709 c 128,-1,23
 905 702 905 702 899 693.5 c 128,-1,24
 893 685 893 685 886.5 677 c 128,-1,25
 880 669 880 669 875 657 c 128,-1,26
 870 645 870 645 866.5 627 c 128,-1,27
 863 609 863 609 852 594 c 1,28,29
 831 516 831 516 818 491 c 0,30,31
 791 436 791 436 757 436 c 128,-1,32
 723 436 723 436 723 465 c 1,0,1
EndSplineSet
EndChar

StartChar: uni00AD
Encoding: 173 173 111
Width: 870
Flags: HW
LayerCount: 2
Fore
SplineSet
127 547 m 2,0,1
 90 547 90 547 90 585 c 0,2,3
 90 617 90 617 125 634 c 128,-1,4
 160 651 160 651 212 651 c 0,5,6
 264 651 264 651 342.5 641 c 128,-1,7
 421 631 421 631 511.5 631 c 128,-1,8
 602 631 602 631 717 662 c 1,9,-1
 729 662 l 2,10,11
 748 662 748 662 757 652.5 c 128,-1,12
 766 643 766 643 766 631 c 0,13,14
 766 535 766 535 358 535 c 0,15,16
 301 535 301 535 248 543 c 128,-1,17
 195 551 195 551 176 551 c 1,18,-1
 137 545 l 2,19,20
 133 545 133 545 133 547 c 1,21,-1
 127 547 l 2,0,1
EndSplineSet
EndChar

StartChar: registered
Encoding: 174 174 112
Width: 1085
Flags: HW
LayerCount: 2
Fore
SplineSet
1028 1796 m 1,0,1
 1167 1669 1167 1669 1167 1481.5 c 128,-1,2
 1167 1294 1167 1294 981.5 1159 c 128,-1,3
 796 1024 796 1024 576 1024 c 0,4,5
 501 1024 501 1024 423 1055 c 128,-1,6
 345 1086 345 1086 286 1142 c 0,7,8
 158 1262 158 1262 158 1438 c 0,9,10
 158 1566 158 1566 231 1653 c 1,11,12
 413 1862 413 1862 620 1934 c 0,13,14
 701 1962 701 1962 761.5 1962 c 128,-1,15
 822 1962 822 1962 853 1953 c 128,-1,16
 884 1944 884 1944 912.5 1929.5 c 128,-1,17
 941 1915 941 1915 968 1898 c 128,-1,18
 995 1881 995 1881 1022 1866 c 1,19,20
 1044 1851 1044 1851 1044 1829.5 c 128,-1,21
 1044 1808 1044 1808 1028 1796 c 1,0,1
537 1214 m 0,22,23
 483 1214 483 1214 483 1516 c 0,24,25
 483 1653 483 1653 518 1737 c 1,26,27
 541 1769 541 1769 573 1769 c 1,28,29
 591 1778 591 1778 599 1778 c 2,30,-1
 611 1778 l 2,31,32
 625 1778 625 1778 683 1770 c 0,33,34
 872 1744 872 1744 872 1634 c 0,35,36
 872 1533 872 1533 770 1500 c 0,37,38
 742 1490 742 1490 689 1475 c 128,-1,39
 636 1460 636 1460 616 1444 c 1,40,41
 749 1311 749 1311 907 1311 c 0,42,43
 915 1311 915 1311 923 1311 c 128,-1,44
 931 1311 931 1311 940 1313 c 1,45,46
 975 1304 975 1304 975 1278 c 0,47,48
 975 1267 975 1267 971 1257 c 1,49,50
 1071 1355 1071 1355 1071 1469 c 128,-1,51
 1071 1583 1071 1583 996 1674 c 128,-1,52
 921 1765 921 1765 899 1821 c 1,53,54
 820 1862 820 1862 756.5 1862 c 0,55,56
 636.892857143 1862 636.892857143 1862 523.446428571 1804 c 128,-1,57
 410 1746 410 1746 334 1649.5 c 128,-1,58
 258 1553 258 1553 258 1444.5 c 128,-1,59
 258 1336 258 1336 357 1227 c 128,-1,60
 456 1118 456 1118 625 1118 c 128,-1,61
 794 1118 794 1118 930 1223 c 1,62,63
 907 1217 907 1217 879 1217 c 0,64,65
 808 1217 808 1217 722 1262.5 c 128,-1,66
 636 1308 636 1308 592 1393 c 1,67,-1
 596 1272 l 1,68,69
 593 1247 593 1247 574 1230.5 c 128,-1,70
 555 1214 555 1214 537 1214 c 0,22,23
590 1679 m 1,71,72
 573 1619 573 1619 573 1546 c 2,73,-1
 573 1513 l 1,74,75
 602 1528 602 1528 637 1540.5 c 128,-1,76
 672 1553 672 1553 723 1573 c 128,-1,77
 774 1593 774 1593 774 1616 c 0,78,79
 774 1657 774 1657 726.5 1668 c 128,-1,80
 679 1679 679 1679 590 1679 c 1,71,72
EndSplineSet
EndChar

StartChar: macron
Encoding: 175 175 113
Width: 1706
Flags: HW
LayerCount: 2
Fore
SplineSet
1059 2318 m 1,0,1
 1092 2307 1092 2307 1092 2283 c 0,2,3
 1092 2238 1092 2238 1038 2224 c 1,4,5
 996 2212 996 2212 834.5 2212 c 0,6,7
 673 2212 673 2212 607 2216.5 c 128,-1,8
 541 2221 541 2221 492 2245 c 1,9,10
 479 2259 479 2259 479 2277 c 128,-1,11
 479 2295 479 2295 497.5 2311 c 128,-1,12
 516 2327 516 2327 537.5 2327 c 128,-1,13
 559 2327 559 2327 584 2319.5 c 128,-1,14
 609 2312 609 2312 635 2312 c 2,15,-1
 696 2314 l 1,16,17
 820 2310 820 2310 869.5 2310 c 128,-1,18
 919 2310 919 2310 1059 2318 c 1,0,1
EndSplineSet
EndChar

StartChar: degree
Encoding: 176 176 114
Width: 483
Flags: HW
LayerCount: 2
Fore
SplineSet
535 2064 m 1,0,1
 692 2025 692 2025 692 1928 c 0,2,3
 692 1837 692 1837 610 1765.5 c 128,-1,4
 528 1694 528 1694 427 1694 c 128,-1,5
 326 1694 326 1694 281 1741 c 128,-1,6
 236 1788 236 1788 236 1848 c 0,7,8
 236 1959 236 1959 294 2038.5 c 128,-1,9
 352 2118 352 2118 432.5 2118 c 128,-1,10
 513 2118 513 2118 535 2064 c 1,0,1
528.5 1982 m 128,-1,12
 459 2021 459 2021 417 2021 c 128,-1,13
 375 2021 375 2021 355.5 1986 c 128,-1,14
 336 1951 336 1951 336 1901 c 128,-1,15
 336 1851 336 1851 359.5 1817.5 c 128,-1,16
 383 1784 383 1784 436.1 1784 c 0,17,18
 489.2 1784 489.2 1784 543.6 1818 c 128,-1,19
 598 1852 598 1852 598 1897.5 c 128,-1,11
 598 1943 598 1943 528.5 1982 c 128,-1,12
EndSplineSet
EndChar

StartChar: plusminus
Encoding: 177 177 115
Width: 864
Flags: HW
LayerCount: 2
Fore
SplineSet
119 594 m 1,0,1
 131 630 131 630 155.5 646 c 128,-1,2
 180 662 180 662 192 662 c 128,-1,3
 204 662 204 662 211 657 c 1,4,5
 297 698 297 698 410 707 c 1,6,-1
 426 707 l 1,7,8
 430 738 430 738 436 764 c 2,9,-1
 449 825 l 2,10,11
 453 844 453 844 453 879 c 2,12,-1
 453 924 l 2,13,14
 453 977 453 977 492 1002 c 0,15,16
 504 1010 504 1010 520 1010 c 0,17,18
 559 1010 559 1010 559 946 c 0,19,20
 559 912 559 912 549.5 870 c 128,-1,21
 540 828 540 828 534 791.5 c 128,-1,22
 528 755 528 755 518 711 c 1,23,-1
 532 711 l 2,24,25
 568 711 568 711 617 704 c 2,26,-1
 690 694 l 2,27,28
 715 690 715 690 744 690 c 128,-1,29
 773 690 773 690 807 694 c 1,30,31
 834 685 834 685 834 667 c 128,-1,32
 834 649 834 649 815.5 627.5 c 128,-1,33
 797 606 797 606 772 600 c 1,34,-1
 502 623 l 1,35,36
 471 468 471 468 471 365 c 2,37,-1
 471 336 l 1,38,39
 458 264 458 264 403 264 c 0,40,41
 369 264 369 264 369 348 c 128,-1,42
 369 432 369 432 410 621 c 1,43,44
 404 621 404 621 381.5 616.5 c 128,-1,45
 359 612 359 612 335.5 607.5 c 128,-1,46
 312 603 312 603 276 596 c 1,47,48
 228 576 l 2,49,50
 192 561 192 561 155.5 561 c 128,-1,51
 119 561 119 561 119 594 c 1,0,1
713 70 m 1,52,-1
 416 82 l 1,53,54
 203 82 203 82 86 18 c 1,55,56
 74 14 74 14 63 14 c 0,57,58
 35 14 35 14 35 41 c 0,59,60
 35 90.3513513514 35 90.3513513514 118 124 c 0,61,62
 179 149 179 149 279 161.5 c 128,-1,63
 379 174 379 174 452.5 174 c 128,-1,64
 526 174 526 174 601 170 c 128,-1,65
 676 166 676 166 748 164 c 1,66,67
 774 159 774 159 774 132.5 c 128,-1,68
 774 106 774 106 735 81 c 0,69,70
 724 74 724 74 713 70 c 1,52,-1
EndSplineSet
EndChar

StartChar: twosuperior
Encoding: 178 178 116
Width: 600
Flags: HW
LayerCount: 2
Fore
SplineSet
63 1069 m 128,-1,1
 20 1069 20 1069 20 1121 c 128,-1,2
 20 1173 20 1173 86 1234 c 0,3,4
 113 1259 113 1259 145.5 1275.5 c 128,-1,5
 178 1292 178 1292 196.5 1292 c 128,-1,6
 215 1292 215 1292 225 1288 c 1,7,8
 377 1474 377 1474 479 1763 c 1,9,10
 422 1753 422 1753 362 1698 c 1,11,12
 357 1675 357 1675 338 1656.5 c 128,-1,13
 319 1638 319 1638 297 1638 c 0,14,15
 262 1638 262 1638 262 1683 c 128,-1,16
 262 1728 262 1728 356 1794 c 0,17,18
 451 1860 451 1860 515.5 1860 c 128,-1,19
 580 1860 580 1860 580 1791.78205128 c 0,20,21
 580 1723.56410256 580 1723.56410256 414.5 1435 c 0,22,23
 356 1333 356 1333 285 1247 c 1,24,25
 305 1222 305 1222 322 1194.5 c 128,-1,26
 339 1167 339 1167 375.5 1143.5 c 128,-1,27
 412 1120 412 1120 438 1120 c 128,-1,28
 464 1120 464 1120 508 1126 c 1,29,30
 537 1117 537 1117 537 1093 c 128,-1,31
 537 1069 537 1069 505.5 1049.5 c 128,-1,32
 474 1030 474 1030 438 1030 c 0,33,34
 294 1030 294 1030 201 1157 c 1,35,0
 106 1069 106 1069 63 1069 c 128,-1,1
EndSplineSet
EndChar

StartChar: threesuperior
Encoding: 179 179 117
Width: 569
Flags: HW
LayerCount: 2
Fore
SplineSet
432 1880 m 0,0,1
 596 1880 596 1880 596 1786 c 0,2,3
 596 1663 596 1663 406 1518 c 1,4,5
 489 1478 489 1478 489 1343 c 128,-1,6
 489 1208 489 1208 435 1112 c 0,7,8
 348 958 348 958 205 867 c 0,9,10
 102 801 102 801 15 801 c 128,-1,11
 -72 801 -72 801 -148 858 c 0,12,13
 -244 929 -244 929 -248 1053 c 1,14,15
 -244 1075 -244 1075 -222.5 1096.5 c 128,-1,16
 -201 1118 -201 1118 -179.5 1118 c 128,-1,17
 -158 1118 -158 1118 -150 1096 c 1,18,19
 -146 907 -146 907 42 907 c 0,20,21
 91 907 91 907 154 934.5 c 128,-1,22
 217 962 217 962 270 1014 c 0,23,24
 389 1131 389 1131 389 1307 c 0,25,26
 389 1428 389 1428 324 1438 c 1,27,28
 300.25 1435 300.25 1435 282.4375 1435 c 0,29,30
 229 1435 229 1435 229 1462.5 c 0,31,32
 229 1490 229 1490 298 1538 c 0,33,34
 328 1559 328 1559 362.5 1582 c 128,-1,35
 397 1605 397 1605 426.5 1631 c 128,-1,36
 456 1657 456 1657 476 1686.5 c 128,-1,37
 496 1716 496 1716 496 1750 c 128,-1,38
 496 1784 496 1784 426 1784 c 0,39,40
 387 1784 387 1784 361.5 1773.5 c 128,-1,41
 336 1763 336 1763 328 1763 c 1,42,43
 315 1753 315 1753 297 1753 c 0,44,45
 268 1753 268 1753 268 1778 c 0,46,47
 268 1823 268 1823 326.5 1851.5 c 128,-1,48
 385 1880 385 1880 432 1880 c 0,0,1
285 1442 m 1,49,50
 291 1442 291 1442 295 1446 c 1,51,52
 292 1444 292 1444 289.5 1444 c 128,-1,53
 287 1444 287 1444 285 1442 c 1,49,50
EndSplineSet
EndChar

StartChar: acute
Encoding: 180 180 118
Width: 1706
Flags: HW
LayerCount: 2
Fore
SplineSet
806 2107 m 0,0,1
 760 2107 760 2107 760 2154 c 0,2,3
 760 2169 760 2169 781.5 2199 c 128,-1,4
 803 2229 803 2229 828.5 2274.5 c 128,-1,5
 854 2320 854 2320 877 2367.5 c 128,-1,6
 900 2415 900 2415 922 2462 c 128,-1,7
 944 2509 944 2509 967 2554 c 1,8,9
 990 2585 990 2585 1018 2585 c 0,10,11
 1055 2585 1055 2585 1055 2550 c 0,12,13
 1055 2534 1055 2534 1039.5 2505 c 128,-1,14
 1024 2476 1024 2476 1002 2428.5 c 128,-1,15
 980 2381 980 2381 941 2301 c 128,-1,16
 902 2221 902 2221 852 2157 c 1,17,18
 849 2137 849 2137 834 2122 c 128,-1,19
 819 2107 819 2107 806 2107 c 0,0,1
EndSplineSet
EndChar

StartChar: mu
Encoding: 181 181 119
Width: 932
Flags: HW
LayerCount: 2
Fore
SplineSet
-152 -1133 m 0,0,1
 -178 -1133 -178 -1133 -178 -1104 c 0,2,3
 -178 -1101 -178 -1101 -178 -1091.6097561 c 0,4,5
 -178 -1082.2195122 -178 -1082.2195122 -58.5 -552.609756098 c 128,-1,6
 61 -23 61 -23 117 354 c 1,7,8
 115 350 115 350 111.5 325 c 128,-1,9
 108 300 108 300 106 297 c 1,10,11
 111 331 111 331 116 365.5 c 128,-1,12
 121 400 121 400 127 434 c 1,13,14
 132 661 132 661 195 975 c 1,15,16
 209 997 209 997 219 1006 c 1,17,18
 252 1049 252 1049 287 1049 c 0,19,20
 311 1049 311 1049 315 1014 c 1,21,22
 284 849 284 849 227 451 c 1,23,-1
 227 394 l 2,24,25
 227 86 227 86 360 86 c 0,26,27
 408 86 408 86 464 172 c 0,28,29
 487 206 487 206 503.5 240 c 128,-1,30
 520 274 520 274 564.5 359 c 128,-1,31
 609 444 609 444 666 608 c 1,32,33
 672 658 672 658 677.5 710 c 128,-1,34
 683 762 683 762 696.5 828 c 128,-1,35
 710 894 710 894 747.5 968 c 128,-1,36
 785 1042 785 1042 836 1042 c 0,37,38
 862 1042 862 1042 862 1012 c 0,39,40
 862 1002 862 1002 843.5 914 c 128,-1,41
 825 826 825 826 766 647 c 1,42,-1
 760 598 l 1,43,44
 738 455 738 455 714 309.5 c 128,-1,45
 690 164 690 164 676 20 c 0,46,47
 673 -3 673 -3 650.5 -20 c 128,-1,48
 628 -37 628 -37 606 -37 c 256,49,50
 584 -37 584 -37 578 -8 c 1,51,52
 587 129 587 129 608 266 c 1,53,54
 517 87 517 87 453 45 c 0,55,56
 370 -8 370 -8 305 -8 c 0,57,58
 212 -8 212 -8 170 94 c 1,59,60
 96 -278 96 -278 -80 -1075 c 1,61,62
 -88 -1100 -88 -1100 -110.5 -1116.5 c 128,-1,63
 -133 -1133 -133 -1133 -152 -1133 c 0,0,1
EndSplineSet
EndChar

StartChar: paragraph
Encoding: 182 182 120
Width: 1098
Flags: HW
LayerCount: 2
Fore
SplineSet
141 -395 m 0,0,1
 109 -395 109 -395 109 -361 c 128,-1,2
 109 -327 109 -327 116.5 -286.5 c 128,-1,3
 124 -246 124 -246 133.5 -205 c 128,-1,4
 143 -164 143 -164 152 -129.5 c 128,-1,5
 161 -95 161 -95 172 -41 c 128,-1,6
 183 13 183 13 205 123 c 128,-1,7
 227 233 227 233 250.5 349.5 c 128,-1,8
 274 466 274 466 297 584 c 128,-1,9
 320 702 320 702 341 810.5 c 128,-1,10
 362 919 362 919 379.5 1013 c 128,-1,11
 397 1107 397 1107 410 1176 c 1,12,13
 281 1176 281 1176 168 1264.5 c 128,-1,14
 55 1353 55 1353 55 1465 c 0,15,16
 55 1662 55 1662 210 1802 c 0,17,18
 469 2036 469 2036 942 2036 c 0,19,20
 1057 2036 1057 2036 1166.5 2027 c 128,-1,21
 1276 2018 1276 2018 1374 2011 c 1,22,23
 1403 2003 1403 2003 1403 1977.5 c 128,-1,24
 1403 1952 1403 1952 1362 1927 c 0,25,26
 1351 1920 1351 1920 1339 1917 c 1,27,28
 1252 1920 1252 1920 1096 1935 c 1,29,30
 1000 1478 1000 1478 888 838.5 c 128,-1,31
 776 199 776 199 645 -342 c 1,32,33
 636 -367 636 -367 614 -383 c 128,-1,34
 592 -399 592 -399 573 -399 c 0,35,36
 547 -399 547 -399 547 -369 c 2,37,-1
 547 -363 l 2,38,39
 547 -359 547 -359 569.5 -268.5 c 128,-1,40
 592 -178 592 -178 625.5 -23 c 0,41,42
 719.995270797 414.216924583 719.995270797 414.216924583 815.997635398 963.108462291 c 128,-1,43
 912 1512 912 1512 1004 1942 c 1,44,45
 939 1948 939 1948 849 1948 c 128,-1,46
 759 1948 759 1948 647 1929 c 1,47,48
 543 1416 543 1416 516 1268 c 1,49,-1
 545 1274 l 1,50,51
 571 1269 571 1269 571 1245 c 0,52,53
 571 1203 571 1203 500 1176 c 1,54,55
 440 816 440 816 240 -174 c 2,56,-1
 209 -328 l 1,57,58
 209 -352 209 -352 187.5 -373.5 c 128,-1,59
 166 -395 166 -395 141 -395 c 0,0,1
422 1266 m 1,60,61
 496 1665 496 1665 547 1903 c 1,62,63
 402 1863 402 1863 272.5 1745 c 128,-1,64
 143 1627 143 1627 143 1495 c 0,65,66
 143 1328 143 1328 328 1287 c 2,67,-1
 422 1266 l 1,60,61
EndSplineSet
EndChar

StartChar: periodcentered
Encoding: 183 183 121
Width: 909
Flags: HW
LayerCount: 2
Fore
SplineSet
348.5 634 m 128,-1,1
 326 682 326 682 326 725 c 128,-1,2
 326 768 326 768 338 787.5 c 128,-1,3
 350 807 350 807 380 828.5 c 128,-1,4
 410 850 410 850 459.5 850 c 128,-1,5
 509 850 509 850 550.5 821.5 c 128,-1,6
 592 793 592 793 592 754.5 c 0,7,8
 592 687.28 592 687.28 536 636.64 c 128,-1,9
 480 586 480 586 425.5 586 c 128,-1,0
 371 586 371 586 348.5 634 c 128,-1,1
EndSplineSet
EndChar

StartChar: cedilla
Encoding: 184 184 122
Width: 1272
Flags: HW
LayerCount: 2
Fore
SplineSet
502 -272 m 0,0,1
 465 -272 465 -272 465 -239.5 c 0,2,3
 465 -207 465 -207 492 -176 c 1,4,5
 518 -127 518 -127 541 -76 c 128,-1,6
 564 -25 564 -25 596 18 c 1,7,8
 615 35 615 35 637 35 c 0,9,10
 674 35 674 35 674 2 c 0,11,12
 674 -14 674 -14 661.5 -33 c 128,-1,13
 649 -52 649 -52 621 -113 c 1,14,15
 705 -117 705 -117 775.5 -193 c 128,-1,16
 846 -269 846 -269 846 -352 c 128,-1,17
 846 -435 846 -435 777 -512.5 c 128,-1,18
 708 -590 708 -590 582 -590 c 0,19,20
 528 -590 528 -590 478 -574 c 0,21,22
 381 -541 381 -541 381 -504 c 0,23,24
 381 -484 381 -484 398 -467.5 c 128,-1,25
 415 -451 415 -451 438 -451 c 1,26,-1
 453 -453 l 1,27,28
 539 -496 539 -496 599 -496 c 0,29,30
 659 -496 659 -496 704.5 -459 c 128,-1,31
 750 -422 750 -422 750 -375.5 c 128,-1,32
 750 -329 750 -329 720 -287 c 0,33,34
 663 -205 663 -205 604 -205 c 0,35,36
 570 -205 570 -205 549 -248 c 1,37,-1
 545 -246 l 1,38,39
 521 -272 521 -272 502 -272 c 0,0,1
EndSplineSet
EndChar

StartChar: onesuperior
Encoding: 185 185 123
Width: 580
Flags: HW
LayerCount: 2
Fore
SplineSet
332 1204 m 2,0,1
 541 1204 541 1204 541 1161 c 0,2,3
 541 1140 541 1140 517 1118 c 128,-1,4
 493 1096 493 1096 460 1096 c 128,-1,5
 427 1096 427 1096 382 1104 c 128,-1,6
 337 1112 337 1112 262 1112 c 128,-1,7
 187 1112 187 1112 121 1079 c 1,8,9
 109 1075 109 1075 98 1075 c 0,10,11
 68 1075 68 1075 68 1102 c 0,12,13
 68 1171 68 1171 238 1198 c 1,14,15
 303 1428 303 1428 354 1653 c 1,16,17
 276 1575 276 1575 195 1559 c 1,18,19
 162 1562 162 1562 162 1585 c 0,20,21
 162 1602 162 1602 177 1621.5 c 128,-1,22
 192 1641 192 1641 215 1651 c 1,23,24
 292 1667 292 1667 362 1791 c 0,25,26
 380 1822 380 1822 389.5 1835.5 c 128,-1,27
 399 1849 399 1849 398 1850.5 c 128,-1,28
 397 1852 397 1852 399 1855 c 1,29,-1
 403 1855 l 1,30,31
 435 1901 435 1901 469 1901 c 0,32,33
 496 1901 496 1901 496 1866 c 1,34,35
 412 1468 412 1468 330 1204 c 1,36,-1
 332 1204 l 2,0,1
EndSplineSet
EndChar

StartChar: ordmasculine
Encoding: 186 186 124
Width: 524
Flags: HW
LayerCount: 2
Fore
SplineSet
608 1830 m 0,0,1
 621 1818 621 1818 621 1797 c 128,-1,2
 621 1776 621 1776 590 1755 c 1,3,4
 590 1368 590 1368 450 1192 c 0,5,6
 365 1085 365 1085 233 1085 c 0,7,8
 180 1085 180 1085 139 1135.5 c 128,-1,9
 98 1186 98 1186 98 1248.5 c 0,10,11
 98 1369.89655172 98 1369.89655172 160 1511 c 128,-1,12
 222 1652 222 1652 318 1753 c 128,-1,13
 414 1854 414 1854 510 1862 c 1,14,15
 571 1862 571 1862 608 1830 c 0,0,1
502 1765 m 1,16,17
 499 1767 499 1767 496 1767 c 2,18,-1
 492 1767 l 1,19,20
 373 1719 373 1719 283 1575 c 128,-1,21
 193 1431 193 1431 193 1274 c 0,22,23
 193 1214 193 1214 224 1190 c 0,24,25
 236 1180 236 1180 268.5 1180 c 128,-1,26
 301 1180 301 1180 338.5 1204 c 128,-1,27
 376 1228 376 1228 417.5 1287 c 128,-1,28
 459 1346 459 1346 485.5 1468.5 c 128,-1,29
 512 1591 512 1591 512 1720 c 1,30,-1
 502 1765 l 1,16,17
EndSplineSet
EndChar

StartChar: guillemotright
Encoding: 187 187 125
Width: 676
Flags: HW
LayerCount: 2
Fore
SplineSet
-63 178 m 1,0,1
 -100 182 -100 182 -100 215 c 1,2,3
 -97 237 -97 237 -79.5 255.5 c 128,-1,4
 -62 274 -62 274 -43 279 c 1,5,-1
 -12 309 l 2,6,7
 -1 319 -1 319 19.5 341 c 128,-1,8
 40 363 40 363 151.808988764 447.640449438 c 128,-1,9
 263.617977528 532.280898876 263.617977528 532.280898876 266 543 c 1,10,11
 250 566 250 566 209.5 585.5 c 128,-1,12
 169 605 169 605 148 622 c 0,13,14
 70 685 70 685 70 808 c 0,15,16
 70 865 70 865 90 892.5 c 128,-1,17
 110 920 110 920 140 920 c 128,-1,18
 170 920 170 920 168 879.5 c 128,-1,19
 166 839 166 839 166 810 c 128,-1,20
 166 781 166 781 181 755 c 128,-1,21
 196 729 196 729 219 708.5 c 128,-1,22
 242 688 242 688 268.5 671.5 c 128,-1,23
 295 655 295 655 333 629.5 c 128,-1,24
 371 604 371 604 371 578 c 128,-1,25
 371 552 371 552 351 526.5 c 128,-1,26
 331 501 331 501 296 470 c 128,-1,27
 261 439 261 439 211.5 401 c 128,-1,28
 162 363 162 363 124 331.5 c 128,-1,29
 86 300 86 300 67.5 278.5 c 128,-1,30
 49 257 49 257 12.5 220.5 c 128,-1,31
 -24 184 -24 184 -63 178 c 1,0,1
479 734.5 m 128,-1,33
 498 707 498 707 545 654.5 c 128,-1,34
 592 602 592 602 612.5 592 c 128,-1,35
 633 582 633 582 633 563.5 c 128,-1,36
 633 545 633 545 614 526 c 0,37,38
 579.833333333 491.833333333 579.833333333 491.833333333 462.306929418 430.719603297 c 128,-1,39
 344.780525502 369.605873261 344.780525502 369.605873261 303 313 c 1,40,41
 279 289 279 289 250 289 c 128,-1,42
 221 289 221 289 221 315 c 0,43,44
 221 330 221 330 229 346 c 1,45,46
 290 424 290 424 421 495 c 0,47,48
 458 515 458 515 494 535 c 1,49,50
 393 619 393 619 348 742 c 0,51,52
 335.47826087 776.956521739 335.47826087 776.956521739 335.47826087 801.847826087 c 128,-1,53
 335.47826087 826.739130435 335.47826087 826.739130435 351.739130435 851.869565217 c 128,-1,54
 368 877 368 877 401 877 c 128,-1,55
 434 877 434 877 434.5 847 c 128,-1,56
 435 817 435 817 447.5 789.5 c 128,-1,32
 460 762 460 762 479 734.5 c 128,-1,33
EndSplineSet
EndChar

StartChar: onequarter
Encoding: 188 188 126
Width: 1397
Flags: HW
LayerCount: 2
Fore
SplineSet
150 -129 m 0,0,1
 150 -115 150 -115 174.5 -60.5 c 0,2,3
 199 -6 199 -6 244 99 c 128,-1,4
 289 204 289 204 338 305 c 1,5,-1
 805 1290 l 1,6,-1
 1206 2103 l 1,7,-1
 1208 2103 l 2,8,9
 1264 2103 1264 2103 1264 2071 c 0,10,11
 1264 2053 1264 2053 1247 2036 c 1,12,13
 1247 2034 1247 2034 1248 2034 c 2,14,-1
 1249 2034 l 1,15,16
 1249 1965 1249 1965 1140 1748 c 1,17,-1
 1101 1669 l 1,18,19
 702 871 702 871 436 287 c 2,20,-1
 248 -127 l 1,21,22
 231 -162 231 -162 190.5 -162 c 128,-1,23
 150 -162 150 -162 150 -129 c 0,0,1
1090 432 m 1,24,25
 919 399 919 399 858 399 c 128,-1,26
 797 399 797 399 797 434 c 128,-1,27
 797 469 797 469 835.5 518.5 c 128,-1,28
 874 568 874 568 897 595.5 c 128,-1,29
 920 623 920 623 934 643 c 1,30,-1
 934 641 l 1,31,32
 952 677 952 677 972 720 c 0,33,34
 1072 928 1072 928 1134 940 c 0,35,36
 1141 942 1141 942 1149 942 c 0,37,38
 1182 942 1182 942 1182 905 c 0,39,40
 1182 883 1182 883 1165 864 c 1,41,42
 1129 840 1129 840 1083.5 736 c 128,-1,43
 1038 632 1038 632 946 510 c 0,44,45
 942 506 942 506 942 504 c 1,46,47
 968 508 968 508 990.5 511 c 128,-1,48
 1013 514 1013 514 1034 517 c 128,-1,49
 1055 520 1055 520 1075.5 522.5 c 128,-1,50
 1096 525 1096 525 1120 530 c 1,51,52
 1149 622 1149 622 1182 686 c 1,53,54
 1182 683 1182 683 1180 677 c 1,55,56
 1188 703 1188 703 1199 742 c 0,57,58
 1247 911 1247 911 1313 911 c 0,59,60
 1346 911 1346 911 1346 874 c 0,61,62
 1346 847 1346 847 1325.5 803.5 c 128,-1,63
 1305 760 1305 760 1294.5 668.5 c 0,64,65
 1284 577 1284 577 1266 504 c 1,66,67
 1249 470 1249 470 1200 457 c 1,68,69
 1133 264 1133 264 1071 152 c 1,70,-1
 1071 156 l 1,71,72
 1034 74 1034 74 1030.5 40 c 128,-1,73
 1027 6 1027 6 1008 -10.5 c 128,-1,74
 989 -27 989 -27 971 -27 c 0,75,76
 940 -27 940 -27 936 16 c 1,77,78
 944 94 944 94 996 201.5 c 0,79,80
 1048 309 1048 309 1090 432 c 1,24,25
446 1358 m 2,81,82
 655 1358 655 1358 655 1315 c 0,83,84
 655 1293 655 1293 631 1271 c 128,-1,85
 607 1249 607 1249 574 1249 c 128,-1,86
 541 1249 541 1249 496 1257.5 c 128,-1,87
 451 1266 451 1266 378.5 1266 c 128,-1,88
 306 1266 306 1266 236 1233 c 1,89,90
 222 1229 222 1229 213 1229 c 0,91,92
 182 1229 182 1229 182 1253 c 0,93,94
 182 1295 182 1295 236 1320 c 1,95,96
 276 1340 276 1340 352 1352 c 1,97,98
 419 1585 419 1585 469 1806 c 1,99,100
 391 1728 391 1728 309 1712 c 1,101,102
 276 1716 276 1716 276 1739 c 0,103,104
 276 1756 276 1756 291.5 1775.5 c 128,-1,105
 307 1795 307 1795 330 1804 c 1,106,107
 409 1823 409 1823 478 1944 c 0,108,109
 495 1975 495 1975 504.5 1989 c 128,-1,110
 514 2003 514 2003 513 2004.5 c 128,-1,111
 512 2006 512 2006 514 2009 c 1,112,-1
 518 2009 l 1,113,114
 550 2054 550 2054 584 2054 c 0,115,116
 610 2054 610 2054 610 2019 c 1,117,118
 526 1624 526 1624 444 1358 c 1,119,-1
 446 1358 l 2,81,82
EndSplineSet
EndChar

StartChar: onehalf
Encoding: 189 189 127
Width: 1397
Flags: HW
LayerCount: 2
Fore
SplineSet
150 -129 m 0,0,1
 150 -115 150 -115 174.5 -60.5 c 0,2,3
 199 -6 199 -6 253.5 118 c 128,-1,4
 308 242 308 242 338 305 c 1,5,-1
 602 883 l 2,6,7
 650 986 650 986 702.5 1086.5 c 128,-1,8
 755 1187 755 1187 805 1290 c 2,9,-1
 1206 2103 l 1,10,-1
 1208 2103 l 2,11,12
 1264 2103 1264 2103 1264 2071 c 0,13,14
 1264 2053 1264 2053 1247 2036 c 1,15,16
 1247 2034 1247 2034 1248 2034 c 2,17,-1
 1249 2034 l 1,18,19
 1249 1965 1249 1965 1140 1748 c 1,20,-1
 1101 1669 l 1,21,22
 702 871 702 871 436 287 c 2,23,-1
 248 -127 l 1,24,25
 231 -162 231 -162 190.5 -162 c 128,-1,26
 150 -162 150 -162 150 -129 c 0,0,1
782 59 m 128,-1,28
 739 59 739 59 739 111.5 c 0,29,30
 739 164 739 164 804 224 c 0,31,32
 832 250 832 250 864.5 266.5 c 128,-1,33
 897 283 897 283 915.5 283 c 128,-1,34
 934 283 934 283 944 279 c 1,35,36
 1096 465 1096 465 1198 754 c 1,37,38
 1142 744 1142 744 1081 688 c 1,39,40
 1076 665 1076 665 1056.5 647 c 128,-1,41
 1037 629 1037 629 1016 629 c 0,42,43
 981 629 981 629 981 673.5 c 128,-1,44
 981 718 981 718 1074 784 c 1,45,46
 1170 850 1170 850 1239 850 c 0,47,48
 1298 850 1298 850 1298 786 c 0,49,50
 1298 737 1298 737 1264 670 c 0,51,52
 1113 370 1113 370 1004 238 c 1,53,54
 1014 226 1014 226 1023 212 c 128,-1,55
 1032 198 1032 198 1041 185 c 0,56,57
 1072 141 1072 141 1126 118 c 0,58,59
 1142 111 1142 111 1162.5 111 c 128,-1,60
 1183 111 1183 111 1227 117 c 1,61,62
 1255 108 1255 108 1255 83.5 c 0,63,64
 1255 59 1255 59 1224.5 39.5 c 128,-1,65
 1194 20 1194 20 1157 20 c 0,66,67
 1014 20 1014 20 920 147 c 1,68,27
 825 59 825 59 782 59 c 128,-1,28
446 1358 m 2,69,70
 655 1358 655 1358 655 1315 c 0,71,72
 655 1293 655 1293 631 1271 c 128,-1,73
 607 1249 607 1249 574 1249 c 128,-1,74
 541 1249 541 1249 496 1257.5 c 128,-1,75
 451 1266 451 1266 378.5 1266 c 128,-1,76
 306 1266 306 1266 236 1233 c 1,77,78
 222 1229 222 1229 213 1229 c 0,79,80
 182 1229 182 1229 182 1253 c 0,81,82
 182 1295 182 1295 236 1320 c 1,83,84
 276 1340 276 1340 352 1352 c 1,85,86
 419 1585 419 1585 469 1806 c 1,87,88
 391 1728 391 1728 309 1712 c 1,89,90
 276 1716 276 1716 276 1739 c 0,91,92
 276 1756 276 1756 291.5 1775.5 c 128,-1,93
 307 1795 307 1795 330 1804 c 1,94,95
 409 1823 409 1823 478 1944 c 0,96,97
 495 1975 495 1975 504.5 1989 c 128,-1,98
 514 2003 514 2003 513 2004.5 c 128,-1,99
 512 2006 512 2006 514 2009 c 1,100,-1
 518 2009 l 1,101,102
 550 2054 550 2054 584 2054 c 0,103,104
 610 2054 610 2054 610 2019 c 1,105,106
 526 1624 526 1624 444 1358 c 1,107,-1
 446 1358 l 2,69,70
EndSplineSet
EndChar

StartChar: threequarters
Encoding: 190 190 128
Width: 1397
Flags: HW
LayerCount: 2
Fore
SplineSet
150 -129 m 0,0,1
 150 -115 150 -115 174.5 -60.5 c 128,-1,2
 199 -6 199 -6 244 99 c 128,-1,3
 289 204 289 204 338 305 c 1,4,-1
 805 1290 l 1,5,-1
 1206 2103 l 1,6,-1
 1208 2103 l 2,7,8
 1264 2103 1264 2103 1264 2071 c 0,9,10
 1264 2053 1264 2053 1247 2036 c 1,11,12
 1247 2034 1247 2034 1248 2034 c 2,13,-1
 1249 2034 l 1,14,15
 1249 1965 1249 1965 1140 1748 c 1,16,-1
 1101 1669 l 1,17,18
 702 871 702 871 436 287 c 2,19,-1
 248 -127 l 1,20,21
 231 -162 231 -162 190.5 -162 c 128,-1,22
 150 -162 150 -162 150 -129 c 0,0,1
731 1912 m 0,23,24
 731 1782 731 1782 541 1638 c 1,25,26
 625 1598 625 1598 625 1454 c 0,27,28
 625 1239 625 1239 430 1058 c 0,29,30
 284 922 284 922 150 922 c 0,31,32
 63 922 63 922 -22.5 986 c 128,-1,33
 -108 1050 -108 1050 -113 1174 c 1,34,35
 -103 1216 -103 1216 -66 1234 c 0,36,37
 -54 1239 -54 1239 -38.5 1239 c 128,-1,38
 -23 1239 -23 1239 -14 1217 c 1,39,40
 -12 1125 -12 1125 37 1076.5 c 128,-1,41
 86 1028 86 1028 156 1028 c 0,42,43
 297 1028 297 1028 410.5 1140 c 128,-1,44
 524 1252 524 1252 524 1427 c 0,45,46
 524 1549 524 1549 459 1559 c 1,47,48
 430.428571429 1555.42857143 430.428571429 1555.42857143 415.071428571 1555.42857143 c 0,49,50
 399.714285714 1555.42857143 399.714285714 1555.42857143 392 1556 c 0,51,52
 365 1558 365 1558 365 1585 c 128,-1,53
 365 1612 365 1612 414.5 1646 c 128,-1,54
 464 1680 464 1680 498 1703 c 128,-1,55
 532 1726 532 1726 562 1752 c 128,-1,56
 592 1778 592 1778 611.5 1807.5 c 128,-1,57
 631 1837 631 1837 631 1871 c 128,-1,58
 631 1905 631 1905 561 1905 c 0,59,60
 522 1905 522 1905 496.5 1894.5 c 128,-1,61
 471 1884 471 1884 463 1884 c 1,62,63
 450 1874 450 1874 432 1874 c 0,64,65
 403 1874 403 1874 403 1899 c 0,66,67
 403 1944 403 1944 461.5 1972.5 c 128,-1,68
 520 2001 520 2001 584.5 2001 c 128,-1,69
 649 2001 649 2001 690 1977 c 128,-1,70
 731 1953 731 1953 731 1912 c 0,23,24
1090 432 m 1,71,72
 919 399 919 399 858 399 c 128,-1,73
 797 399 797 399 797 434 c 128,-1,74
 797 469 797 469 835.5 518.5 c 128,-1,75
 874 568 874 568 897 595.5 c 128,-1,76
 920 623 920 623 934 643 c 1,77,-1
 934 641 l 1,78,79
 952 677 952 677 972 720 c 0,80,81
 1072 928 1072 928 1134 940 c 0,82,83
 1141 942 1141 942 1149 942 c 0,84,85
 1182 942 1182 942 1182 905 c 0,86,87
 1182 883 1182 883 1165 864 c 1,88,89
 1129 840 1129 840 1083.5 736 c 128,-1,90
 1038 632 1038 632 946 510 c 0,91,92
 942 506 942 506 942 504 c 1,93,94
 968 508 968 508 990.5 511 c 128,-1,95
 1013 514 1013 514 1034 517 c 128,-1,96
 1055 520 1055 520 1075.5 522.5 c 128,-1,97
 1096 525 1096 525 1120 530 c 1,98,99
 1149 622 1149 622 1182 686 c 1,100,101
 1182 683 1182 683 1180 677 c 1,102,103
 1188 703 1188 703 1199 742 c 0,104,105
 1247 911 1247 911 1313 911 c 0,106,107
 1346 911 1346 911 1346 874 c 0,108,109
 1346 847 1346 847 1325.5 803.5 c 128,-1,110
 1305 760 1305 760 1294.5 668.5 c 128,-1,111
 1284 577 1284 577 1266 504 c 1,112,113
 1249 470 1249 470 1200 457 c 1,114,115
 1133 264 1133 264 1071 152 c 1,116,-1
 1071 156 l 1,117,118
 1034 74 1034 74 1030.5 40 c 128,-1,119
 1027 6 1027 6 1008 -10.5 c 128,-1,120
 989 -27 989 -27 971 -27 c 0,121,122
 940 -27 940 -27 936 16 c 1,123,124
 944 94 944 94 996 201.5 c 128,-1,125
 1048 309 1048 309 1090 432 c 1,71,72
420 1563 m 1,126,127
 426 1563 426 1563 430 1567 c 1,128,129
 427 1565 427 1565 424.5 1565 c 128,-1,130
 422 1565 422 1565 420 1563 c 1,126,127
EndSplineSet
EndChar

StartChar: AE
Encoding: 198 198 136
Width: 1878
Flags: HW
LayerCount: 2
Fore
SplineSet
1898 1982 m 2,0,1
 1999 1982 1999 1982 1999 1948 c 0,2,3
 1999 1927 1999 1927 1984.5 1909.5 c 128,-1,4
 1970 1892 1970 1892 1950 1886 c 1,5,-1
 1812 1886 l 2,6,7
 1382 1886 1382 1886 1223 1833 c 1,8,9
 1215 1810 1215 1810 1207.5 1789 c 128,-1,10
 1200 1768 1200 1768 1180.5 1677.5 c 128,-1,11
 1161 1587 1161 1587 1120 1412 c 128,-1,12
 1079 1237 1079 1237 1038 1061 c 1,13,14
 1097 1053 1097 1053 1183 1053 c 2,15,-1
 1309 1053 l 2,16,17
 1552 1053 1552 1053 1616 1057 c 1,18,19
 1651 1047 1651 1047 1651 1024 c 0,20,21
 1651 982 1651 982 1610.5 969 c 128,-1,22
 1570 956 1570 956 1481 956 c 1,23,-1
 1309 958 l 1,24,-1
 1276 958 l 2,25,26
 1073 958 1073 958 1018 967 c 1,27,28
 979 794 979 794 966 722 c 128,-1,29
 953 650 953 650 948 624 c 1,30,31
 1268 608 1268 608 1290 578 c 0,32,33
 1298 567 1298 567 1298 550 c 128,-1,34
 1298 533 1298 533 1279.5 515.5 c 128,-1,35
 1261 498 1261 498 1235 498 c 1,36,37
 1110 522 1110 522 934 531 c 1,38,39
 900 311 900 311 872.5 225.5 c 128,-1,40
 845 140 845 140 821 92 c 1,41,-1
 1612 76 l 1,42,43
 1714 76 1714 76 1753 80 c 1,44,45
 1788 71 1788 71 1788 37.5 c 0,46,47
 1788 4 1788 4 1749 -7 c 128,-1,48
 1710 -18 1710 -18 1638 -18 c 2,49,-1
 1624 -18 l 2,50,51
 1470 -18 1470 -18 1179.5 -7 c 128,-1,52
 889 4 889 4 829 4 c 1,53,-1
 760 -2 l 1,54,55
 725 -2 725 -2 713.5 12.5 c 128,-1,56
 702 27 702 27 702 40 c 128,-1,57
 702 53 702 53 709 64 c 128,-1,58
 716 75 716 75 751.5 155.5 c 128,-1,59
 787 236 787 236 839 535 c 1,60,-1
 514 541 l 1,61,62
 250 141 250 141 16 35 c 1,63,64
 -62 -4 -62 -4 -106 -4 c 0,65,66
 -160 -4 -160 -4 -160 47 c 0,67,68
 -160 73 -160 73 -142 92 c 128,-1,69
 -124 111 -124 111 -103.5 111 c 128,-1,70
 -83 111 -83 111 -74 94 c 1,71,-1
 -72 96 l 1,72,73
 142 179 142 179 332 432 c 0,74,75
 361 472 361 472 379 495 c 128,-1,76
 397 518 397 518 414 543 c 1,77,78
 259 551 259 551 182 559 c 1,79,80
 154 570 154 570 154 592 c 128,-1,81
 154 614 154 614 171.5 632 c 128,-1,82
 189 650 189 650 211 653 c 1,83,84
 290 643 290 643 477 635 c 1,85,86
 685 949 685 949 972 1506 c 0,87,88
 1045 1647 1045 1647 1095 1796 c 1,89,90
 1081 1807 1081 1807 1081 1834 c 128,-1,91
 1081 1861 1081 1861 1123 1887 c 1,92,93
 1128 1904 1128 1904 1131.5 1919.5 c 128,-1,94
 1135 1935 1135 1935 1141 1954 c 128,-1,95
 1147 1973 1147 1973 1165 1987 c 128,-1,96
 1183 2001 1183 2001 1200 2001 c 0,97,98
 1231 2001 1231 2001 1231 1952 c 1,99,-1
 1230 1948 l 1,100,101
 1236 1936 1236 1936 1237 1931 c 1,102,103
 1437 1982 1437 1982 1842 1982 c 2,104,-1
 1898 1982 l 2,0,1
855 628 m 1,105,106
 860 652 860 652 864.5 676 c 128,-1,107
 869 700 869 700 874 725 c 2,108,-1
 934 1010 l 1,109,-1
 934 1016 l 2,110,111
 934 1028 934 1028 942 1047 c 1,112,113
 988 1255 988 1255 1028 1426 c 1,114,115
 762 920 762 920 578 633 c 1,116,-1
 855 628 l 1,105,106
EndSplineSet
EndChar

StartChar: Ccedilla
Encoding: 199 199 137
Width: 1098
Flags: HW
LayerCount: 2
Fore
SplineSet
501 -30 m 1,0,-1
 479 -31 l 1,1,2
 305 -31 305 -31 183 139 c 128,-1,3
 61 309 61 309 61 590 c 0,4,5
 61 810 61 810 186 1205.5 c 128,-1,6
 311 1601 311 1601 504 1821 c 1,7,8
 658 1995 658 1995 818 1995 c 128,-1,9
 978 1995 978 1995 1087 1861.5 c 128,-1,10
 1196 1728 1196 1728 1196 1589 c 1,11,12
 1193 1568 1193 1568 1175 1550 c 128,-1,13
 1157 1532 1157 1532 1139 1532 c 128,-1,14
 1121 1532 1121 1532 1112.5 1544 c 0,15,16
 1099.44642857 1562.42857143 1099.44642857 1562.42857143 1093.5 1610 c 0,17,18
 1077.60088692 1737.19290466 1077.60088692 1737.19290466 1002.80044346 1816.59645233 c 128,-1,19
 928 1896 928 1896 816 1896 c 128,-1,20
 704 1896 704 1896 577 1745 c 0,21,22
 408 1545 408 1545 287 1178.5 c 128,-1,23
 166 812 166 812 166 599.5 c 128,-1,24
 166 387 166 387 238 244 c 0,25,26
 326 70 326 70 492 70 c 0,27,28
 614 70 614 70 772 184 c 0,29,30
 816 216 816 216 843 236 c 128,-1,31
 870 256 870 256 887 256 c 0,32,33
 922 256 922 256 922 219 c 0,34,35
 922 191 922 191 890 168 c 128,-1,36
 858 145 858 145 824 120.5 c 128,-1,37
 790 96 790 96 733 57 c 128,-1,38
 676 18 676 18 610 -6 c 1,39,40
 608 -19 608 -19 597 -35 c 128,-1,41
 586 -51 586 -51 558 -113 c 1,42,43
 642 -117 642 -117 712.5 -193 c 128,-1,44
 783 -269 783 -269 783 -352 c 128,-1,45
 783 -435 783 -435 714 -512.5 c 128,-1,46
 645 -590 645 -590 519 -590 c 0,47,48
 465 -590 465 -590 416 -574 c 0,49,50
 318 -541 318 -541 318 -504 c 0,51,52
 318 -484 318 -484 335 -467.5 c 128,-1,53
 352 -451 352 -451 375 -451 c 1,54,-1
 390 -453 l 1,55,56
 476 -496 476 -496 536 -496 c 128,-1,57
 596 -496 596 -496 641.5 -459 c 128,-1,58
 687 -422 687 -422 687 -375.5 c 128,-1,59
 687 -329 687 -329 658 -287 c 0,60,61
 600 -205 600 -205 541 -205 c 0,62,63
 507 -205 507 -205 486 -248 c 1,64,-1
 482 -246 l 1,65,66
 458 -272 458 -272 439 -272 c 0,67,68
 402 -272 402 -272 402 -239.5 c 128,-1,69
 402 -207 402 -207 429 -176 c 1,70,71
 448 -140 448 -140 464.5 -102.5 c 128,-1,72
 481 -65 481 -65 501 -30 c 1,0,-1
EndSplineSet
EndChar

StartChar: Eth
Encoding: 208 208 146
Width: 1370
Flags: HW
LayerCount: 2
Fore
SplineSet
-489 469 m 1,0,1
 -484 537 -484 537 -457 537 c 0,2,3
 -423 537 -423 537 -412 512 c 1,4,5
 -376 421 -376 421 -340.5 345 c 128,-1,6
 -305 269 -305 269 -254 212 c 0,7,8
 -145 90 -145 90 59 72 c 1,9,10
 72 154 72 154 136.5 450 c 128,-1,11
 201 746 201 746 258 982 c 1,12,-1
 188 975 l 1,13,14
 74 961 74 961 26 961 c 128,-1,15
 -22 961 -22 961 -40.5 962.5 c 128,-1,16
 -59 964 -59 964 -75.5 967 c 128,-1,17
 -92 970 -92 970 -103.5 974 c 128,-1,18
 -115 978 -115 978 -113 983 c 1,19,20
 -123 996 -123 996 -123 1014 c 128,-1,21
 -123 1032 -123 1032 -106 1048.5 c 128,-1,22
 -89 1065 -89 1065 -70.5 1065 c 128,-1,23
 -52 1065 -52 1065 -43 1059 c 1,24,25
 -34 1060 -34 1060 44.5 1060 c 0,26,27
 123 1060 123 1060 178 1066 c 128,-1,28
 233 1072 233 1072 281 1077 c 1,29,30
 389 1518 389 1518 502 1835 c 1,31,32
 377 1793 377 1793 276 1729 c 1,33,34
 263 1724 263 1724 254 1724 c 0,35,36
 219 1724 219 1724 219 1761 c 0,37,38
 219 1791 219 1791 244 1808 c 1,39,40
 393 1900 393 1900 541 1942 c 1,41,42
 560 1968 560 1968 580.5 1968 c 128,-1,43
 601 1968 601 1968 608 1958 c 1,44,45
 704 1980 704 1980 823.5 1980 c 128,-1,46
 943 1980 943 1980 1046 1929 c 0,47,48
 1337 1784 1337 1784 1337 1286 c 0,49,50
 1337 702 1337 702 1066 360 c 0,51,52
 873 118 873 118 540 26 c 1,53,54
 369 -20 369 -20 156 -20 c 2,55,-1
 143 -20 l 1,56,57
 136 -87 136 -87 111 -105 c 0,58,59
 100 -113 100 -113 82 -113 c 0,60,61
 43 -113 43 -113 43 -72 c 0,62,63
 43 -52 43 -52 47 -14 c 1,64,65
 -237 19 -237 19 -390 256 c 0,66,67
 -447 344 -447 344 -489 469 c 1,0,1
1241 1262 m 0,68,69
 1241 1882 1241 1882 774 1882 c 0,70,71
 678 1882 678 1882 600 1862 c 1,72,73
 478 1515 478 1515 371 1085 c 1,74,75
 637 1108 637 1108 924 1108 c 1,76,77
 958 1099 958 1099 958 1073 c 0,78,79
 958 1055 958 1055 943.5 1037.5 c 128,-1,80
 929 1020 929 1020 909 1014 c 1,81,82
 627 1014 627 1014 348 990 c 1,83,84
 260 627 260 627 152 68 c 1,85,-1
 158 68 l 2,86,87
 506 68 506 68 750.5 230 c 128,-1,88
 995 392 995 392 1118 664 c 128,-1,89
 1241 936 1241 936 1241 1262 c 0,68,69
EndSplineSet
EndChar

StartChar: multiply
Encoding: 215 215 153
Width: 745
Flags: HW
LayerCount: 2
Fore
SplineSet
377 748 m 1,0,1
 537 887 537 887 670 973 c 1,2,3
 685 979 685 979 701.5 979 c 128,-1,4
 718 979 718 979 729.5 965.5 c 128,-1,5
 741 952 741 952 741 930.5 c 128,-1,6
 741 909 741 909 719 887 c 1,7,8
 613 820 613 820 422 666 c 1,9,10
 492 541 492 541 537 496 c 128,-1,11
 582 451 582 451 607.5 434.5 c 128,-1,12
 633 418 633 418 633 400 c 128,-1,13
 633 382 633 382 615.5 368 c 128,-1,14
 598 354 598 354 580 354 c 128,-1,15
 562 354 562 354 555 358 c 0,16,17
 469 417 469 417 395 538 c 0,18,19
 374 573 374 573 354 608 c 1,20,21
 116 412 116 412 82 403 c 0,22,23
 74 401 74 401 61.5 401 c 128,-1,24
 49 401 49 401 39 411.5 c 128,-1,25
 29 422 29 422 29 444.5 c 128,-1,26
 29 467 29 467 61 492 c 1,27,28
 155 557 155 557 309 690 c 1,29,30
 280 737 280 737 249 783.5 c 128,-1,31
 218 830 218 830 197 883 c 1,32,-1
 197 891 l 2,33,34
 197 917 197 917 214.5 936.5 c 128,-1,35
 232 956 232 956 246 956 c 128,-1,36
 260 956 260 956 275 934 c 128,-1,37
 290 912 290 912 307.5 880 c 128,-1,38
 325 848 325 848 343.5 812 c 128,-1,39
 362 776 362 776 377 748 c 1,0,1
EndSplineSet
EndChar

StartChar: Oslash
Encoding: 216 216 154
Width: 1270
Flags: HW
LayerCount: 2
Fore
SplineSet
1043 1912 m 1,0,1
 1083 2083 1083 2083 1153 2092 c 1,2,-1
 1163 2092 l 2,3,4
 1193 2092 1193 2092 1193 2068.5 c 128,-1,5
 1193 2045 1193 2045 1163 2028 c 1,6,7
 1140 1990 1140 1990 1129.5 1929.5 c 128,-1,8
 1119 1869 1119 1869 1114 1857 c 128,-1,9
 1109 1845 1109 1845 1109 1843 c 1,10,11
 1237 1665 1237 1665 1237 1303.5 c 128,-1,12
 1237 942 1237 942 1104.5 596.5 c 128,-1,13
 972 251 972 251 756 79 c 0,14,15
 600 -45 600 -45 426 -45 c 0,16,17
 325 -45 325 -45 252 5 c 1,18,-1
 213 -82 l 1,19,20
 198 -111 198 -111 166.5 -111 c 128,-1,21
 135 -111 135 -111 135 -86 c 0,22,23
 135 -80 135 -80 140 -70 c 2,24,-1
 197 54 l 1,25,26
 61 207 61 207 61 625 c 128,-1,27
 61 1043 61 1043 230 1414 c 1,28,29
 413.06 1819 413.06 1819 707 1819 c 0,30,31
 821 1819 821 1819 922 1737 c 1,32,33
 940 1717 940 1717 940 1696 c 0,34,35
 940 1647 940 1647 907 1647 c 0,36,37
 899 1647 899 1647 860.5 1668 c 0,38,39
 768.833333333 1718 768.833333333 1718 675 1718 c 0,40,41
 552.038961039 1718 552.038961039 1718 431.019480519 1557.5 c 128,-1,42
 310 1397 310 1397 236 1145 c 128,-1,43
 162 893 162 893 162 647 c 0,44,45
 162 312 162 312 245 163 c 1,46,47
 268 217 268 217 292 271.5 c 128,-1,48
 316 326 316 326 338.5 378 c 128,-1,49
 361 430 361 430 381.5 477.5 c 128,-1,50
 402 525 402 525 420 564 c 2,51,-1
 574 901 l 1,52,53
 725 1235 725 1235 863.5 1496 c 128,-1,54
 1002 1757 1002 1757 1018 1812 c 1,55,56
 978 1866 978 1866 923 1881 c 128,-1,57
 868 1896 868 1896 826.5 1904 c 128,-1,58
 785 1912 785 1912 756 1922 c 128,-1,59
 727 1932 727 1932 727 1952 c 0,60,61
 727 1990 727 1990 778 1997 c 1,62,63
 939 1997 939 1997 1043 1912 c 1,0,1
295 99 m 1,64,65
 349 49 349 49 431.5 49 c 0,66,67
 592.269230769 49 592.269230769 49 727.275786425 180.961295002 c 128,-1,68
 862.282342081 312.922590004 862.282342081 312.922590004 953.64117104 517.961295002 c 128,-1,69
 1045 723 1045 723 1093 947.5 c 128,-1,70
 1141 1172 1141 1172 1141 1377.5 c 128,-1,71
 1141 1583 1141 1583 1064 1737 c 1,72,73
 1040 1683 1040 1683 917.5 1441 c 128,-1,74
 795 1199 795 1199 736 1075.5 c 128,-1,75
 677 952 677 952 623 833 c 128,-1,76
 569 714 569 714 513.5 589.5 c 128,-1,77
 458 465 458 465 402.5 340 c 128,-1,78
 347 215 347 215 295 99 c 1,64,65
EndSplineSet
EndChar

StartChar: Thorn
Encoding: 222 222 160
Width: 1286
Flags: HW
LayerCount: 2
Fore
SplineSet
583.5 2327 m 0,0,1
 621 2327 621 2327 621 2293.5 c 0,2,3
 621 2282 621 2282 618 2275 c 1,4,-1
 612 2253 l 1,5,6
 612 2182 612 2182 589 2094.5 c 128,-1,7
 566 2007 566 2007 551.5 1952 c 128,-1,8
 537 1897 537 1897 528 1837 c 1,9,10
 710 1995 710 1995 860 1995 c 0,11,12
 1166 1995 1166 1995 1278 1658 c 0,13,14
 1323 1521 1323 1521 1323 1349.5 c 0,15,16
 1323 1014.1641791 1323 1014.1641791 1190 823.582089552 c 128,-1,17
 1057 633 1057 633 806 558 c 1,18,19
 591 492 591 492 244 492 c 1,20,-1
 141 20 l 1,21,22
 133 -4 133 -4 111.5 -19.5 c 128,-1,23
 90 -35 90 -35 72 -35 c 0,24,25
 47 -35 47 -35 47 -8 c 0,26,27
 47 -5 47 -5 47 -2 c 128,-1,28
 47 1 47 1 49 6 c 2,29,-1
 508 2210 l 1,30,31
 516 2242 516 2242 516 2266 c 128,-1,32
 516 2290 516 2290 538.5 2308.5 c 128,-1,33
 561 2327 561 2327 583.5 2327 c 0,0,1
262 584 m 1,34,35
 566 584 566 584 708 619.5 c 128,-1,36
 850 655 850 655 940 706 c 0,37,38
 1233 870 1233 870 1233 1331 c 0,39,40
 1233 1738 1233 1738 1043 1854 c 0,41,42
 971 1898 971 1898 851.5 1898 c 128,-1,43
 732 1898 732 1898 583 1802 c 0,44,45
 539 1773 539 1773 510 1741 c 1,46,-1
 262 584 l 1,34,35
EndSplineSet
EndChar

